<mxfile host="Electron" modified="2023-07-27T17:47:40.353Z" agent="Mozilla/5.0 (Windows NT 10.0; Win64; x64) AppleWebKit/537.36 (KHTML, like Gecko) draw.io/21.6.1 Chrome/112.0.5615.204 Electron/24.6.1 Safari/537.36" etag="ZVAdnHJ7RPhbfY-_lBAD" version="21.6.1" type="device">
  <diagram id="S8_EbyP6fOLFSmQk0vZv" name="Seite-1">
    <mxGraphModel dx="714" dy="457" grid="1" gridSize="10" guides="1" tooltips="1" connect="1" arrows="1" fold="1" page="1" pageScale="1" pageWidth="827" pageHeight="1169" background="#FFFFFF" math="0" shadow="0">
      <root>
        <mxCell id="0" />
        <mxCell id="2" value="Layer 0" parent="0" />
        <mxCell id="keQ0cRB9MPPr5G5kg9qf-296" value="&lt;div style=&quot;width: 93.0px;height:auto;word-break: break-word;&quot;&gt;&lt;div align=&quot;center&quot;&gt;&lt;br&gt;&lt;/div&gt;&lt;/div&gt;" style="shape=rect;rounded=1;arcSize=15;absoluteArcSize=1;shadow=0;strokeWidth=2;fillColor=#FFFFFF;strokeColor=#000000;opacity=100.0;html=1;nl2Br=0;verticalAlign=middle;align=center;spacingLeft=2.0;spacingRight=0;whiteSpace=wrap;gliffyId=15;" vertex="1" parent="2">
          <mxGeometry x="1340" y="370" width="60" height="19" as="geometry" />
        </mxCell>
        <mxCell id="keQ0cRB9MPPr5G5kg9qf-269" style="shape=filledEdge;rounded=1;orthogonalLoop=1;jettySize=auto;html=1;entryX=0.5;entryY=1;entryDx=0;entryDy=0;labelBackgroundColor=default;strokeColor=#000000;strokeWidth=2;fontFamily=Helvetica;fontSize=11;fontColor=default;startArrow=none;startFill=0;endArrow=none;endFill=0;startSize=6;endSize=6;fillColor=none;" edge="1" parent="2" source="keQ0cRB9MPPr5G5kg9qf-258" target="keQ0cRB9MPPr5G5kg9qf-265">
          <mxGeometry relative="1" as="geometry" />
        </mxCell>
        <mxCell id="keQ0cRB9MPPr5G5kg9qf-270" style="shape=filledEdge;rounded=1;orthogonalLoop=1;jettySize=auto;html=1;entryX=0.5;entryY=1;entryDx=0;entryDy=0;labelBackgroundColor=default;strokeColor=#000000;strokeWidth=2;fontFamily=Helvetica;fontSize=11;fontColor=default;startArrow=none;startFill=0;endArrow=none;endFill=0;startSize=6;endSize=6;fillColor=none;" edge="1" parent="2" source="keQ0cRB9MPPr5G5kg9qf-258" target="keQ0cRB9MPPr5G5kg9qf-260">
          <mxGeometry relative="1" as="geometry" />
        </mxCell>
        <mxCell id="keQ0cRB9MPPr5G5kg9qf-271" style="shape=filledEdge;rounded=1;orthogonalLoop=1;jettySize=auto;html=1;entryX=0.5;entryY=1;entryDx=0;entryDy=0;labelBackgroundColor=default;strokeColor=#000000;strokeWidth=2;fontFamily=Helvetica;fontSize=11;fontColor=default;startArrow=none;startFill=0;endArrow=none;endFill=0;startSize=6;endSize=6;fillColor=none;" edge="1" parent="2" source="keQ0cRB9MPPr5G5kg9qf-258" target="keQ0cRB9MPPr5G5kg9qf-255">
          <mxGeometry relative="1" as="geometry" />
        </mxCell>
        <mxCell id="keQ0cRB9MPPr5G5kg9qf-258" value="&lt;div style=&quot;width: 83.0px;height:auto;word-break: break-word;&quot;&gt;&lt;div align=&quot;center&quot;&gt;&lt;br&gt;&lt;/div&gt;&lt;/div&gt;" style="shape=hexagon;perimeter=hexagonPerimeter2;shadow=0;strokeWidth=2;fillColor=#FFFFFF;strokeColor=#000000;opacity=100.0;html=1;nl2Br=0;verticalAlign=middle;align=center;spacingLeft=2.0;spacingRight=0;whiteSpace=wrap;gliffyId=195;" vertex="1" parent="2">
          <mxGeometry x="1050" y="384.5" width="60" height="24.5" as="geometry" />
        </mxCell>
        <mxCell id="36" value="&lt;div style=&quot;width: 147.0px;height:auto;word-break: break-word;&quot;&gt;&lt;div align=&quot;center&quot;&gt;&lt;span style=&quot;font-family: Arial; font-size: 12px; line-height: 0;&quot;&gt;&lt;span style=&quot;line-height: 14px;&quot; class=&quot;&quot;&gt;Base rules&lt;/span&gt;&lt;/span&gt;&lt;/div&gt;&lt;/div&gt;" style="text;html=1;nl2Br=0;html=1;nl2Br=0;verticalAlign=middle;align=center;spacingLeft=0.0;spacingRight=0;whiteSpace=wrap;gliffyId=397;" parent="2" vertex="1">
          <mxGeometry x="400" y="10" width="150" height="14" as="geometry" />
        </mxCell>
        <mxCell id="39" value="on fields represent a relation declaration on the mapping &#xa;&#xa;on a table indicate the created process block (black = unnamed relation)&#xa;&#xa;colored lines or borders represent a relation declaration in the model " style="shape=rect;shadow=0;strokeWidth=0;strokeColor=none;fillColor=#cccccc;opacity=100.0;nl2Br=0;verticalAlign=top;align=left;spacingLeft=81;spacingRight=0;spacingTop=2;spacingBottom=2;gliffyId=392;" parent="2" vertex="1">
          <mxGeometry x="850" y="24" width="660" height="106" as="geometry" />
        </mxCell>
        <mxCell id="111" value="&lt;div style=&quot;width: 351.57144px;height:auto;word-break: break-word;&quot;&gt;&lt;div align=&quot;center&quot;&gt;&lt;font face=&quot;Arial&quot;&gt;Tables with Field mappings with a relation declaration will&amp;nbsp;&lt;/font&gt;&lt;/div&gt;&lt;div align=&quot;center&quot;&gt;&lt;font face=&quot;Arial&quot;&gt;generate the process.&lt;/font&gt;&lt;/div&gt;&lt;/div&gt;" style="shape=note;size=10;shadow=0;strokeWidth=1;fillColor=#FFFFFF;strokeColor=#000000;opacity=100.0;html=1;nl2Br=0;verticalAlign=middle;align=center;spacingLeft=5.214286;spacingRight=0;whiteSpace=wrap;gliffyId=87;" parent="2" vertex="1">
          <mxGeometry x="430" y="24" width="365" height="70" as="geometry" />
        </mxCell>
        <mxCell id="keQ0cRB9MPPr5G5kg9qf-126" value="R (2..)" style="shape=rect;shadow=0;strokeWidth=0;strokeColor=none;fillColor=#cccccc;opacity=100.0;nl2Br=0;verticalAlign=middle;align=center;spacingLeft=2.0;spacingRight=0;spacingTop=1.0;spacingBottom=8;gliffyId=345;fontSize=36;fontStyle=1" vertex="1" parent="2">
          <mxGeometry x="371.25" y="235" width="267.5" height="50" as="geometry" />
        </mxCell>
        <mxCell id="keQ0cRB9MPPr5G5kg9qf-127" value="&lt;div style=&quot;width: 43.0px;height:auto;word-break: break-word;&quot;&gt;&lt;div align=&quot;center&quot;&gt;&lt;span style=&quot;font-size: 36px; font-weight: 700; background-color: initial;&quot;&gt;L(3..)&lt;/span&gt;&lt;/div&gt;&lt;/div&gt;" style="shape=rect;shadow=0;strokeWidth=0;strokeColor=none;fillColor=#cccccc;opacity=100.0;html=1;nl2Br=0;verticalAlign=top;align=center;spacingLeft=2.0;spacingRight=0;spacingTop=1.0;spacingBottom=8;gliffyId=345;" vertex="1" parent="2">
          <mxGeometry x="660" y="235" width="267.5" height="50" as="geometry" />
        </mxCell>
        <mxCell id="keQ0cRB9MPPr5G5kg9qf-128" value="&lt;div style=&quot;width: 43.0px;height:auto;word-break: break-word;&quot;&gt;&lt;div align=&quot;center&quot;&gt;&lt;span style=&quot;font-family: Helvetica; font-size: 36px; text-decoration: none; line-height: 36px; font-weight: bold;&quot;&gt;E (4..)&lt;/span&gt;&lt;/div&gt;&lt;/div&gt;" style="shape=rect;shadow=0;strokeWidth=0;strokeColor=none;fillColor=#cccccc;opacity=100.0;html=1;nl2Br=0;verticalAlign=top;align=center;spacingLeft=2.0;spacingRight=0;spacingTop=1.0;spacingBottom=8;gliffyId=345;" vertex="1" parent="2">
          <mxGeometry x="952.5" y="235" width="267.5" height="50" as="geometry" />
        </mxCell>
        <mxCell id="keQ0cRB9MPPr5G5kg9qf-129" value="&lt;div style=&quot;width: 43.0px;height:auto;word-break: break-word;&quot;&gt;&lt;div align=&quot;center&quot;&gt;&lt;span style=&quot;font-family: Helvetica; font-size: 36px; text-decoration: none; line-height: 36px; font-weight: bold;&quot;&gt;D (5..)&lt;/span&gt;&lt;/div&gt;&lt;/div&gt;" style="shape=rect;shadow=0;strokeWidth=0;strokeColor=none;fillColor=#cccccc;opacity=100.0;html=1;nl2Br=0;verticalAlign=top;align=center;spacingLeft=2.0;spacingRight=0;spacingTop=1.0;spacingBottom=8;gliffyId=345;" vertex="1" parent="2">
          <mxGeometry x="1242" y="235" width="267.5" height="50" as="geometry" />
        </mxCell>
        <mxCell id="keQ0cRB9MPPr5G5kg9qf-131" style="shape=filledEdge;strokeWidth=2;strokeColor=#000000;fillColor=none;startArrow=none;startFill=0;startSize=6;endArrow=none;endFill=0;endSize=6;rounded=1;gliffyId=17;edgeStyle=orthogonalEdgeStyle;" edge="1" source="keQ0cRB9MPPr5G5kg9qf-132" target="keQ0cRB9MPPr5G5kg9qf-133" parent="2">
          <mxGeometry width="1" height="23" relative="1" as="geometry">
            <Array as="points">
              <mxPoint x="413" y="346.5" />
              <mxPoint x="413" y="354.8333435058594" />
              <mxPoint x="413" y="363.1666564941406" />
              <mxPoint x="413" y="371.5" />
            </Array>
          </mxGeometry>
        </mxCell>
        <mxCell id="keQ0cRB9MPPr5G5kg9qf-132" value="&lt;div style=&quot;width: 93.0px;height:auto;word-break: break-word;&quot;&gt;&lt;div align=&quot;center&quot;&gt;&lt;br&gt;&lt;/div&gt;&lt;/div&gt;" style="shape=rect;rounded=1;arcSize=15;absoluteArcSize=1;shadow=0;strokeWidth=2;fillColor=#FFFFFF;strokeColor=#333333;opacity=100.0;html=1;nl2Br=0;verticalAlign=middle;align=center;spacingLeft=2.0;spacingRight=0;whiteSpace=wrap;gliffyId=15;" vertex="1" parent="2">
          <mxGeometry x="378.75" y="327.5" width="69.5" height="20" as="geometry" />
        </mxCell>
        <mxCell id="keQ0cRB9MPPr5G5kg9qf-161" style="edgeStyle=orthogonalEdgeStyle;shape=filledEdge;rounded=1;orthogonalLoop=1;jettySize=auto;html=1;labelBackgroundColor=default;strokeColor=#000000;strokeWidth=2;fontFamily=Helvetica;fontSize=11;fontColor=default;startArrow=none;startFill=0;endArrow=none;endFill=0;startSize=6;endSize=6;fillColor=none;" edge="1" parent="2" source="keQ0cRB9MPPr5G5kg9qf-133" target="keQ0cRB9MPPr5G5kg9qf-142">
          <mxGeometry relative="1" as="geometry" />
        </mxCell>
        <mxCell id="keQ0cRB9MPPr5G5kg9qf-133" value="&lt;div style=&quot;width: 93.0px;height:auto;word-break: break-word;&quot;&gt;&lt;div align=&quot;center&quot;&gt;&lt;span style=&quot;font-family: Arial; font-size: 12px; text-decoration: none; line-height: 0;&quot;&gt;&lt;span style=&quot;text-decoration: none; line-height: 14px;&quot;&gt;A&lt;/span&gt;&lt;/span&gt;&lt;/div&gt;&lt;/div&gt;" style="shape=ellipse;perimeter=ellipsePerimeter;shadow=0;strokeWidth=2;fillColor=#FFFFFF;strokeColor=#333333;opacity=100.0;html=1;nl2Br=0;verticalAlign=middle;align=center;spacingLeft=2.0;spacingRight=0;whiteSpace=wrap;gliffyId=12;" vertex="1" parent="2">
          <mxGeometry x="378.75" y="374" width="63" height="25" as="geometry" />
        </mxCell>
        <mxCell id="keQ0cRB9MPPr5G5kg9qf-139" style="shape=filledEdge;strokeWidth=2;strokeColor=#000000;fillColor=none;startArrow=none;startFill=0;startSize=6;endArrow=none;endFill=0;endSize=6;rounded=1;gliffyId=17;edgeStyle=orthogonalEdgeStyle;" edge="1" source="keQ0cRB9MPPr5G5kg9qf-140" target="keQ0cRB9MPPr5G5kg9qf-141" parent="2">
          <mxGeometry width="1" height="23" relative="1" as="geometry">
            <Array as="points">
              <mxPoint x="595.5" y="336.5" />
              <mxPoint x="595.5" y="344.8333435058594" />
              <mxPoint x="595.5" y="353.1666564941406" />
              <mxPoint x="595.5" y="361.5" />
            </Array>
          </mxGeometry>
        </mxCell>
        <mxCell id="keQ0cRB9MPPr5G5kg9qf-140" value="&lt;div style=&quot;width: 93.0px;height:auto;word-break: break-word;&quot;&gt;&lt;div align=&quot;center&quot;&gt;&lt;br&gt;&lt;/div&gt;&lt;/div&gt;" style="shape=rect;rounded=1;arcSize=15;absoluteArcSize=1;shadow=0;strokeWidth=2;fillColor=#FFFFFF;strokeColor=#333333;opacity=100.0;html=1;nl2Br=0;verticalAlign=middle;align=center;spacingLeft=2.0;spacingRight=0;whiteSpace=wrap;gliffyId=15;" vertex="1" parent="2">
          <mxGeometry x="561.75" y="327.5" width="69.5" height="20" as="geometry" />
        </mxCell>
        <mxCell id="keQ0cRB9MPPr5G5kg9qf-141" value="&lt;div style=&quot;width: 93.0px;height:auto;word-break: break-word;&quot;&gt;&lt;div align=&quot;center&quot;&gt;&lt;span style=&quot;font-family: Arial; font-size: 12px; text-decoration: none; line-height: 0;&quot;&gt;&lt;span style=&quot;text-decoration: none; line-height: 14px;&quot;&gt;B&lt;/span&gt;&lt;/span&gt;&lt;/div&gt;&lt;/div&gt;" style="shape=ellipse;perimeter=ellipsePerimeter;shadow=0;strokeWidth=2;fillColor=#FFFFFF;strokeColor=#333333;opacity=100.0;html=1;nl2Br=0;verticalAlign=top;align=center;spacingLeft=2.0;spacingRight=0;whiteSpace=wrap;gliffyId=12;" vertex="1" parent="2">
          <mxGeometry x="562.5" y="361.5" width="63" height="45" as="geometry" />
        </mxCell>
        <mxCell id="keQ0cRB9MPPr5G5kg9qf-162" style="edgeStyle=orthogonalEdgeStyle;shape=filledEdge;rounded=1;orthogonalLoop=1;jettySize=auto;html=1;labelBackgroundColor=default;strokeColor=#7f00ff;strokeWidth=2;fontFamily=Helvetica;fontSize=11;fontColor=default;startArrow=none;startFill=0;endArrow=none;endFill=0;startSize=6;endSize=6;fillColor=none;" edge="1" parent="2" source="keQ0cRB9MPPr5G5kg9qf-142" target="keQ0cRB9MPPr5G5kg9qf-141">
          <mxGeometry relative="1" as="geometry" />
        </mxCell>
        <mxCell id="keQ0cRB9MPPr5G5kg9qf-163" style="edgeStyle=orthogonalEdgeStyle;shape=filledEdge;rounded=1;orthogonalLoop=1;jettySize=auto;html=1;entryX=0;entryY=0;entryDx=0;entryDy=0;labelBackgroundColor=default;strokeColor=#00c74c;strokeWidth=2;fontFamily=Helvetica;fontSize=11;fontColor=default;startArrow=none;startFill=0;endArrow=none;endFill=0;startSize=6;endSize=6;fillColor=none;exitX=1;exitY=0.25;exitDx=0;exitDy=0;" edge="1" parent="2" source="keQ0cRB9MPPr5G5kg9qf-142" target="keQ0cRB9MPPr5G5kg9qf-141">
          <mxGeometry relative="1" as="geometry" />
        </mxCell>
        <mxCell id="keQ0cRB9MPPr5G5kg9qf-164" style="edgeStyle=orthogonalEdgeStyle;shape=filledEdge;rounded=1;orthogonalLoop=1;jettySize=auto;html=1;entryX=0.282;entryY=0.933;entryDx=0;entryDy=0;entryPerimeter=0;labelBackgroundColor=default;strokeColor=#cc0000;strokeWidth=2;fontFamily=Helvetica;fontSize=11;fontColor=default;startArrow=none;startFill=0;endArrow=none;endFill=0;startSize=6;endSize=6;fillColor=none;exitX=1;exitY=0.75;exitDx=0;exitDy=0;" edge="1" parent="2" source="keQ0cRB9MPPr5G5kg9qf-142" target="keQ0cRB9MPPr5G5kg9qf-141">
          <mxGeometry relative="1" as="geometry" />
        </mxCell>
        <mxCell id="keQ0cRB9MPPr5G5kg9qf-142" value="&lt;div style=&quot;width: 83.0px;height:auto;word-break: break-word;&quot;&gt;&lt;div align=&quot;center&quot;&gt;&lt;br&gt;&lt;/div&gt;&lt;/div&gt;" style="shape=hexagon;perimeter=hexagonPerimeter2;shadow=0;strokeWidth=2;fillColor=#FFFFFF;strokeColor=#333333;opacity=100.0;html=1;nl2Br=0;verticalAlign=middle;align=center;spacingLeft=2.0;spacingRight=0;whiteSpace=wrap;gliffyId=195;" vertex="1" parent="2">
          <mxGeometry x="471.25" y="366.5" width="60" height="40" as="geometry" />
        </mxCell>
        <mxCell id="keQ0cRB9MPPr5G5kg9qf-143" value="Field" style="shape=rect;shadow=0;strokeWidth=0;strokeColor=none;fillColor=#cccccc;opacity=100.0;html=1;nl2Br=0;verticalAlign=top;align=center;spacingLeft=2.0;spacingRight=0;spacingTop=1.0;spacingBottom=8;whiteSpace=wrap;gliffyId=345;fontSize=29;fontStyle=1" vertex="1" parent="2">
          <mxGeometry x="10" y="235" width="340" height="50" as="geometry" />
        </mxCell>
        <mxCell id="keQ0cRB9MPPr5G5kg9qf-144" value="ID_A1" style="rounded=0;whiteSpace=wrap;html=1;align=right;" vertex="1" parent="2">
          <mxGeometry x="80" y="300" width="70" height="20" as="geometry" />
        </mxCell>
        <mxCell id="keQ0cRB9MPPr5G5kg9qf-147" value="ID_B1_1" style="rounded=0;whiteSpace=wrap;html=1;align=right;" vertex="1" parent="2">
          <mxGeometry x="170" y="300" width="70" height="20" as="geometry" />
        </mxCell>
        <mxCell id="keQ0cRB9MPPr5G5kg9qf-148" value="ID_B2_1" style="rounded=0;whiteSpace=wrap;html=1;align=right;" vertex="1" parent="2">
          <mxGeometry x="170" y="364" width="70" height="20" as="geometry" />
        </mxCell>
        <mxCell id="keQ0cRB9MPPr5G5kg9qf-150" value="ID_B2_2" style="rounded=0;whiteSpace=wrap;html=1;align=right;" vertex="1" parent="2">
          <mxGeometry x="170" y="384" width="70" height="20" as="geometry" />
        </mxCell>
        <mxCell id="keQ0cRB9MPPr5G5kg9qf-151" value="ID_B1_2" style="rounded=0;whiteSpace=wrap;html=1;align=right;" vertex="1" parent="2">
          <mxGeometry x="170" y="319.5" width="70" height="20" as="geometry" />
        </mxCell>
        <mxCell id="keQ0cRB9MPPr5G5kg9qf-152" value="S_A1" style="rounded=0;whiteSpace=wrap;html=1;align=right;" vertex="1" parent="2">
          <mxGeometry x="80" y="325.25" width="70" height="20" as="geometry" />
        </mxCell>
        <mxCell id="keQ0cRB9MPPr5G5kg9qf-153" value="S_B1_1" style="rounded=0;whiteSpace=wrap;html=1;align=right;" vertex="1" parent="2">
          <mxGeometry x="260" y="320" width="80" height="20" as="geometry" />
        </mxCell>
        <mxCell id="keQ0cRB9MPPr5G5kg9qf-154" value="S_B1_2" style="rounded=0;whiteSpace=wrap;html=1;align=right;" vertex="1" parent="2">
          <mxGeometry x="260" y="340" width="80" height="20" as="geometry" />
        </mxCell>
        <mxCell id="keQ0cRB9MPPr5G5kg9qf-156" value="&lt;div style=&quot;width: 43.0px;height:auto;word-break: break-word;&quot;&gt;&lt;div align=&quot;center&quot;&gt;&lt;span style=&quot;font-family: Helvetica; font-size: 36px; text-decoration: none; line-height: 36px; font-weight: bold;&quot;&gt;01&lt;/span&gt;&lt;/div&gt;&lt;/div&gt;" style="shape=rect;shadow=0;strokeWidth=0;strokeColor=none;fillColor=#cccccc;opacity=100.0;html=1;nl2Br=0;verticalAlign=top;align=center;spacingLeft=2.0;spacingRight=0;spacingTop=1.0;spacingBottom=8;whiteSpace=wrap;gliffyId=345;" vertex="1" parent="2">
          <mxGeometry x="10" y="285" width="50" height="155" as="geometry" />
        </mxCell>
        <mxCell id="keQ0cRB9MPPr5G5kg9qf-158" value="ID_B2_3" style="rounded=0;whiteSpace=wrap;html=1;align=right;" vertex="1" parent="2">
          <mxGeometry x="170" y="404.5" width="70" height="20" as="geometry" />
        </mxCell>
        <mxCell id="keQ0cRB9MPPr5G5kg9qf-159" value="ID_B1_3" style="rounded=0;whiteSpace=wrap;html=1;align=right;" vertex="1" parent="2">
          <mxGeometry x="170" y="339.5" width="70" height="20" as="geometry" />
        </mxCell>
        <mxCell id="keQ0cRB9MPPr5G5kg9qf-160" value="S_B1_3" style="rounded=0;whiteSpace=wrap;html=1;align=right;" vertex="1" parent="2">
          <mxGeometry x="260" y="360" width="80" height="20" as="geometry" />
        </mxCell>
        <mxCell id="keQ0cRB9MPPr5G5kg9qf-165" value="" style="ellipse;whiteSpace=wrap;html=1;strokeColor=none;fillColor=#000000;" vertex="1" parent="2">
          <mxGeometry x="389.25" y="383.5" width="10" height="11" as="geometry" />
        </mxCell>
        <mxCell id="keQ0cRB9MPPr5G5kg9qf-166" value="" style="ellipse;whiteSpace=wrap;html=1;strokeColor=none;fillColor=#000000;" vertex="1" parent="2">
          <mxGeometry x="481.25" y="383.5" width="10" height="11" as="geometry" />
        </mxCell>
        <mxCell id="keQ0cRB9MPPr5G5kg9qf-167" value="" style="ellipse;whiteSpace=wrap;html=1;strokeColor=none;fillColor=#000000;" vertex="1" parent="2">
          <mxGeometry x="386.75" y="332" width="10" height="11" as="geometry" />
        </mxCell>
        <mxCell id="keQ0cRB9MPPr5G5kg9qf-168" value="" style="ellipse;whiteSpace=wrap;html=1;strokeColor=none;fillColor=#00c74c;" vertex="1" parent="2">
          <mxGeometry x="175" y="304.5" width="10" height="11" as="geometry" />
        </mxCell>
        <mxCell id="keQ0cRB9MPPr5G5kg9qf-169" value="" style="ellipse;whiteSpace=wrap;html=1;strokeColor=none;fillColor=#00c74c;" vertex="1" parent="2">
          <mxGeometry x="175" y="369.5" width="10" height="11" as="geometry" />
        </mxCell>
        <mxCell id="keQ0cRB9MPPr5G5kg9qf-170" value="" style="ellipse;whiteSpace=wrap;html=1;strokeColor=none;fillColor=#00c74c;" vertex="1" parent="2">
          <mxGeometry x="270" y="325.5" width="10" height="11" as="geometry" />
        </mxCell>
        <mxCell id="keQ0cRB9MPPr5G5kg9qf-171" value="" style="ellipse;whiteSpace=wrap;html=1;strokeColor=none;fillColor=#00c74c;" vertex="1" parent="2">
          <mxGeometry x="576.25" y="388" width="10" height="11" as="geometry" />
        </mxCell>
        <mxCell id="keQ0cRB9MPPr5G5kg9qf-172" value="" style="ellipse;whiteSpace=wrap;html=1;strokeColor=none;fillColor=#00c74c;" vertex="1" parent="2">
          <mxGeometry x="574.25" y="332" width="10" height="11" as="geometry" />
        </mxCell>
        <mxCell id="keQ0cRB9MPPr5G5kg9qf-173" value="" style="ellipse;whiteSpace=wrap;html=1;strokeColor=none;fillColor=#7f00ff;" vertex="1" parent="2">
          <mxGeometry x="589" y="388" width="10" height="11" as="geometry" />
        </mxCell>
        <mxCell id="keQ0cRB9MPPr5G5kg9qf-174" value="" style="ellipse;whiteSpace=wrap;html=1;strokeColor=none;fillColor=#7f00ff;" vertex="1" parent="2">
          <mxGeometry x="591.5" y="332" width="10" height="11" as="geometry" />
        </mxCell>
        <mxCell id="keQ0cRB9MPPr5G5kg9qf-175" value="" style="ellipse;whiteSpace=wrap;html=1;strokeColor=none;fillColor=#7f00ff;" vertex="1" parent="2">
          <mxGeometry x="270" y="344.5" width="10" height="11" as="geometry" />
        </mxCell>
        <mxCell id="keQ0cRB9MPPr5G5kg9qf-176" value="" style="ellipse;whiteSpace=wrap;html=1;strokeColor=none;fillColor=#7f00ff;" vertex="1" parent="2">
          <mxGeometry x="175" y="324" width="10" height="11" as="geometry" />
        </mxCell>
        <mxCell id="keQ0cRB9MPPr5G5kg9qf-177" value="" style="ellipse;whiteSpace=wrap;html=1;strokeColor=none;fillColor=#7f00ff;" vertex="1" parent="2">
          <mxGeometry x="175" y="388.5" width="10" height="11" as="geometry" />
        </mxCell>
        <mxCell id="keQ0cRB9MPPr5G5kg9qf-179" value="" style="ellipse;whiteSpace=wrap;html=1;strokeColor=none;fillColor=#cc0000;" vertex="1" parent="2">
          <mxGeometry x="603.75" y="388" width="10" height="11" as="geometry" />
        </mxCell>
        <mxCell id="keQ0cRB9MPPr5G5kg9qf-180" value="" style="ellipse;whiteSpace=wrap;html=1;strokeColor=none;fillColor=#cc0000;" vertex="1" parent="2">
          <mxGeometry x="608.75" y="332" width="10" height="11" as="geometry" />
        </mxCell>
        <mxCell id="keQ0cRB9MPPr5G5kg9qf-182" value="" style="ellipse;whiteSpace=wrap;html=1;strokeColor=none;fillColor=#cc0000;" vertex="1" parent="2">
          <mxGeometry x="270" y="364.5" width="10" height="11" as="geometry" />
        </mxCell>
        <mxCell id="keQ0cRB9MPPr5G5kg9qf-183" value="" style="ellipse;whiteSpace=wrap;html=1;strokeColor=none;fillColor=#cc0000;" vertex="1" parent="2">
          <mxGeometry x="175" y="344" width="10" height="11" as="geometry" />
        </mxCell>
        <mxCell id="keQ0cRB9MPPr5G5kg9qf-184" value="" style="ellipse;whiteSpace=wrap;html=1;strokeColor=none;fillColor=#cc0000;" vertex="1" parent="2">
          <mxGeometry x="175" y="409" width="10" height="11" as="geometry" />
        </mxCell>
        <mxCell id="keQ0cRB9MPPr5G5kg9qf-185" value="&lt;div style=&quot;width: 93.0px;height:auto;word-break: break-word;&quot;&gt;&lt;div align=&quot;center&quot;&gt;&lt;br&gt;&lt;/div&gt;&lt;/div&gt;" style="shape=rect;rounded=1;arcSize=15;absoluteArcSize=1;shadow=0;strokeWidth=2;fillColor=#FFFFFF;strokeColor=#333333;opacity=100.0;html=1;nl2Br=0;verticalAlign=middle;align=center;spacingLeft=2.0;spacingRight=0;whiteSpace=wrap;gliffyId=15;" vertex="1" parent="2">
          <mxGeometry x="479.25" y="347.5" width="40" height="20" as="geometry" />
        </mxCell>
        <mxCell id="keQ0cRB9MPPr5G5kg9qf-186" value="" style="ellipse;whiteSpace=wrap;html=1;strokeColor=none;fillColor=#000000;" vertex="1" parent="2">
          <mxGeometry x="484.25" y="352" width="10" height="11" as="geometry" />
        </mxCell>
        <mxCell id="keQ0cRB9MPPr5G5kg9qf-187" style="shape=filledEdge;strokeWidth=2;strokeColor=#000000;fillColor=none;startArrow=none;startFill=0;startSize=6;endArrow=none;endFill=0;endSize=6;rounded=1;gliffyId=17;edgeStyle=orthogonalEdgeStyle;" edge="1" source="keQ0cRB9MPPr5G5kg9qf-188" target="keQ0cRB9MPPr5G5kg9qf-190" parent="2">
          <mxGeometry width="1" height="23" relative="1" as="geometry">
            <Array as="points">
              <mxPoint x="704.25" y="352" />
              <mxPoint x="704.25" y="360.3333435058594" />
              <mxPoint x="704.25" y="368.6666564941406" />
              <mxPoint x="704.25" y="377" />
            </Array>
          </mxGeometry>
        </mxCell>
        <mxCell id="keQ0cRB9MPPr5G5kg9qf-188" value="&lt;div style=&quot;width: 93.0px;height:auto;word-break: break-word;&quot;&gt;&lt;div align=&quot;center&quot;&gt;&lt;br&gt;&lt;/div&gt;&lt;/div&gt;" style="shape=rect;rounded=1;arcSize=15;absoluteArcSize=1;shadow=0;strokeWidth=2;fillColor=#FFFFFF;strokeColor=#333333;opacity=100.0;html=1;nl2Br=0;verticalAlign=middle;align=center;spacingLeft=2.0;spacingRight=0;whiteSpace=wrap;gliffyId=15;" vertex="1" parent="2">
          <mxGeometry x="670" y="333" width="69.5" height="20" as="geometry" />
        </mxCell>
        <mxCell id="keQ0cRB9MPPr5G5kg9qf-189" style="edgeStyle=orthogonalEdgeStyle;shape=filledEdge;rounded=1;orthogonalLoop=1;jettySize=auto;html=1;labelBackgroundColor=default;strokeColor=#000000;strokeWidth=2;fontFamily=Helvetica;fontSize=11;fontColor=default;startArrow=none;startFill=0;endArrow=none;endFill=0;startSize=6;endSize=6;fillColor=none;entryX=0;entryY=0.5;entryDx=0;entryDy=0;" edge="1" source="keQ0cRB9MPPr5G5kg9qf-190" target="keQ0cRB9MPPr5G5kg9qf-197" parent="2">
          <mxGeometry relative="1" as="geometry" />
        </mxCell>
        <mxCell id="keQ0cRB9MPPr5G5kg9qf-233" style="edgeStyle=orthogonalEdgeStyle;shape=filledEdge;rounded=1;orthogonalLoop=1;jettySize=auto;html=1;entryX=0;entryY=0.5;entryDx=0;entryDy=0;labelBackgroundColor=default;strokeColor=#000000;strokeWidth=2;fontFamily=Helvetica;fontSize=11;fontColor=default;startArrow=none;startFill=0;endArrow=none;endFill=0;startSize=6;endSize=6;fillColor=none;" edge="1" parent="2" source="keQ0cRB9MPPr5G5kg9qf-190" target="keQ0cRB9MPPr5G5kg9qf-227">
          <mxGeometry relative="1" as="geometry" />
        </mxCell>
        <mxCell id="keQ0cRB9MPPr5G5kg9qf-234" style="edgeStyle=orthogonalEdgeStyle;shape=filledEdge;rounded=1;orthogonalLoop=1;jettySize=auto;html=1;entryX=0;entryY=0.5;entryDx=0;entryDy=0;labelBackgroundColor=default;strokeColor=#000000;strokeWidth=2;fontFamily=Helvetica;fontSize=11;fontColor=default;startArrow=none;startFill=0;endArrow=none;endFill=0;startSize=6;endSize=6;fillColor=none;" edge="1" parent="2" source="keQ0cRB9MPPr5G5kg9qf-190" target="keQ0cRB9MPPr5G5kg9qf-223">
          <mxGeometry relative="1" as="geometry" />
        </mxCell>
        <mxCell id="keQ0cRB9MPPr5G5kg9qf-190" value="&lt;div style=&quot;width: 93.0px;height:auto;word-break: break-word;&quot;&gt;&lt;div align=&quot;center&quot;&gt;&lt;span style=&quot;font-family: Arial; font-size: 12px; text-decoration: none; line-height: 0;&quot;&gt;&lt;span style=&quot;text-decoration: none; line-height: 14px;&quot;&gt;A&lt;/span&gt;&lt;/span&gt;&lt;/div&gt;&lt;/div&gt;" style="shape=ellipse;perimeter=ellipsePerimeter;shadow=0;strokeWidth=2;fillColor=#FFFFFF;strokeColor=#333333;opacity=100.0;html=1;nl2Br=0;verticalAlign=middle;align=center;spacingLeft=2.0;spacingRight=0;whiteSpace=wrap;gliffyId=12;" vertex="1" parent="2">
          <mxGeometry x="670" y="379.5" width="63" height="25" as="geometry" />
        </mxCell>
        <mxCell id="keQ0cRB9MPPr5G5kg9qf-191" style="shape=filledEdge;strokeWidth=2;strokeColor=#000000;fillColor=none;startArrow=none;startFill=0;startSize=6;endArrow=none;endFill=0;endSize=6;rounded=1;gliffyId=17;edgeStyle=orthogonalEdgeStyle;" edge="1" source="keQ0cRB9MPPr5G5kg9qf-192" target="keQ0cRB9MPPr5G5kg9qf-193" parent="2">
          <mxGeometry width="1" height="23" relative="1" as="geometry">
            <Array as="points">
              <mxPoint x="886.75" y="344" />
              <mxPoint x="886.75" y="352.3333435058594" />
              <mxPoint x="886.75" y="360.6666564941406" />
              <mxPoint x="886.75" y="369" />
            </Array>
          </mxGeometry>
        </mxCell>
        <mxCell id="keQ0cRB9MPPr5G5kg9qf-192" value="&lt;div style=&quot;width: 93.0px;height:auto;word-break: break-word;&quot;&gt;&lt;div align=&quot;center&quot;&gt;&lt;br&gt;&lt;/div&gt;&lt;/div&gt;" style="shape=rect;rounded=1;arcSize=15;absoluteArcSize=1;shadow=0;strokeWidth=2;fillColor=#FFFFFF;strokeColor=#333333;opacity=100.0;html=1;nl2Br=0;verticalAlign=middle;align=center;spacingLeft=2.0;spacingRight=0;whiteSpace=wrap;gliffyId=15;" vertex="1" parent="2">
          <mxGeometry x="853" y="335" width="69.5" height="20" as="geometry" />
        </mxCell>
        <mxCell id="keQ0cRB9MPPr5G5kg9qf-193" value="&lt;div style=&quot;width: 93.0px;height:auto;word-break: break-word;&quot;&gt;&lt;div align=&quot;center&quot;&gt;&lt;span style=&quot;font-family: Arial; font-size: 12px; text-decoration: none; line-height: 0;&quot;&gt;&lt;span style=&quot;text-decoration: none; line-height: 14px;&quot;&gt;B&lt;/span&gt;&lt;/span&gt;&lt;/div&gt;&lt;/div&gt;" style="shape=ellipse;perimeter=ellipsePerimeter;shadow=0;strokeWidth=2;fillColor=#FFFFFF;strokeColor=#333333;opacity=100.0;html=1;nl2Br=0;verticalAlign=top;align=center;spacingLeft=2.0;spacingRight=0;whiteSpace=wrap;gliffyId=12;" vertex="1" parent="2">
          <mxGeometry x="853.75" y="369" width="63" height="45" as="geometry" />
        </mxCell>
        <mxCell id="keQ0cRB9MPPr5G5kg9qf-194" style="edgeStyle=orthogonalEdgeStyle;shape=filledEdge;rounded=1;orthogonalLoop=1;jettySize=auto;html=1;labelBackgroundColor=default;strokeColor=#000000;strokeWidth=2;fontFamily=Helvetica;fontSize=11;fontColor=default;startArrow=none;startFill=0;endArrow=none;endFill=0;startSize=6;endSize=6;fillColor=none;" edge="1" source="keQ0cRB9MPPr5G5kg9qf-197" target="keQ0cRB9MPPr5G5kg9qf-193" parent="2">
          <mxGeometry relative="1" as="geometry">
            <Array as="points">
              <mxPoint x="830" y="340" />
              <mxPoint x="830" y="391" />
            </Array>
          </mxGeometry>
        </mxCell>
        <mxCell id="keQ0cRB9MPPr5G5kg9qf-197" value="&lt;div style=&quot;width: 83.0px;height:auto;word-break: break-word;&quot;&gt;&lt;div align=&quot;center&quot;&gt;&lt;br&gt;&lt;/div&gt;&lt;/div&gt;" style="shape=hexagon;perimeter=hexagonPerimeter2;shadow=0;strokeWidth=2;fillColor=#FFFFFF;strokeColor=#000000;opacity=100.0;html=1;nl2Br=0;verticalAlign=middle;align=center;spacingLeft=2.0;spacingRight=0;whiteSpace=wrap;gliffyId=195;" vertex="1" parent="2">
          <mxGeometry x="773.25" y="327.75" width="41" height="24.5" as="geometry" />
        </mxCell>
        <mxCell id="keQ0cRB9MPPr5G5kg9qf-198" value="" style="ellipse;whiteSpace=wrap;html=1;strokeColor=none;fillColor=#000000;" vertex="1" parent="2">
          <mxGeometry x="680.5" y="389" width="10" height="11" as="geometry" />
        </mxCell>
        <mxCell id="keQ0cRB9MPPr5G5kg9qf-199" value="" style="ellipse;whiteSpace=wrap;html=1;strokeColor=none;fillColor=#00c74c;" vertex="1" parent="2">
          <mxGeometry x="786.75" y="334.5" width="10" height="11" as="geometry" />
        </mxCell>
        <mxCell id="keQ0cRB9MPPr5G5kg9qf-200" value="" style="ellipse;whiteSpace=wrap;html=1;strokeColor=none;fillColor=#000000;" vertex="1" parent="2">
          <mxGeometry x="678" y="337.5" width="10" height="11" as="geometry" />
        </mxCell>
        <mxCell id="keQ0cRB9MPPr5G5kg9qf-201" value="" style="ellipse;whiteSpace=wrap;html=1;strokeColor=none;fillColor=#00c74c;" vertex="1" parent="2">
          <mxGeometry x="867.5" y="395.5" width="10" height="11" as="geometry" />
        </mxCell>
        <mxCell id="keQ0cRB9MPPr5G5kg9qf-202" value="" style="ellipse;whiteSpace=wrap;html=1;strokeColor=none;fillColor=#00c74c;" vertex="1" parent="2">
          <mxGeometry x="865.5" y="339.5" width="10" height="11" as="geometry" />
        </mxCell>
        <mxCell id="keQ0cRB9MPPr5G5kg9qf-203" value="" style="ellipse;whiteSpace=wrap;html=1;strokeColor=none;fillColor=#7F00FF;" vertex="1" parent="2">
          <mxGeometry x="880.25" y="395.5" width="10" height="11" as="geometry" />
        </mxCell>
        <mxCell id="keQ0cRB9MPPr5G5kg9qf-204" value="" style="ellipse;whiteSpace=wrap;html=1;strokeColor=none;fillColor=#7f00ff;" vertex="1" parent="2">
          <mxGeometry x="882.75" y="339.5" width="10" height="11" as="geometry" />
        </mxCell>
        <mxCell id="keQ0cRB9MPPr5G5kg9qf-205" value="" style="ellipse;whiteSpace=wrap;html=1;strokeColor=none;fillColor=#cc0000;" vertex="1" parent="2">
          <mxGeometry x="895" y="395.5" width="10" height="11" as="geometry" />
        </mxCell>
        <mxCell id="keQ0cRB9MPPr5G5kg9qf-206" value="" style="ellipse;whiteSpace=wrap;html=1;strokeColor=none;fillColor=#cc0000;" vertex="1" parent="2">
          <mxGeometry x="900" y="339.5" width="10" height="11" as="geometry" />
        </mxCell>
        <mxCell id="keQ0cRB9MPPr5G5kg9qf-207" value="&lt;div style=&quot;width: 93.0px;height:auto;word-break: break-word;&quot;&gt;&lt;div align=&quot;center&quot;&gt;&lt;br&gt;&lt;/div&gt;&lt;/div&gt;" style="shape=rect;rounded=1;arcSize=15;absoluteArcSize=1;shadow=0;strokeWidth=2;fillColor=#FFFFFF;strokeColor=#00c74c;opacity=100.0;html=1;nl2Br=0;verticalAlign=middle;align=center;spacingLeft=2.0;spacingRight=0;whiteSpace=wrap;gliffyId=15;" vertex="1" parent="2">
          <mxGeometry x="778.75" y="307.75" width="30" height="20" as="geometry" />
        </mxCell>
        <mxCell id="keQ0cRB9MPPr5G5kg9qf-208" value="" style="ellipse;whiteSpace=wrap;html=1;strokeColor=none;fillColor=#00c74c;" vertex="1" parent="2">
          <mxGeometry x="783.75" y="312.25" width="10" height="11" as="geometry" />
        </mxCell>
        <mxCell id="keQ0cRB9MPPr5G5kg9qf-210" value="" style="ellipse;whiteSpace=wrap;html=1;strokeColor=none;fillColor=#00c74c;" vertex="1" parent="2">
          <mxGeometry x="875.5" y="35" width="10" height="11" as="geometry" />
        </mxCell>
        <mxCell id="keQ0cRB9MPPr5G5kg9qf-211" value="" style="ellipse;whiteSpace=wrap;html=1;strokeColor=none;fillColor=#7f00ff;" vertex="1" parent="2">
          <mxGeometry x="892.75" y="35" width="10" height="11" as="geometry" />
        </mxCell>
        <mxCell id="keQ0cRB9MPPr5G5kg9qf-212" value="" style="ellipse;whiteSpace=wrap;html=1;strokeColor=none;fillColor=#cc0000;" vertex="1" parent="2">
          <mxGeometry x="910" y="35" width="10" height="11" as="geometry" />
        </mxCell>
        <mxCell id="keQ0cRB9MPPr5G5kg9qf-214" value="" style="ellipse;whiteSpace=wrap;html=1;strokeColor=none;fillColor=#000000;" vertex="1" parent="2">
          <mxGeometry x="862.5" y="64" width="10" height="11" as="geometry" />
        </mxCell>
        <mxCell id="keQ0cRB9MPPr5G5kg9qf-215" value="" style="ellipse;whiteSpace=wrap;html=1;strokeColor=none;fillColor=#00c74c;" vertex="1" parent="2">
          <mxGeometry x="878" y="64" width="10" height="11" as="geometry" />
        </mxCell>
        <mxCell id="keQ0cRB9MPPr5G5kg9qf-216" value="" style="ellipse;whiteSpace=wrap;html=1;strokeColor=none;fillColor=#7f00ff;" vertex="1" parent="2">
          <mxGeometry x="895.25" y="64" width="10" height="11" as="geometry" />
        </mxCell>
        <mxCell id="keQ0cRB9MPPr5G5kg9qf-217" value="" style="ellipse;whiteSpace=wrap;html=1;strokeColor=none;fillColor=#cc0000;" vertex="1" parent="2">
          <mxGeometry x="912.5" y="64" width="10" height="11" as="geometry" />
        </mxCell>
        <mxCell id="keQ0cRB9MPPr5G5kg9qf-219" value="" style="rounded=1;whiteSpace=wrap;html=1;fontFamily=Helvetica;fontSize=11;fontColor=default;strokeColor=#7f00ff;fillColor=none;" vertex="1" parent="2">
          <mxGeometry x="890.25" y="88" width="12.75" height="16" as="geometry" />
        </mxCell>
        <mxCell id="keQ0cRB9MPPr5G5kg9qf-220" value="" style="rounded=1;whiteSpace=wrap;html=1;fontFamily=Helvetica;fontSize=11;fontColor=default;strokeColor=#cc0000;fillColor=none;" vertex="1" parent="2">
          <mxGeometry x="865.75" y="90" width="17" height="14" as="geometry" />
        </mxCell>
        <mxCell id="keQ0cRB9MPPr5G5kg9qf-232" style="edgeStyle=orthogonalEdgeStyle;shape=filledEdge;rounded=1;orthogonalLoop=1;jettySize=auto;html=1;entryX=0;entryY=0.5;entryDx=0;entryDy=0;labelBackgroundColor=default;strokeColor=#000000;strokeWidth=2;fontFamily=Helvetica;fontSize=11;fontColor=default;startArrow=none;startFill=0;endArrow=none;endFill=0;startSize=6;endSize=6;fillColor=none;" edge="1" parent="2" source="keQ0cRB9MPPr5G5kg9qf-223" target="keQ0cRB9MPPr5G5kg9qf-193">
          <mxGeometry relative="1" as="geometry" />
        </mxCell>
        <mxCell id="keQ0cRB9MPPr5G5kg9qf-223" value="&lt;div style=&quot;width: 83.0px;height:auto;word-break: break-word;&quot;&gt;&lt;div align=&quot;center&quot;&gt;&lt;br&gt;&lt;/div&gt;&lt;/div&gt;" style="shape=hexagon;perimeter=hexagonPerimeter2;shadow=0;strokeWidth=2;fillColor=#FFFFFF;strokeColor=#000000;opacity=100.0;html=1;nl2Br=0;verticalAlign=middle;align=center;spacingLeft=2.0;spacingRight=0;whiteSpace=wrap;gliffyId=195;" vertex="1" parent="2">
          <mxGeometry x="773.25" y="380" width="41" height="24.5" as="geometry" />
        </mxCell>
        <mxCell id="keQ0cRB9MPPr5G5kg9qf-224" value="" style="ellipse;whiteSpace=wrap;html=1;strokeColor=none;fillColor=#7F00FF;" vertex="1" parent="2">
          <mxGeometry x="786.75" y="386.75" width="10" height="11" as="geometry" />
        </mxCell>
        <mxCell id="keQ0cRB9MPPr5G5kg9qf-225" value="&lt;div style=&quot;width: 93.0px;height:auto;word-break: break-word;&quot;&gt;&lt;div align=&quot;center&quot;&gt;&lt;br&gt;&lt;/div&gt;&lt;/div&gt;" style="shape=rect;rounded=1;arcSize=15;absoluteArcSize=1;shadow=0;strokeWidth=2;fillColor=#FFFFFF;strokeColor=#7F00FF;opacity=100.0;html=1;nl2Br=0;verticalAlign=middle;align=center;spacingLeft=2.0;spacingRight=0;whiteSpace=wrap;gliffyId=15;" vertex="1" parent="2">
          <mxGeometry x="778.75" y="360" width="30" height="20" as="geometry" />
        </mxCell>
        <mxCell id="keQ0cRB9MPPr5G5kg9qf-226" value="" style="ellipse;whiteSpace=wrap;html=1;strokeColor=none;fillColor=#7F00FF;" vertex="1" parent="2">
          <mxGeometry x="783.75" y="364.5" width="10" height="11" as="geometry" />
        </mxCell>
        <mxCell id="keQ0cRB9MPPr5G5kg9qf-231" style="edgeStyle=orthogonalEdgeStyle;shape=filledEdge;rounded=1;orthogonalLoop=1;jettySize=auto;html=1;entryX=0;entryY=0.5;entryDx=0;entryDy=0;labelBackgroundColor=default;strokeColor=#000000;strokeWidth=2;fontFamily=Helvetica;fontSize=11;fontColor=default;startArrow=none;startFill=0;endArrow=none;endFill=0;startSize=6;endSize=6;fillColor=none;" edge="1" parent="2" source="keQ0cRB9MPPr5G5kg9qf-227" target="keQ0cRB9MPPr5G5kg9qf-193">
          <mxGeometry relative="1" as="geometry" />
        </mxCell>
        <mxCell id="keQ0cRB9MPPr5G5kg9qf-227" value="&lt;div style=&quot;width: 83.0px;height:auto;word-break: break-word;&quot;&gt;&lt;div align=&quot;center&quot;&gt;&lt;br&gt;&lt;/div&gt;&lt;/div&gt;" style="shape=hexagon;perimeter=hexagonPerimeter2;shadow=0;strokeWidth=2;fillColor=#FFFFFF;strokeColor=#000000;opacity=100.0;html=1;nl2Br=0;verticalAlign=middle;align=center;spacingLeft=2.0;spacingRight=0;whiteSpace=wrap;gliffyId=195;" vertex="1" parent="2">
          <mxGeometry x="773.25" y="435.5" width="41" height="24.5" as="geometry" />
        </mxCell>
        <mxCell id="keQ0cRB9MPPr5G5kg9qf-228" value="" style="ellipse;whiteSpace=wrap;html=1;strokeColor=none;fillColor=#cc0000;" vertex="1" parent="2">
          <mxGeometry x="786.75" y="442.25" width="10" height="11" as="geometry" />
        </mxCell>
        <mxCell id="keQ0cRB9MPPr5G5kg9qf-229" value="&lt;div style=&quot;width: 93.0px;height:auto;word-break: break-word;&quot;&gt;&lt;div align=&quot;center&quot;&gt;&lt;br&gt;&lt;/div&gt;&lt;/div&gt;" style="shape=rect;rounded=1;arcSize=15;absoluteArcSize=1;shadow=0;strokeWidth=2;fillColor=#FFFFFF;strokeColor=#cc0000;opacity=100.0;html=1;nl2Br=0;verticalAlign=middle;align=center;spacingLeft=2.0;spacingRight=0;whiteSpace=wrap;gliffyId=15;" vertex="1" parent="2">
          <mxGeometry x="778.75" y="415.5" width="30" height="20" as="geometry" />
        </mxCell>
        <mxCell id="keQ0cRB9MPPr5G5kg9qf-230" value="" style="ellipse;whiteSpace=wrap;html=1;strokeColor=none;fillColor=#cc0000;" vertex="1" parent="2">
          <mxGeometry x="783.75" y="420" width="10" height="11" as="geometry" />
        </mxCell>
        <mxCell id="keQ0cRB9MPPr5G5kg9qf-235" style="shape=filledEdge;strokeWidth=2;strokeColor=#000000;fillColor=none;startArrow=none;startFill=0;startSize=6;endArrow=none;endFill=0;endSize=6;rounded=1;gliffyId=17;edgeStyle=orthogonalEdgeStyle;" edge="1" source="keQ0cRB9MPPr5G5kg9qf-236" target="keQ0cRB9MPPr5G5kg9qf-240" parent="2">
          <mxGeometry width="1" height="23" relative="1" as="geometry">
            <Array as="points">
              <mxPoint x="991.75" y="356.5" />
              <mxPoint x="991.75" y="364.8333435058594" />
              <mxPoint x="991.75" y="373.1666564941406" />
              <mxPoint x="991.75" y="381.5" />
            </Array>
          </mxGeometry>
        </mxCell>
        <mxCell id="keQ0cRB9MPPr5G5kg9qf-236" value="&lt;div style=&quot;width: 93.0px;height:auto;word-break: break-word;&quot;&gt;&lt;div align=&quot;center&quot;&gt;&lt;br&gt;&lt;/div&gt;&lt;/div&gt;" style="shape=rect;rounded=1;arcSize=15;absoluteArcSize=1;shadow=0;strokeWidth=2;fillColor=#FFFFFF;strokeColor=#333333;opacity=100.0;html=1;nl2Br=0;verticalAlign=middle;align=center;spacingLeft=2.0;spacingRight=0;whiteSpace=wrap;gliffyId=15;" vertex="1" parent="2">
          <mxGeometry x="957.5" y="337.5" width="69.5" height="20" as="geometry" />
        </mxCell>
        <mxCell id="keQ0cRB9MPPr5G5kg9qf-239" style="edgeStyle=orthogonalEdgeStyle;shape=filledEdge;rounded=1;orthogonalLoop=1;jettySize=auto;html=1;entryX=0;entryY=0.5;entryDx=0;entryDy=0;labelBackgroundColor=default;strokeColor=#000000;strokeWidth=2;fontFamily=Helvetica;fontSize=11;fontColor=default;startArrow=none;startFill=0;endArrow=none;endFill=0;startSize=6;endSize=6;fillColor=none;" edge="1" source="keQ0cRB9MPPr5G5kg9qf-240" target="keQ0cRB9MPPr5G5kg9qf-258" parent="2">
          <mxGeometry relative="1" as="geometry" />
        </mxCell>
        <mxCell id="keQ0cRB9MPPr5G5kg9qf-240" value="&lt;div style=&quot;width: 93.0px;height:auto;word-break: break-word;&quot;&gt;&lt;div align=&quot;center&quot;&gt;&lt;span style=&quot;font-family: Arial; font-size: 12px; text-decoration: none; line-height: 0;&quot;&gt;&lt;span style=&quot;text-decoration: none; line-height: 14px;&quot;&gt;A&lt;/span&gt;&lt;/span&gt;&lt;/div&gt;&lt;/div&gt;" style="shape=ellipse;perimeter=ellipsePerimeter;shadow=0;strokeWidth=2;fillColor=#FFFFFF;strokeColor=#333333;opacity=100.0;html=1;nl2Br=0;verticalAlign=middle;align=center;spacingLeft=2.0;spacingRight=0;whiteSpace=wrap;gliffyId=12;" vertex="1" parent="2">
          <mxGeometry x="957.5" y="384" width="63" height="25" as="geometry" />
        </mxCell>
        <mxCell id="keQ0cRB9MPPr5G5kg9qf-241" style="shape=filledEdge;strokeWidth=2;strokeColor=#000000;fillColor=none;startArrow=none;startFill=0;startSize=6;endArrow=none;endFill=0;endSize=6;rounded=1;gliffyId=17;edgeStyle=orthogonalEdgeStyle;" edge="1" source="keQ0cRB9MPPr5G5kg9qf-242" target="keQ0cRB9MPPr5G5kg9qf-243" parent="2">
          <mxGeometry width="1" height="23" relative="1" as="geometry">
            <Array as="points">
              <mxPoint x="1174.25" y="348.5" />
              <mxPoint x="1174.25" y="356.8333435058594" />
              <mxPoint x="1174.25" y="365.1666564941406" />
              <mxPoint x="1174.25" y="373.5" />
            </Array>
          </mxGeometry>
        </mxCell>
        <mxCell id="keQ0cRB9MPPr5G5kg9qf-242" value="&lt;div style=&quot;width: 93.0px;height:auto;word-break: break-word;&quot;&gt;&lt;div align=&quot;center&quot;&gt;&lt;br&gt;&lt;/div&gt;&lt;/div&gt;" style="shape=rect;rounded=1;arcSize=15;absoluteArcSize=1;shadow=0;strokeWidth=2;fillColor=#FFFFFF;strokeColor=#333333;opacity=100.0;html=1;nl2Br=0;verticalAlign=middle;align=center;spacingLeft=2.0;spacingRight=0;whiteSpace=wrap;gliffyId=15;" vertex="1" parent="2">
          <mxGeometry x="1140.5" y="339.5" width="69.5" height="20" as="geometry" />
        </mxCell>
        <mxCell id="keQ0cRB9MPPr5G5kg9qf-243" value="&lt;div style=&quot;width: 93.0px;height:auto;word-break: break-word;&quot;&gt;&lt;div align=&quot;center&quot;&gt;&lt;span style=&quot;font-family: Arial; font-size: 12px; text-decoration: none; line-height: 0;&quot;&gt;&lt;span style=&quot;text-decoration: none; line-height: 14px;&quot;&gt;B&lt;/span&gt;&lt;/span&gt;&lt;/div&gt;&lt;/div&gt;" style="shape=ellipse;perimeter=ellipsePerimeter;shadow=0;strokeWidth=2;fillColor=#FFFFFF;strokeColor=#333333;opacity=100.0;html=1;nl2Br=0;verticalAlign=top;align=center;spacingLeft=2.0;spacingRight=0;whiteSpace=wrap;gliffyId=12;" vertex="1" parent="2">
          <mxGeometry x="1141.25" y="373.5" width="63" height="45" as="geometry" />
        </mxCell>
        <mxCell id="keQ0cRB9MPPr5G5kg9qf-246" value="" style="ellipse;whiteSpace=wrap;html=1;strokeColor=none;fillColor=#000000;" vertex="1" parent="2">
          <mxGeometry x="968" y="393.5" width="10" height="11" as="geometry" />
        </mxCell>
        <mxCell id="keQ0cRB9MPPr5G5kg9qf-247" value="" style="ellipse;whiteSpace=wrap;html=1;strokeColor=none;fillColor=#00c74c;" vertex="1" parent="2">
          <mxGeometry x="1060.75" y="391.25" width="10" height="11" as="geometry" />
        </mxCell>
        <mxCell id="keQ0cRB9MPPr5G5kg9qf-248" value="" style="ellipse;whiteSpace=wrap;html=1;strokeColor=none;fillColor=#000000;" vertex="1" parent="2">
          <mxGeometry x="965.5" y="342" width="10" height="11" as="geometry" />
        </mxCell>
        <mxCell id="keQ0cRB9MPPr5G5kg9qf-249" value="" style="ellipse;whiteSpace=wrap;html=1;strokeColor=none;fillColor=#00c74c;" vertex="1" parent="2">
          <mxGeometry x="1155" y="400" width="10" height="11" as="geometry" />
        </mxCell>
        <mxCell id="keQ0cRB9MPPr5G5kg9qf-250" value="" style="ellipse;whiteSpace=wrap;html=1;strokeColor=none;fillColor=#00c74c;" vertex="1" parent="2">
          <mxGeometry x="1153" y="344" width="10" height="11" as="geometry" />
        </mxCell>
        <mxCell id="keQ0cRB9MPPr5G5kg9qf-251" value="" style="ellipse;whiteSpace=wrap;html=1;strokeColor=none;fillColor=#7F00FF;" vertex="1" parent="2">
          <mxGeometry x="1167.75" y="400" width="10" height="11" as="geometry" />
        </mxCell>
        <mxCell id="keQ0cRB9MPPr5G5kg9qf-252" value="" style="ellipse;whiteSpace=wrap;html=1;strokeColor=none;fillColor=#7f00ff;" vertex="1" parent="2">
          <mxGeometry x="1170.25" y="344" width="10" height="11" as="geometry" />
        </mxCell>
        <mxCell id="keQ0cRB9MPPr5G5kg9qf-253" value="" style="ellipse;whiteSpace=wrap;html=1;strokeColor=none;fillColor=#cc0000;" vertex="1" parent="2">
          <mxGeometry x="1182.5" y="400" width="10" height="11" as="geometry" />
        </mxCell>
        <mxCell id="keQ0cRB9MPPr5G5kg9qf-254" value="" style="ellipse;whiteSpace=wrap;html=1;strokeColor=none;fillColor=#cc0000;" vertex="1" parent="2">
          <mxGeometry x="1187.5" y="344" width="10" height="11" as="geometry" />
        </mxCell>
        <mxCell id="keQ0cRB9MPPr5G5kg9qf-255" value="&lt;div style=&quot;width: 93.0px;height:auto;word-break: break-word;&quot;&gt;&lt;div align=&quot;center&quot;&gt;&lt;br&gt;&lt;/div&gt;&lt;/div&gt;" style="shape=rect;rounded=1;arcSize=15;absoluteArcSize=1;shadow=0;strokeWidth=2;fillColor=#FFFFFF;strokeColor=#00c74c;opacity=100.0;html=1;nl2Br=0;verticalAlign=middle;align=center;spacingLeft=2.0;spacingRight=0;whiteSpace=wrap;gliffyId=15;" vertex="1" parent="2">
          <mxGeometry x="1027" y="312.25" width="30" height="20" as="geometry" />
        </mxCell>
        <mxCell id="keQ0cRB9MPPr5G5kg9qf-256" value="" style="ellipse;whiteSpace=wrap;html=1;strokeColor=none;fillColor=#00c74c;" vertex="1" parent="2">
          <mxGeometry x="1032" y="316.75" width="10" height="11" as="geometry" />
        </mxCell>
        <mxCell id="keQ0cRB9MPPr5G5kg9qf-257" style="edgeStyle=orthogonalEdgeStyle;shape=filledEdge;rounded=1;orthogonalLoop=1;jettySize=auto;html=1;entryX=0;entryY=0.5;entryDx=0;entryDy=0;labelBackgroundColor=default;strokeColor=#000000;strokeWidth=2;fontFamily=Helvetica;fontSize=11;fontColor=default;startArrow=none;startFill=0;endArrow=none;endFill=0;startSize=6;endSize=6;fillColor=none;" edge="1" source="keQ0cRB9MPPr5G5kg9qf-258" target="keQ0cRB9MPPr5G5kg9qf-243" parent="2">
          <mxGeometry relative="1" as="geometry" />
        </mxCell>
        <mxCell id="keQ0cRB9MPPr5G5kg9qf-259" value="" style="ellipse;whiteSpace=wrap;html=1;strokeColor=none;fillColor=#7F00FF;" vertex="1" parent="2">
          <mxGeometry x="1074.25" y="391.25" width="10" height="11" as="geometry" />
        </mxCell>
        <mxCell id="keQ0cRB9MPPr5G5kg9qf-260" value="&lt;div style=&quot;width: 93.0px;height:auto;word-break: break-word;&quot;&gt;&lt;div align=&quot;center&quot;&gt;&lt;br&gt;&lt;/div&gt;&lt;/div&gt;" style="shape=rect;rounded=1;arcSize=15;absoluteArcSize=1;shadow=0;strokeWidth=2;fillColor=#FFFFFF;strokeColor=#7F00FF;opacity=100.0;html=1;nl2Br=0;verticalAlign=middle;align=center;spacingLeft=2.0;spacingRight=0;whiteSpace=wrap;gliffyId=15;" vertex="1" parent="2">
          <mxGeometry x="1067" y="313" width="30" height="20" as="geometry" />
        </mxCell>
        <mxCell id="keQ0cRB9MPPr5G5kg9qf-261" value="" style="ellipse;whiteSpace=wrap;html=1;strokeColor=none;fillColor=#7F00FF;" vertex="1" parent="2">
          <mxGeometry x="1072" y="317.5" width="10" height="11" as="geometry" />
        </mxCell>
        <mxCell id="keQ0cRB9MPPr5G5kg9qf-264" value="" style="ellipse;whiteSpace=wrap;html=1;strokeColor=none;fillColor=#cc0000;" vertex="1" parent="2">
          <mxGeometry x="1087" y="390.5" width="10" height="11" as="geometry" />
        </mxCell>
        <mxCell id="keQ0cRB9MPPr5G5kg9qf-265" value="&lt;div style=&quot;width: 93.0px;height:auto;word-break: break-word;&quot;&gt;&lt;div align=&quot;center&quot;&gt;&lt;br&gt;&lt;/div&gt;&lt;/div&gt;" style="shape=rect;rounded=1;arcSize=15;absoluteArcSize=1;shadow=0;strokeWidth=2;fillColor=#FFFFFF;strokeColor=#cc0000;opacity=100.0;html=1;nl2Br=0;verticalAlign=middle;align=center;spacingLeft=2.0;spacingRight=0;whiteSpace=wrap;gliffyId=15;" vertex="1" parent="2">
          <mxGeometry x="1103" y="312.25" width="30" height="20" as="geometry" />
        </mxCell>
        <mxCell id="keQ0cRB9MPPr5G5kg9qf-266" value="" style="ellipse;whiteSpace=wrap;html=1;strokeColor=none;fillColor=#cc0000;" vertex="1" parent="2">
          <mxGeometry x="1108" y="316.75" width="10" height="11" as="geometry" />
        </mxCell>
        <mxCell id="keQ0cRB9MPPr5G5kg9qf-275" value="&lt;div style=&quot;width: 83.0px;height:auto;word-break: break-word;&quot;&gt;&lt;div align=&quot;center&quot;&gt;&lt;br&gt;&lt;/div&gt;&lt;div&gt;( .... )&lt;/div&gt;&lt;/div&gt;" style="shape=hexagon;perimeter=hexagonPerimeter2;shadow=0;strokeWidth=2;fillColor=#FFFFFF;strokeColor=#000000;opacity=100.0;html=1;nl2Br=0;verticalAlign=middle;align=center;spacingLeft=2.0;spacingRight=0;whiteSpace=wrap;gliffyId=195;" vertex="1" parent="2">
          <mxGeometry x="1340" y="390.5" width="62.5" height="29.5" as="geometry" />
        </mxCell>
        <mxCell id="keQ0cRB9MPPr5G5kg9qf-276" style="shape=filledEdge;strokeWidth=2;strokeColor=#000000;fillColor=none;startArrow=none;startFill=0;startSize=6;endArrow=none;endFill=0;endSize=6;rounded=1;gliffyId=17;edgeStyle=orthogonalEdgeStyle;" edge="1" source="keQ0cRB9MPPr5G5kg9qf-277" target="keQ0cRB9MPPr5G5kg9qf-279" parent="2">
          <mxGeometry width="1" height="23" relative="1" as="geometry">
            <Array as="points">
              <mxPoint x="1284.25" y="364.25" />
              <mxPoint x="1284.25" y="372.5833435058594" />
              <mxPoint x="1284.25" y="380.9166564941406" />
              <mxPoint x="1284.25" y="389.25" />
            </Array>
          </mxGeometry>
        </mxCell>
        <mxCell id="keQ0cRB9MPPr5G5kg9qf-277" value="&lt;div style=&quot;width: 93.0px;height:auto;word-break: break-word;&quot;&gt;&lt;div align=&quot;center&quot;&gt;&lt;br&gt;&lt;/div&gt;&lt;/div&gt;" style="shape=rect;rounded=1;arcSize=15;absoluteArcSize=1;shadow=0;strokeWidth=2;fillColor=#FFFFFF;strokeColor=#333333;opacity=100.0;html=1;nl2Br=0;verticalAlign=middle;align=center;spacingLeft=2.0;spacingRight=0;whiteSpace=wrap;gliffyId=15;" vertex="1" parent="2">
          <mxGeometry x="1250" y="345.25" width="69.5" height="20" as="geometry" />
        </mxCell>
        <mxCell id="keQ0cRB9MPPr5G5kg9qf-278" style="edgeStyle=orthogonalEdgeStyle;shape=filledEdge;rounded=1;orthogonalLoop=1;jettySize=auto;html=1;entryX=0;entryY=0.5;entryDx=0;entryDy=0;labelBackgroundColor=default;strokeColor=#000000;strokeWidth=2;fontFamily=Helvetica;fontSize=11;fontColor=default;startArrow=none;startFill=0;endArrow=none;endFill=0;startSize=6;endSize=6;fillColor=none;" edge="1" source="keQ0cRB9MPPr5G5kg9qf-279" target="keQ0cRB9MPPr5G5kg9qf-275" parent="2">
          <mxGeometry relative="1" as="geometry" />
        </mxCell>
        <mxCell id="keQ0cRB9MPPr5G5kg9qf-279" value="&lt;div style=&quot;width: 93.0px;height:auto;word-break: break-word;&quot;&gt;&lt;div align=&quot;center&quot;&gt;&lt;span style=&quot;font-family: Arial; font-size: 12px; text-decoration: none; line-height: 0;&quot;&gt;&lt;span style=&quot;text-decoration: none; line-height: 14px;&quot;&gt;A&lt;/span&gt;&lt;/span&gt;&lt;/div&gt;&lt;/div&gt;" style="shape=ellipse;perimeter=ellipsePerimeter;shadow=0;strokeWidth=2;fillColor=#FFFFFF;strokeColor=#333333;opacity=100.0;html=1;nl2Br=0;verticalAlign=middle;align=center;spacingLeft=2.0;spacingRight=0;whiteSpace=wrap;gliffyId=12;" vertex="1" parent="2">
          <mxGeometry x="1250" y="391.75" width="63" height="25" as="geometry" />
        </mxCell>
        <mxCell id="keQ0cRB9MPPr5G5kg9qf-280" style="shape=filledEdge;strokeWidth=2;strokeColor=#000000;fillColor=none;startArrow=none;startFill=0;startSize=6;endArrow=none;endFill=0;endSize=6;rounded=1;gliffyId=17;edgeStyle=orthogonalEdgeStyle;" edge="1" source="keQ0cRB9MPPr5G5kg9qf-281" target="keQ0cRB9MPPr5G5kg9qf-282" parent="2">
          <mxGeometry width="1" height="23" relative="1" as="geometry">
            <Array as="points">
              <mxPoint x="1466.75" y="356.25" />
              <mxPoint x="1466.75" y="364.5833435058594" />
              <mxPoint x="1466.75" y="372.9166564941406" />
              <mxPoint x="1466.75" y="381.25" />
            </Array>
          </mxGeometry>
        </mxCell>
        <mxCell id="keQ0cRB9MPPr5G5kg9qf-281" value="&lt;div style=&quot;width: 93.0px;height:auto;word-break: break-word;&quot;&gt;&lt;div align=&quot;center&quot;&gt;&lt;br&gt;&lt;/div&gt;&lt;/div&gt;" style="shape=rect;rounded=1;arcSize=15;absoluteArcSize=1;shadow=0;strokeWidth=2;fillColor=#FFFFFF;strokeColor=#333333;opacity=100.0;html=1;nl2Br=0;verticalAlign=middle;align=center;spacingLeft=2.0;spacingRight=0;whiteSpace=wrap;gliffyId=15;" vertex="1" parent="2">
          <mxGeometry x="1433" y="347.25" width="69.5" height="20" as="geometry" />
        </mxCell>
        <mxCell id="keQ0cRB9MPPr5G5kg9qf-282" value="&lt;div style=&quot;width: 93.0px;height:auto;word-break: break-word;&quot;&gt;&lt;div align=&quot;center&quot;&gt;&lt;span style=&quot;font-family: Arial; font-size: 12px; text-decoration: none; line-height: 0;&quot;&gt;&lt;span style=&quot;text-decoration: none; line-height: 14px;&quot;&gt;B&lt;/span&gt;&lt;/span&gt;&lt;/div&gt;&lt;/div&gt;" style="shape=ellipse;perimeter=ellipsePerimeter;shadow=0;strokeWidth=2;fillColor=#FFFFFF;strokeColor=#333333;opacity=100.0;html=1;nl2Br=0;verticalAlign=top;align=center;spacingLeft=2.0;spacingRight=0;whiteSpace=wrap;gliffyId=12;" vertex="1" parent="2">
          <mxGeometry x="1433.75" y="381.25" width="63" height="45" as="geometry" />
        </mxCell>
        <mxCell id="keQ0cRB9MPPr5G5kg9qf-283" value="" style="ellipse;whiteSpace=wrap;html=1;strokeColor=none;fillColor=#000000;" vertex="1" parent="2">
          <mxGeometry x="1260.5" y="401.25" width="10" height="11" as="geometry" />
        </mxCell>
        <mxCell id="keQ0cRB9MPPr5G5kg9qf-285" value="" style="ellipse;whiteSpace=wrap;html=1;strokeColor=none;fillColor=#000000;" vertex="1" parent="2">
          <mxGeometry x="1258" y="349.75" width="10" height="11" as="geometry" />
        </mxCell>
        <mxCell id="keQ0cRB9MPPr5G5kg9qf-286" value="" style="ellipse;whiteSpace=wrap;html=1;strokeColor=none;fillColor=#00c74c;" vertex="1" parent="2">
          <mxGeometry x="1447.5" y="407.75" width="10" height="11" as="geometry" />
        </mxCell>
        <mxCell id="keQ0cRB9MPPr5G5kg9qf-287" value="" style="ellipse;whiteSpace=wrap;html=1;strokeColor=none;fillColor=#00c74c;" vertex="1" parent="2">
          <mxGeometry x="1445.5" y="351.75" width="10" height="11" as="geometry" />
        </mxCell>
        <mxCell id="keQ0cRB9MPPr5G5kg9qf-288" value="" style="ellipse;whiteSpace=wrap;html=1;strokeColor=none;fillColor=#7F00FF;" vertex="1" parent="2">
          <mxGeometry x="1460.25" y="407.75" width="10" height="11" as="geometry" />
        </mxCell>
        <mxCell id="keQ0cRB9MPPr5G5kg9qf-289" value="" style="ellipse;whiteSpace=wrap;html=1;strokeColor=none;fillColor=#7f00ff;" vertex="1" parent="2">
          <mxGeometry x="1462.75" y="351.75" width="10" height="11" as="geometry" />
        </mxCell>
        <mxCell id="keQ0cRB9MPPr5G5kg9qf-290" value="" style="ellipse;whiteSpace=wrap;html=1;strokeColor=none;fillColor=#cc0000;" vertex="1" parent="2">
          <mxGeometry x="1475" y="407.75" width="10" height="11" as="geometry" />
        </mxCell>
        <mxCell id="keQ0cRB9MPPr5G5kg9qf-291" value="" style="ellipse;whiteSpace=wrap;html=1;strokeColor=none;fillColor=#cc0000;" vertex="1" parent="2">
          <mxGeometry x="1480" y="351.75" width="10" height="11" as="geometry" />
        </mxCell>
        <mxCell id="keQ0cRB9MPPr5G5kg9qf-294" style="edgeStyle=orthogonalEdgeStyle;shape=filledEdge;rounded=1;orthogonalLoop=1;jettySize=auto;html=1;entryX=0;entryY=0.5;entryDx=0;entryDy=0;labelBackgroundColor=default;strokeColor=#000000;strokeWidth=2;fontFamily=Helvetica;fontSize=11;fontColor=default;startArrow=none;startFill=0;endArrow=none;endFill=0;startSize=6;endSize=6;fillColor=none;" edge="1" source="keQ0cRB9MPPr5G5kg9qf-275" target="keQ0cRB9MPPr5G5kg9qf-282" parent="2">
          <mxGeometry relative="1" as="geometry" />
        </mxCell>
        <mxCell id="keQ0cRB9MPPr5G5kg9qf-328" value="ID_A2" style="rounded=0;whiteSpace=wrap;html=1;align=right;" vertex="1" parent="2">
          <mxGeometry x="80" y="785.5" width="70" height="20" as="geometry" />
        </mxCell>
        <mxCell id="keQ0cRB9MPPr5G5kg9qf-330" value="ID_B2_1" style="rounded=0;whiteSpace=wrap;html=1;align=right;" vertex="1" parent="2">
          <mxGeometry x="170" y="750" width="70" height="20" as="geometry" />
        </mxCell>
        <mxCell id="keQ0cRB9MPPr5G5kg9qf-331" value="ID_B2_2" style="rounded=0;whiteSpace=wrap;html=1;align=right;" vertex="1" parent="2">
          <mxGeometry x="170" y="770" width="70" height="20" as="geometry" />
        </mxCell>
        <mxCell id="keQ0cRB9MPPr5G5kg9qf-333" value="S_A1" style="rounded=0;whiteSpace=wrap;html=1;align=right;" vertex="1" parent="2">
          <mxGeometry x="80" y="815.5" width="80" height="20" as="geometry" />
        </mxCell>
        <mxCell id="keQ0cRB9MPPr5G5kg9qf-334" value="S_B1_1" style="rounded=0;whiteSpace=wrap;html=1;align=right;" vertex="1" parent="2">
          <mxGeometry x="260" y="735.5" width="80" height="20" as="geometry" />
        </mxCell>
        <mxCell id="keQ0cRB9MPPr5G5kg9qf-336" value="ID_B2_3" style="rounded=0;whiteSpace=wrap;html=1;align=right;" vertex="1" parent="2">
          <mxGeometry x="170" y="790" width="70" height="20" as="geometry" />
        </mxCell>
        <mxCell id="keQ0cRB9MPPr5G5kg9qf-340" value="" style="ellipse;whiteSpace=wrap;html=1;strokeColor=none;fillColor=#00c74c;" vertex="1" parent="2">
          <mxGeometry x="175" y="755.5" width="10" height="11" as="geometry" />
        </mxCell>
        <mxCell id="keQ0cRB9MPPr5G5kg9qf-341" value="" style="ellipse;whiteSpace=wrap;html=1;strokeColor=none;fillColor=#00c74c;" vertex="1" parent="2">
          <mxGeometry x="270" y="741" width="10" height="11" as="geometry" />
        </mxCell>
        <mxCell id="keQ0cRB9MPPr5G5kg9qf-342" value="" style="ellipse;whiteSpace=wrap;html=1;strokeColor=none;fillColor=#7f00ff;" vertex="1" parent="2">
          <mxGeometry x="280" y="741" width="10" height="11" as="geometry" />
        </mxCell>
        <mxCell id="keQ0cRB9MPPr5G5kg9qf-344" value="" style="ellipse;whiteSpace=wrap;html=1;strokeColor=none;fillColor=#7f00ff;" vertex="1" parent="2">
          <mxGeometry x="175" y="774.5" width="10" height="11" as="geometry" />
        </mxCell>
        <mxCell id="keQ0cRB9MPPr5G5kg9qf-347" value="" style="ellipse;whiteSpace=wrap;html=1;strokeColor=none;fillColor=#cc0000;" vertex="1" parent="2">
          <mxGeometry x="175" y="794.5" width="10" height="11" as="geometry" />
        </mxCell>
        <mxCell id="keQ0cRB9MPPr5G5kg9qf-348" value="ID_AB1" style="rounded=0;whiteSpace=wrap;html=1;align=right;" vertex="1" parent="2">
          <mxGeometry x="80" y="735.5" width="80" height="20" as="geometry" />
        </mxCell>
        <mxCell id="keQ0cRB9MPPr5G5kg9qf-349" value="&lt;div style=&quot;width: 43.0px;height:auto;word-break: break-word;&quot;&gt;&lt;div align=&quot;center&quot;&gt;&lt;span style=&quot;font-family: Helvetica; font-size: 36px; text-decoration: none; line-height: 36px; font-weight: bold;&quot;&gt;02&lt;/span&gt;&lt;/div&gt;&lt;/div&gt;" style="shape=rect;shadow=0;strokeWidth=0;strokeColor=none;fillColor=#cccccc;opacity=100.0;html=1;nl2Br=0;verticalAlign=top;align=center;spacingLeft=2.0;spacingRight=0;spacingTop=1.0;spacingBottom=8;whiteSpace=wrap;gliffyId=345;" vertex="1" parent="2">
          <mxGeometry x="10" y="730" width="50" height="155" as="geometry" />
        </mxCell>
        <mxCell id="keQ0cRB9MPPr5G5kg9qf-350" value="S_B2_1" style="rounded=0;whiteSpace=wrap;html=1;align=right;" vertex="1" parent="2">
          <mxGeometry x="260" y="384.5" width="80" height="20" as="geometry" />
        </mxCell>
        <mxCell id="keQ0cRB9MPPr5G5kg9qf-351" value="S_B2_2" style="rounded=0;whiteSpace=wrap;html=1;align=right;" vertex="1" parent="2">
          <mxGeometry x="260" y="404.5" width="80" height="20" as="geometry" />
        </mxCell>
        <mxCell id="keQ0cRB9MPPr5G5kg9qf-352" value="S_B2_3" style="rounded=0;whiteSpace=wrap;html=1;align=right;" vertex="1" parent="2">
          <mxGeometry x="260" y="424.5" width="80" height="20" as="geometry" />
        </mxCell>
        <mxCell id="keQ0cRB9MPPr5G5kg9qf-353" value="" style="ellipse;whiteSpace=wrap;html=1;strokeColor=none;fillColor=#00c74c;" vertex="1" parent="2">
          <mxGeometry x="270" y="390" width="10" height="11" as="geometry" />
        </mxCell>
        <mxCell id="keQ0cRB9MPPr5G5kg9qf-354" value="" style="ellipse;whiteSpace=wrap;html=1;strokeColor=none;fillColor=#7f00ff;" vertex="1" parent="2">
          <mxGeometry x="270" y="409" width="10" height="11" as="geometry" />
        </mxCell>
        <mxCell id="keQ0cRB9MPPr5G5kg9qf-355" value="" style="ellipse;whiteSpace=wrap;html=1;strokeColor=none;fillColor=#cc0000;" vertex="1" parent="2">
          <mxGeometry x="270" y="429" width="10" height="11" as="geometry" />
        </mxCell>
        <mxCell id="keQ0cRB9MPPr5G5kg9qf-357" value="" style="ellipse;whiteSpace=wrap;html=1;strokeColor=none;fillColor=#00c74c;" vertex="1" parent="2">
          <mxGeometry x="80" y="740" width="10" height="11" as="geometry" />
        </mxCell>
        <mxCell id="keQ0cRB9MPPr5G5kg9qf-358" value="" style="ellipse;whiteSpace=wrap;html=1;strokeColor=none;fillColor=#7f00ff;" vertex="1" parent="2">
          <mxGeometry x="90" y="740" width="10" height="11" as="geometry" />
        </mxCell>
        <mxCell id="keQ0cRB9MPPr5G5kg9qf-359" value="" style="ellipse;whiteSpace=wrap;html=1;strokeColor=none;fillColor=#cc0000;" vertex="1" parent="2">
          <mxGeometry x="100" y="740" width="10" height="11" as="geometry" />
        </mxCell>
        <mxCell id="keQ0cRB9MPPr5G5kg9qf-361" value="S_B2_1" style="rounded=0;whiteSpace=wrap;html=1;align=right;" vertex="1" parent="2">
          <mxGeometry x="260" y="765.5" width="80" height="20" as="geometry" />
        </mxCell>
        <mxCell id="keQ0cRB9MPPr5G5kg9qf-362" value="S_B2_2" style="rounded=0;whiteSpace=wrap;html=1;align=right;" vertex="1" parent="2">
          <mxGeometry x="260" y="785.5" width="80" height="20" as="geometry" />
        </mxCell>
        <mxCell id="keQ0cRB9MPPr5G5kg9qf-364" value="" style="ellipse;whiteSpace=wrap;html=1;strokeColor=none;fillColor=#00c74c;" vertex="1" parent="2">
          <mxGeometry x="270" y="771" width="10" height="11" as="geometry" />
        </mxCell>
        <mxCell id="keQ0cRB9MPPr5G5kg9qf-365" value="" style="ellipse;whiteSpace=wrap;html=1;strokeColor=none;fillColor=#7f00ff;" vertex="1" parent="2">
          <mxGeometry x="270" y="790" width="10" height="11" as="geometry" />
        </mxCell>
        <mxCell id="keQ0cRB9MPPr5G5kg9qf-393" value="ID_A1" style="rounded=0;whiteSpace=wrap;html=1;align=right;" vertex="1" parent="2">
          <mxGeometry x="80" y="475" width="70" height="20" as="geometry" />
        </mxCell>
        <mxCell id="keQ0cRB9MPPr5G5kg9qf-394" value="ID_B1_1" style="rounded=0;whiteSpace=wrap;html=1;align=right;" vertex="1" parent="2">
          <mxGeometry x="170" y="475" width="70" height="20" as="geometry" />
        </mxCell>
        <mxCell id="keQ0cRB9MPPr5G5kg9qf-395" value="ID_B2_1" style="rounded=0;whiteSpace=wrap;html=1;align=right;" vertex="1" parent="2">
          <mxGeometry x="170" y="535" width="70" height="20" as="geometry" />
        </mxCell>
        <mxCell id="keQ0cRB9MPPr5G5kg9qf-396" value="ID_B2_2" style="rounded=0;whiteSpace=wrap;html=1;align=right;" vertex="1" parent="2">
          <mxGeometry x="170" y="555" width="70" height="20" as="geometry" />
        </mxCell>
        <mxCell id="keQ0cRB9MPPr5G5kg9qf-397" value="ID_B1_2" style="rounded=0;whiteSpace=wrap;html=1;align=right;" vertex="1" parent="2">
          <mxGeometry x="170" y="496" width="70" height="20" as="geometry" />
        </mxCell>
        <mxCell id="keQ0cRB9MPPr5G5kg9qf-398" value="S_A1" style="rounded=0;whiteSpace=wrap;html=1;align=right;" vertex="1" parent="2">
          <mxGeometry x="80" y="510.5" width="70" height="20" as="geometry" />
        </mxCell>
        <mxCell id="keQ0cRB9MPPr5G5kg9qf-399" value="S_B1_1" style="rounded=0;whiteSpace=wrap;html=1;align=right;" vertex="1" parent="2">
          <mxGeometry x="260" y="495" width="80" height="20" as="geometry" />
        </mxCell>
        <mxCell id="keQ0cRB9MPPr5G5kg9qf-400" value="S_B1_2" style="rounded=0;whiteSpace=wrap;html=1;align=right;" vertex="1" parent="2">
          <mxGeometry x="260" y="515" width="80" height="20" as="geometry" />
        </mxCell>
        <mxCell id="keQ0cRB9MPPr5G5kg9qf-401" value="&lt;div style=&quot;width: 43.0px;height:auto;word-break: break-word;&quot;&gt;&lt;div align=&quot;center&quot;&gt;&lt;span style=&quot;font-family: Helvetica; font-size: 36px; text-decoration: none; line-height: 36px; font-weight: bold;&quot;&gt;01&lt;/span&gt;&lt;/div&gt;&lt;/div&gt;" style="shape=rect;shadow=0;strokeWidth=0;strokeColor=none;fillColor=#cccccc;opacity=100.0;html=1;nl2Br=0;verticalAlign=top;align=center;spacingLeft=2.0;spacingRight=0;spacingTop=1.0;spacingBottom=8;whiteSpace=wrap;gliffyId=345;" vertex="1" parent="2">
          <mxGeometry x="10" y="460" width="50" height="155" as="geometry" />
        </mxCell>
        <mxCell id="keQ0cRB9MPPr5G5kg9qf-402" value="ID_B2_3" style="rounded=0;whiteSpace=wrap;html=1;align=right;" vertex="1" parent="2">
          <mxGeometry x="170" y="575" width="70" height="20" as="geometry" />
        </mxCell>
        <mxCell id="keQ0cRB9MPPr5G5kg9qf-405" value="" style="ellipse;whiteSpace=wrap;html=1;strokeColor=none;fillColor=#00c74c;" vertex="1" parent="2">
          <mxGeometry x="170" y="479.5" width="10" height="11" as="geometry" />
        </mxCell>
        <mxCell id="keQ0cRB9MPPr5G5kg9qf-406" value="" style="ellipse;whiteSpace=wrap;html=1;strokeColor=none;fillColor=#00c74c;" vertex="1" parent="2">
          <mxGeometry x="175" y="540.5" width="10" height="11" as="geometry" />
        </mxCell>
        <mxCell id="keQ0cRB9MPPr5G5kg9qf-407" value="" style="ellipse;whiteSpace=wrap;html=1;strokeColor=none;fillColor=#00c74c;" vertex="1" parent="2">
          <mxGeometry x="270" y="500.5" width="10" height="11" as="geometry" />
        </mxCell>
        <mxCell id="keQ0cRB9MPPr5G5kg9qf-408" value="" style="ellipse;whiteSpace=wrap;html=1;strokeColor=none;fillColor=#7f00ff;" vertex="1" parent="2">
          <mxGeometry x="270" y="519.5" width="10" height="11" as="geometry" />
        </mxCell>
        <mxCell id="keQ0cRB9MPPr5G5kg9qf-409" value="" style="ellipse;whiteSpace=wrap;html=1;strokeColor=none;fillColor=#7f00ff;" vertex="1" parent="2">
          <mxGeometry x="175" y="500.5" width="10" height="11" as="geometry" />
        </mxCell>
        <mxCell id="keQ0cRB9MPPr5G5kg9qf-410" value="" style="ellipse;whiteSpace=wrap;html=1;strokeColor=none;fillColor=#7f00ff;" vertex="1" parent="2">
          <mxGeometry x="175" y="559.5" width="10" height="11" as="geometry" />
        </mxCell>
        <mxCell id="keQ0cRB9MPPr5G5kg9qf-411" value="" style="ellipse;whiteSpace=wrap;html=1;strokeColor=none;fillColor=#cc0000;" vertex="1" parent="2">
          <mxGeometry x="280" y="500.5" width="10" height="11" as="geometry" />
        </mxCell>
        <mxCell id="keQ0cRB9MPPr5G5kg9qf-412" value="" style="ellipse;whiteSpace=wrap;html=1;strokeColor=none;fillColor=#cc0000;" vertex="1" parent="2">
          <mxGeometry x="180" y="479.5" width="10" height="11" as="geometry" />
        </mxCell>
        <mxCell id="keQ0cRB9MPPr5G5kg9qf-413" value="" style="ellipse;whiteSpace=wrap;html=1;strokeColor=none;fillColor=#cc0000;" vertex="1" parent="2">
          <mxGeometry x="175" y="579.5" width="10" height="11" as="geometry" />
        </mxCell>
        <mxCell id="keQ0cRB9MPPr5G5kg9qf-414" value="S_B2_1" style="rounded=0;whiteSpace=wrap;html=1;align=right;" vertex="1" parent="2">
          <mxGeometry x="260" y="555" width="80" height="20" as="geometry" />
        </mxCell>
        <mxCell id="keQ0cRB9MPPr5G5kg9qf-415" value="S_B2_2" style="rounded=0;whiteSpace=wrap;html=1;align=right;" vertex="1" parent="2">
          <mxGeometry x="260" y="575" width="80" height="20" as="geometry" />
        </mxCell>
        <mxCell id="keQ0cRB9MPPr5G5kg9qf-417" value="" style="ellipse;whiteSpace=wrap;html=1;strokeColor=none;fillColor=#00c74c;" vertex="1" parent="2">
          <mxGeometry x="270" y="560.5" width="10" height="11" as="geometry" />
        </mxCell>
        <mxCell id="keQ0cRB9MPPr5G5kg9qf-418" value="" style="ellipse;whiteSpace=wrap;html=1;strokeColor=none;fillColor=#7f00ff;" vertex="1" parent="2">
          <mxGeometry x="270" y="579" width="10" height="11" as="geometry" />
        </mxCell>
        <mxCell id="keQ0cRB9MPPr5G5kg9qf-419" value="" style="ellipse;whiteSpace=wrap;html=1;strokeColor=none;fillColor=#cc0000;" vertex="1" parent="2">
          <mxGeometry x="280" y="579.5" width="10" height="11" as="geometry" />
        </mxCell>
        <mxCell id="keQ0cRB9MPPr5G5kg9qf-424" value="&lt;div style=&quot;width: 93.0px;height:auto;word-break: break-word;&quot;&gt;&lt;div align=&quot;center&quot;&gt;&lt;br&gt;&lt;/div&gt;&lt;/div&gt;" style="shape=rect;rounded=1;arcSize=15;absoluteArcSize=1;shadow=0;strokeWidth=2;fillColor=#FFFFFF;strokeColor=#000000;opacity=100.0;html=1;nl2Br=0;verticalAlign=middle;align=center;spacingLeft=2.0;spacingRight=0;whiteSpace=wrap;gliffyId=15;" vertex="1" parent="2">
          <mxGeometry x="1344.75" y="772.75" width="60" height="20" as="geometry" />
        </mxCell>
        <mxCell id="keQ0cRB9MPPr5G5kg9qf-425" style="shape=filledEdge;rounded=1;orthogonalLoop=1;jettySize=auto;html=1;entryX=0.5;entryY=1;entryDx=0;entryDy=0;labelBackgroundColor=default;strokeColor=#000000;strokeWidth=2;fontFamily=Helvetica;fontSize=11;fontColor=default;startArrow=none;startFill=0;endArrow=none;endFill=0;startSize=6;endSize=6;fillColor=none;" edge="1" source="keQ0cRB9MPPr5G5kg9qf-428" target="keQ0cRB9MPPr5G5kg9qf-506" parent="2">
          <mxGeometry relative="1" as="geometry" />
        </mxCell>
        <mxCell id="keQ0cRB9MPPr5G5kg9qf-426" style="shape=filledEdge;rounded=1;orthogonalLoop=1;jettySize=auto;html=1;entryX=0.5;entryY=1;entryDx=0;entryDy=0;labelBackgroundColor=default;strokeColor=#000000;strokeWidth=2;fontFamily=Helvetica;fontSize=11;fontColor=default;startArrow=none;startFill=0;endArrow=none;endFill=0;startSize=6;endSize=6;fillColor=none;" edge="1" source="keQ0cRB9MPPr5G5kg9qf-428" target="keQ0cRB9MPPr5G5kg9qf-503" parent="2">
          <mxGeometry relative="1" as="geometry" />
        </mxCell>
        <mxCell id="keQ0cRB9MPPr5G5kg9qf-427" style="shape=filledEdge;rounded=1;orthogonalLoop=1;jettySize=auto;html=1;entryX=0.5;entryY=1;entryDx=0;entryDy=0;labelBackgroundColor=default;strokeColor=#000000;strokeWidth=2;fontFamily=Helvetica;fontSize=11;fontColor=default;startArrow=none;startFill=0;endArrow=none;endFill=0;startSize=6;endSize=6;fillColor=none;" edge="1" source="keQ0cRB9MPPr5G5kg9qf-428" target="keQ0cRB9MPPr5G5kg9qf-499" parent="2">
          <mxGeometry relative="1" as="geometry" />
        </mxCell>
        <mxCell id="keQ0cRB9MPPr5G5kg9qf-428" value="&lt;div style=&quot;width: 83.0px;height:auto;word-break: break-word;&quot;&gt;&lt;div align=&quot;center&quot;&gt;&lt;br&gt;&lt;/div&gt;&lt;/div&gt;" style="shape=hexagon;perimeter=hexagonPerimeter2;shadow=0;strokeWidth=2;fillColor=#FFFFFF;strokeColor=#000000;opacity=100.0;html=1;nl2Br=0;verticalAlign=middle;align=center;spacingLeft=2.0;spacingRight=0;whiteSpace=wrap;gliffyId=195;" vertex="1" parent="2">
          <mxGeometry x="1050" y="786.75" width="60" height="24.5" as="geometry" />
        </mxCell>
        <mxCell id="keQ0cRB9MPPr5G5kg9qf-429" style="shape=filledEdge;strokeWidth=2;strokeColor=#000000;fillColor=none;startArrow=none;startFill=0;startSize=6;endArrow=none;endFill=0;endSize=6;rounded=1;gliffyId=17;edgeStyle=orthogonalEdgeStyle;" edge="1" source="keQ0cRB9MPPr5G5kg9qf-430" target="keQ0cRB9MPPr5G5kg9qf-432" parent="2">
          <mxGeometry width="1" height="23" relative="1" as="geometry">
            <Array as="points">
              <mxPoint x="413" y="748.75" />
              <mxPoint x="413" y="757.0833435058594" />
              <mxPoint x="413" y="765.4166564941406" />
              <mxPoint x="413" y="773.75" />
            </Array>
          </mxGeometry>
        </mxCell>
        <mxCell id="keQ0cRB9MPPr5G5kg9qf-430" value="&lt;div style=&quot;width: 93.0px;height:auto;word-break: break-word;&quot;&gt;&lt;div align=&quot;center&quot;&gt;&lt;br&gt;&lt;/div&gt;&lt;/div&gt;" style="shape=rect;rounded=1;arcSize=15;absoluteArcSize=1;shadow=0;strokeWidth=2;fillColor=#FFFFFF;strokeColor=#333333;opacity=100.0;html=1;nl2Br=0;verticalAlign=middle;align=center;spacingLeft=2.0;spacingRight=0;whiteSpace=wrap;gliffyId=15;" vertex="1" parent="2">
          <mxGeometry x="378.75" y="729.75" width="69.5" height="20" as="geometry" />
        </mxCell>
        <mxCell id="keQ0cRB9MPPr5G5kg9qf-431" style="edgeStyle=orthogonalEdgeStyle;shape=filledEdge;rounded=1;orthogonalLoop=1;jettySize=auto;html=1;labelBackgroundColor=default;strokeColor=#000000;strokeWidth=2;fontFamily=Helvetica;fontSize=11;fontColor=default;startArrow=none;startFill=0;endArrow=none;endFill=0;startSize=6;endSize=6;fillColor=none;" edge="1" source="keQ0cRB9MPPr5G5kg9qf-432" target="keQ0cRB9MPPr5G5kg9qf-439" parent="2">
          <mxGeometry relative="1" as="geometry" />
        </mxCell>
        <mxCell id="keQ0cRB9MPPr5G5kg9qf-432" value="&lt;div style=&quot;width: 93.0px;height:auto;word-break: break-word;&quot;&gt;&lt;div align=&quot;center&quot;&gt;&lt;span style=&quot;font-family: Arial; font-size: 12px; text-decoration: none; line-height: 0;&quot;&gt;&lt;span style=&quot;text-decoration: none; line-height: 14px;&quot;&gt;A&lt;/span&gt;&lt;/span&gt;&lt;/div&gt;&lt;/div&gt;" style="shape=ellipse;perimeter=ellipsePerimeter;shadow=0;strokeWidth=2;fillColor=#FFFFFF;strokeColor=#333333;opacity=100.0;html=1;nl2Br=0;verticalAlign=middle;align=center;spacingLeft=2.0;spacingRight=0;whiteSpace=wrap;gliffyId=12;" vertex="1" parent="2">
          <mxGeometry x="378.75" y="776.25" width="63" height="25" as="geometry" />
        </mxCell>
        <mxCell id="keQ0cRB9MPPr5G5kg9qf-433" style="shape=filledEdge;strokeWidth=2;strokeColor=#000000;fillColor=none;startArrow=none;startFill=0;startSize=6;endArrow=none;endFill=0;endSize=6;rounded=1;gliffyId=17;edgeStyle=orthogonalEdgeStyle;" edge="1" source="keQ0cRB9MPPr5G5kg9qf-434" target="keQ0cRB9MPPr5G5kg9qf-435" parent="2">
          <mxGeometry width="1" height="23" relative="1" as="geometry">
            <Array as="points">
              <mxPoint x="595.5" y="738.75" />
              <mxPoint x="595.5" y="747.0833435058594" />
              <mxPoint x="595.5" y="755.4166564941406" />
              <mxPoint x="595.5" y="763.75" />
            </Array>
          </mxGeometry>
        </mxCell>
        <mxCell id="keQ0cRB9MPPr5G5kg9qf-434" value="&lt;div style=&quot;width: 93.0px;height:auto;word-break: break-word;&quot;&gt;&lt;div align=&quot;center&quot;&gt;&lt;br&gt;&lt;/div&gt;&lt;/div&gt;" style="shape=rect;rounded=1;arcSize=15;absoluteArcSize=1;shadow=0;strokeWidth=2;fillColor=#FFFFFF;strokeColor=#333333;opacity=100.0;html=1;nl2Br=0;verticalAlign=middle;align=center;spacingLeft=2.0;spacingRight=0;whiteSpace=wrap;gliffyId=15;" vertex="1" parent="2">
          <mxGeometry x="561.75" y="729.75" width="69.5" height="20" as="geometry" />
        </mxCell>
        <mxCell id="keQ0cRB9MPPr5G5kg9qf-435" value="&lt;div style=&quot;width: 93.0px;height:auto;word-break: break-word;&quot;&gt;&lt;div align=&quot;center&quot;&gt;&lt;span style=&quot;font-family: Arial; font-size: 12px; text-decoration: none; line-height: 0;&quot;&gt;&lt;span style=&quot;text-decoration: none; line-height: 14px;&quot;&gt;B&lt;/span&gt;&lt;/span&gt;&lt;/div&gt;&lt;/div&gt;" style="shape=ellipse;perimeter=ellipsePerimeter;shadow=0;strokeWidth=2;fillColor=#FFFFFF;strokeColor=#333333;opacity=100.0;html=1;nl2Br=0;verticalAlign=top;align=center;spacingLeft=2.0;spacingRight=0;whiteSpace=wrap;gliffyId=12;" vertex="1" parent="2">
          <mxGeometry x="562.5" y="763.75" width="63" height="45" as="geometry" />
        </mxCell>
        <mxCell id="keQ0cRB9MPPr5G5kg9qf-436" style="edgeStyle=orthogonalEdgeStyle;shape=filledEdge;rounded=1;orthogonalLoop=1;jettySize=auto;html=1;labelBackgroundColor=default;strokeColor=#7f00ff;strokeWidth=2;fontFamily=Helvetica;fontSize=11;fontColor=default;startArrow=none;startFill=0;endArrow=none;endFill=0;startSize=6;endSize=6;fillColor=none;" edge="1" source="keQ0cRB9MPPr5G5kg9qf-439" target="keQ0cRB9MPPr5G5kg9qf-435" parent="2">
          <mxGeometry relative="1" as="geometry" />
        </mxCell>
        <mxCell id="keQ0cRB9MPPr5G5kg9qf-437" style="edgeStyle=orthogonalEdgeStyle;shape=filledEdge;rounded=1;orthogonalLoop=1;jettySize=auto;html=1;entryX=0;entryY=0;entryDx=0;entryDy=0;labelBackgroundColor=default;strokeColor=#00c74c;strokeWidth=2;fontFamily=Helvetica;fontSize=11;fontColor=default;startArrow=none;startFill=0;endArrow=none;endFill=0;startSize=6;endSize=6;fillColor=none;exitX=1;exitY=0.25;exitDx=0;exitDy=0;" edge="1" source="keQ0cRB9MPPr5G5kg9qf-439" target="keQ0cRB9MPPr5G5kg9qf-435" parent="2">
          <mxGeometry relative="1" as="geometry" />
        </mxCell>
        <mxCell id="keQ0cRB9MPPr5G5kg9qf-438" style="edgeStyle=orthogonalEdgeStyle;shape=filledEdge;rounded=1;orthogonalLoop=1;jettySize=auto;html=1;entryX=0.282;entryY=0.933;entryDx=0;entryDy=0;entryPerimeter=0;labelBackgroundColor=default;strokeColor=#cc0000;strokeWidth=2;fontFamily=Helvetica;fontSize=11;fontColor=default;startArrow=none;startFill=0;endArrow=none;endFill=0;startSize=6;endSize=6;fillColor=none;exitX=1;exitY=0.75;exitDx=0;exitDy=0;" edge="1" source="keQ0cRB9MPPr5G5kg9qf-439" target="keQ0cRB9MPPr5G5kg9qf-435" parent="2">
          <mxGeometry relative="1" as="geometry" />
        </mxCell>
        <mxCell id="keQ0cRB9MPPr5G5kg9qf-439" value="&lt;div style=&quot;width: 83.0px;height:auto;word-break: break-word;&quot;&gt;&lt;div align=&quot;center&quot;&gt;&lt;br&gt;&lt;/div&gt;&lt;/div&gt;" style="shape=hexagon;perimeter=hexagonPerimeter2;shadow=0;strokeWidth=2;fillColor=#FFFFFF;strokeColor=#333333;opacity=100.0;html=1;nl2Br=0;verticalAlign=middle;align=center;spacingLeft=2.0;spacingRight=0;whiteSpace=wrap;gliffyId=195;" vertex="1" parent="2">
          <mxGeometry x="471.25" y="768.75" width="60" height="40" as="geometry" />
        </mxCell>
        <mxCell id="keQ0cRB9MPPr5G5kg9qf-440" value="" style="ellipse;whiteSpace=wrap;html=1;strokeColor=none;fillColor=#000000;" vertex="1" parent="2">
          <mxGeometry x="389.25" y="785.75" width="10" height="11" as="geometry" />
        </mxCell>
        <mxCell id="keQ0cRB9MPPr5G5kg9qf-441" value="" style="ellipse;whiteSpace=wrap;html=1;strokeColor=none;fillColor=#000000;" vertex="1" parent="2">
          <mxGeometry x="481.25" y="785.75" width="10" height="11" as="geometry" />
        </mxCell>
        <mxCell id="keQ0cRB9MPPr5G5kg9qf-442" value="" style="ellipse;whiteSpace=wrap;html=1;strokeColor=none;fillColor=#000000;" vertex="1" parent="2">
          <mxGeometry x="386.75" y="734.25" width="10" height="11" as="geometry" />
        </mxCell>
        <mxCell id="keQ0cRB9MPPr5G5kg9qf-443" value="" style="ellipse;whiteSpace=wrap;html=1;strokeColor=none;fillColor=#00c74c;" vertex="1" parent="2">
          <mxGeometry x="576.25" y="790.25" width="10" height="11" as="geometry" />
        </mxCell>
        <mxCell id="keQ0cRB9MPPr5G5kg9qf-444" value="" style="ellipse;whiteSpace=wrap;html=1;strokeColor=none;fillColor=#00c74c;" vertex="1" parent="2">
          <mxGeometry x="574.25" y="734.25" width="10" height="11" as="geometry" />
        </mxCell>
        <mxCell id="keQ0cRB9MPPr5G5kg9qf-445" value="" style="ellipse;whiteSpace=wrap;html=1;strokeColor=none;fillColor=#7f00ff;" vertex="1" parent="2">
          <mxGeometry x="589" y="790.25" width="10" height="11" as="geometry" />
        </mxCell>
        <mxCell id="keQ0cRB9MPPr5G5kg9qf-446" value="" style="ellipse;whiteSpace=wrap;html=1;strokeColor=none;fillColor=#7f00ff;" vertex="1" parent="2">
          <mxGeometry x="591.5" y="734.25" width="10" height="11" as="geometry" />
        </mxCell>
        <mxCell id="keQ0cRB9MPPr5G5kg9qf-447" value="" style="ellipse;whiteSpace=wrap;html=1;strokeColor=none;fillColor=#cc0000;" vertex="1" parent="2">
          <mxGeometry x="603.75" y="790.25" width="10" height="11" as="geometry" />
        </mxCell>
        <mxCell id="keQ0cRB9MPPr5G5kg9qf-449" value="&lt;div style=&quot;width: 93.0px;height:auto;word-break: break-word;&quot;&gt;&lt;div align=&quot;center&quot;&gt;&lt;br&gt;&lt;/div&gt;&lt;/div&gt;" style="shape=rect;rounded=1;arcSize=15;absoluteArcSize=1;shadow=0;strokeWidth=2;fillColor=#FFFFFF;strokeColor=#333333;opacity=100.0;html=1;nl2Br=0;verticalAlign=middle;align=center;spacingLeft=2.0;spacingRight=0;whiteSpace=wrap;gliffyId=15;" vertex="1" parent="2">
          <mxGeometry x="479.25" y="749.75" width="40" height="20" as="geometry" />
        </mxCell>
        <mxCell id="keQ0cRB9MPPr5G5kg9qf-450" value="" style="ellipse;whiteSpace=wrap;html=1;strokeColor=none;fillColor=#000000;" vertex="1" parent="2">
          <mxGeometry x="484.25" y="754.25" width="10" height="11" as="geometry" />
        </mxCell>
        <mxCell id="keQ0cRB9MPPr5G5kg9qf-451" style="shape=filledEdge;strokeWidth=2;strokeColor=#000000;fillColor=none;startArrow=none;startFill=0;startSize=6;endArrow=none;endFill=0;endSize=6;rounded=1;gliffyId=17;edgeStyle=orthogonalEdgeStyle;" edge="1" source="keQ0cRB9MPPr5G5kg9qf-452" target="keQ0cRB9MPPr5G5kg9qf-456" parent="2">
          <mxGeometry width="1" height="23" relative="1" as="geometry">
            <Array as="points">
              <mxPoint x="704.25" y="754.25" />
              <mxPoint x="704.25" y="762.5833435058594" />
              <mxPoint x="704.25" y="770.9166564941406" />
              <mxPoint x="704.25" y="779.25" />
            </Array>
          </mxGeometry>
        </mxCell>
        <mxCell id="keQ0cRB9MPPr5G5kg9qf-452" value="&lt;div style=&quot;width: 93.0px;height:auto;word-break: break-word;&quot;&gt;&lt;div align=&quot;center&quot;&gt;&lt;br&gt;&lt;/div&gt;&lt;/div&gt;" style="shape=rect;rounded=1;arcSize=15;absoluteArcSize=1;shadow=0;strokeWidth=2;fillColor=#FFFFFF;strokeColor=#333333;opacity=100.0;html=1;nl2Br=0;verticalAlign=middle;align=center;spacingLeft=2.0;spacingRight=0;whiteSpace=wrap;gliffyId=15;" vertex="1" parent="2">
          <mxGeometry x="670" y="735.25" width="69.5" height="20" as="geometry" />
        </mxCell>
        <mxCell id="keQ0cRB9MPPr5G5kg9qf-453" style="edgeStyle=orthogonalEdgeStyle;shape=filledEdge;rounded=1;orthogonalLoop=1;jettySize=auto;html=1;labelBackgroundColor=default;strokeColor=#000000;strokeWidth=2;fontFamily=Helvetica;fontSize=11;fontColor=default;startArrow=none;startFill=0;endArrow=none;endFill=0;startSize=6;endSize=6;fillColor=none;entryX=0;entryY=0.5;entryDx=0;entryDy=0;" edge="1" source="keQ0cRB9MPPr5G5kg9qf-456" target="keQ0cRB9MPPr5G5kg9qf-461" parent="2">
          <mxGeometry relative="1" as="geometry" />
        </mxCell>
        <mxCell id="keQ0cRB9MPPr5G5kg9qf-454" style="edgeStyle=orthogonalEdgeStyle;shape=filledEdge;rounded=1;orthogonalLoop=1;jettySize=auto;html=1;entryX=0;entryY=0.5;entryDx=0;entryDy=0;labelBackgroundColor=default;strokeColor=#000000;strokeWidth=2;fontFamily=Helvetica;fontSize=11;fontColor=default;startArrow=none;startFill=0;endArrow=none;endFill=0;startSize=6;endSize=6;fillColor=none;" edge="1" source="keQ0cRB9MPPr5G5kg9qf-456" target="keQ0cRB9MPPr5G5kg9qf-479" parent="2">
          <mxGeometry relative="1" as="geometry" />
        </mxCell>
        <mxCell id="keQ0cRB9MPPr5G5kg9qf-455" style="edgeStyle=orthogonalEdgeStyle;shape=filledEdge;rounded=1;orthogonalLoop=1;jettySize=auto;html=1;entryX=0;entryY=0.5;entryDx=0;entryDy=0;labelBackgroundColor=default;strokeColor=#000000;strokeWidth=2;fontFamily=Helvetica;fontSize=11;fontColor=default;startArrow=none;startFill=0;endArrow=none;endFill=0;startSize=6;endSize=6;fillColor=none;" edge="1" source="keQ0cRB9MPPr5G5kg9qf-456" target="keQ0cRB9MPPr5G5kg9qf-474" parent="2">
          <mxGeometry relative="1" as="geometry" />
        </mxCell>
        <mxCell id="keQ0cRB9MPPr5G5kg9qf-456" value="&lt;div style=&quot;width: 93.0px;height:auto;word-break: break-word;&quot;&gt;&lt;div align=&quot;center&quot;&gt;&lt;span style=&quot;font-family: Arial; font-size: 12px; text-decoration: none; line-height: 0;&quot;&gt;&lt;span style=&quot;text-decoration: none; line-height: 14px;&quot;&gt;A&lt;/span&gt;&lt;/span&gt;&lt;/div&gt;&lt;/div&gt;" style="shape=ellipse;perimeter=ellipsePerimeter;shadow=0;strokeWidth=2;fillColor=#FFFFFF;strokeColor=#333333;opacity=100.0;html=1;nl2Br=0;verticalAlign=middle;align=center;spacingLeft=2.0;spacingRight=0;whiteSpace=wrap;gliffyId=12;" vertex="1" parent="2">
          <mxGeometry x="670" y="781.75" width="63" height="25" as="geometry" />
        </mxCell>
        <mxCell id="keQ0cRB9MPPr5G5kg9qf-457" style="shape=filledEdge;strokeWidth=2;strokeColor=#000000;fillColor=none;startArrow=none;startFill=0;startSize=6;endArrow=none;endFill=0;endSize=6;rounded=1;gliffyId=17;edgeStyle=orthogonalEdgeStyle;" edge="1" source="keQ0cRB9MPPr5G5kg9qf-458" target="keQ0cRB9MPPr5G5kg9qf-459" parent="2">
          <mxGeometry width="1" height="23" relative="1" as="geometry">
            <Array as="points">
              <mxPoint x="886.75" y="746.25" />
              <mxPoint x="886.75" y="754.5833435058594" />
              <mxPoint x="886.75" y="762.9166564941406" />
              <mxPoint x="886.75" y="771.25" />
            </Array>
          </mxGeometry>
        </mxCell>
        <mxCell id="keQ0cRB9MPPr5G5kg9qf-458" value="&lt;div style=&quot;width: 93.0px;height:auto;word-break: break-word;&quot;&gt;&lt;div align=&quot;center&quot;&gt;&lt;br&gt;&lt;/div&gt;&lt;/div&gt;" style="shape=rect;rounded=1;arcSize=15;absoluteArcSize=1;shadow=0;strokeWidth=2;fillColor=#FFFFFF;strokeColor=#333333;opacity=100.0;html=1;nl2Br=0;verticalAlign=middle;align=center;spacingLeft=2.0;spacingRight=0;whiteSpace=wrap;gliffyId=15;" vertex="1" parent="2">
          <mxGeometry x="853" y="737.25" width="69.5" height="20" as="geometry" />
        </mxCell>
        <mxCell id="keQ0cRB9MPPr5G5kg9qf-459" value="&lt;div style=&quot;width: 93.0px;height:auto;word-break: break-word;&quot;&gt;&lt;div align=&quot;center&quot;&gt;&lt;span style=&quot;font-family: Arial; font-size: 12px; text-decoration: none; line-height: 0;&quot;&gt;&lt;span style=&quot;text-decoration: none; line-height: 14px;&quot;&gt;B&lt;/span&gt;&lt;/span&gt;&lt;/div&gt;&lt;/div&gt;" style="shape=ellipse;perimeter=ellipsePerimeter;shadow=0;strokeWidth=2;fillColor=#FFFFFF;strokeColor=#333333;opacity=100.0;html=1;nl2Br=0;verticalAlign=top;align=center;spacingLeft=2.0;spacingRight=0;whiteSpace=wrap;gliffyId=12;" vertex="1" parent="2">
          <mxGeometry x="853.75" y="771.25" width="63" height="45" as="geometry" />
        </mxCell>
        <mxCell id="keQ0cRB9MPPr5G5kg9qf-460" style="edgeStyle=orthogonalEdgeStyle;shape=filledEdge;rounded=1;orthogonalLoop=1;jettySize=auto;html=1;labelBackgroundColor=default;strokeColor=#000000;strokeWidth=2;fontFamily=Helvetica;fontSize=11;fontColor=default;startArrow=none;startFill=0;endArrow=none;endFill=0;startSize=6;endSize=6;fillColor=none;" edge="1" source="keQ0cRB9MPPr5G5kg9qf-461" target="keQ0cRB9MPPr5G5kg9qf-459" parent="2">
          <mxGeometry relative="1" as="geometry">
            <Array as="points">
              <mxPoint x="830" y="742.25" />
              <mxPoint x="830" y="793.25" />
            </Array>
          </mxGeometry>
        </mxCell>
        <mxCell id="keQ0cRB9MPPr5G5kg9qf-461" value="&lt;div style=&quot;width: 83.0px;height:auto;word-break: break-word;&quot;&gt;&lt;div align=&quot;center&quot;&gt;&lt;br&gt;&lt;/div&gt;&lt;/div&gt;" style="shape=hexagon;perimeter=hexagonPerimeter2;shadow=0;strokeWidth=2;fillColor=#FFFFFF;strokeColor=#000000;opacity=100.0;html=1;nl2Br=0;verticalAlign=middle;align=center;spacingLeft=2.0;spacingRight=0;whiteSpace=wrap;gliffyId=195;" vertex="1" parent="2">
          <mxGeometry x="773.25" y="730" width="41" height="24.5" as="geometry" />
        </mxCell>
        <mxCell id="keQ0cRB9MPPr5G5kg9qf-462" value="" style="ellipse;whiteSpace=wrap;html=1;strokeColor=none;fillColor=#000000;" vertex="1" parent="2">
          <mxGeometry x="680.5" y="791.25" width="10" height="11" as="geometry" />
        </mxCell>
        <mxCell id="keQ0cRB9MPPr5G5kg9qf-463" value="" style="ellipse;whiteSpace=wrap;html=1;strokeColor=none;fillColor=#00c74c;" vertex="1" parent="2">
          <mxGeometry x="786.75" y="736.75" width="10" height="11" as="geometry" />
        </mxCell>
        <mxCell id="keQ0cRB9MPPr5G5kg9qf-464" value="" style="ellipse;whiteSpace=wrap;html=1;strokeColor=none;fillColor=#000000;" vertex="1" parent="2">
          <mxGeometry x="678" y="739.75" width="10" height="11" as="geometry" />
        </mxCell>
        <mxCell id="keQ0cRB9MPPr5G5kg9qf-465" value="" style="ellipse;whiteSpace=wrap;html=1;strokeColor=none;fillColor=#00c74c;" vertex="1" parent="2">
          <mxGeometry x="867.5" y="797.75" width="10" height="11" as="geometry" />
        </mxCell>
        <mxCell id="keQ0cRB9MPPr5G5kg9qf-466" value="" style="ellipse;whiteSpace=wrap;html=1;strokeColor=none;fillColor=#00c74c;" vertex="1" parent="2">
          <mxGeometry x="865.5" y="741.75" width="10" height="11" as="geometry" />
        </mxCell>
        <mxCell id="keQ0cRB9MPPr5G5kg9qf-467" value="" style="ellipse;whiteSpace=wrap;html=1;strokeColor=none;fillColor=#7F00FF;" vertex="1" parent="2">
          <mxGeometry x="880.25" y="797.75" width="10" height="11" as="geometry" />
        </mxCell>
        <mxCell id="keQ0cRB9MPPr5G5kg9qf-468" value="" style="ellipse;whiteSpace=wrap;html=1;strokeColor=none;fillColor=#7f00ff;" vertex="1" parent="2">
          <mxGeometry x="882.75" y="741.75" width="10" height="11" as="geometry" />
        </mxCell>
        <mxCell id="keQ0cRB9MPPr5G5kg9qf-469" value="" style="ellipse;whiteSpace=wrap;html=1;strokeColor=none;fillColor=#cc0000;" vertex="1" parent="2">
          <mxGeometry x="895" y="797.75" width="10" height="11" as="geometry" />
        </mxCell>
        <mxCell id="keQ0cRB9MPPr5G5kg9qf-471" value="&lt;div style=&quot;width: 93.0px;height:auto;word-break: break-word;&quot;&gt;&lt;div align=&quot;center&quot;&gt;&lt;br&gt;&lt;/div&gt;&lt;/div&gt;" style="shape=rect;rounded=1;arcSize=15;absoluteArcSize=1;shadow=0;strokeWidth=2;fillColor=#FFFFFF;strokeColor=#00c74c;opacity=100.0;html=1;nl2Br=0;verticalAlign=middle;align=center;spacingLeft=2.0;spacingRight=0;whiteSpace=wrap;gliffyId=15;" vertex="1" parent="2">
          <mxGeometry x="778.75" y="710" width="30" height="20" as="geometry" />
        </mxCell>
        <mxCell id="keQ0cRB9MPPr5G5kg9qf-472" value="" style="ellipse;whiteSpace=wrap;html=1;strokeColor=none;fillColor=#00c74c;" vertex="1" parent="2">
          <mxGeometry x="783.75" y="714.5" width="10" height="11" as="geometry" />
        </mxCell>
        <mxCell id="keQ0cRB9MPPr5G5kg9qf-473" style="edgeStyle=orthogonalEdgeStyle;shape=filledEdge;rounded=1;orthogonalLoop=1;jettySize=auto;html=1;entryX=0;entryY=0.5;entryDx=0;entryDy=0;labelBackgroundColor=default;strokeColor=#000000;strokeWidth=2;fontFamily=Helvetica;fontSize=11;fontColor=default;startArrow=none;startFill=0;endArrow=none;endFill=0;startSize=6;endSize=6;fillColor=none;" edge="1" source="keQ0cRB9MPPr5G5kg9qf-474" target="keQ0cRB9MPPr5G5kg9qf-459" parent="2">
          <mxGeometry relative="1" as="geometry" />
        </mxCell>
        <mxCell id="keQ0cRB9MPPr5G5kg9qf-474" value="&lt;div style=&quot;width: 83.0px;height:auto;word-break: break-word;&quot;&gt;&lt;div align=&quot;center&quot;&gt;&lt;br&gt;&lt;/div&gt;&lt;/div&gt;" style="shape=hexagon;perimeter=hexagonPerimeter2;shadow=0;strokeWidth=2;fillColor=#FFFFFF;strokeColor=#000000;opacity=100.0;html=1;nl2Br=0;verticalAlign=middle;align=center;spacingLeft=2.0;spacingRight=0;whiteSpace=wrap;gliffyId=195;" vertex="1" parent="2">
          <mxGeometry x="773.25" y="782.25" width="41" height="24.5" as="geometry" />
        </mxCell>
        <mxCell id="keQ0cRB9MPPr5G5kg9qf-475" value="" style="ellipse;whiteSpace=wrap;html=1;strokeColor=none;fillColor=#7F00FF;" vertex="1" parent="2">
          <mxGeometry x="786.75" y="789" width="10" height="11" as="geometry" />
        </mxCell>
        <mxCell id="keQ0cRB9MPPr5G5kg9qf-476" value="&lt;div style=&quot;width: 93.0px;height:auto;word-break: break-word;&quot;&gt;&lt;div align=&quot;center&quot;&gt;&lt;br&gt;&lt;/div&gt;&lt;/div&gt;" style="shape=rect;rounded=1;arcSize=15;absoluteArcSize=1;shadow=0;strokeWidth=2;fillColor=#FFFFFF;strokeColor=#7F00FF;opacity=100.0;html=1;nl2Br=0;verticalAlign=middle;align=center;spacingLeft=2.0;spacingRight=0;whiteSpace=wrap;gliffyId=15;" vertex="1" parent="2">
          <mxGeometry x="778.75" y="762.25" width="30" height="20" as="geometry" />
        </mxCell>
        <mxCell id="keQ0cRB9MPPr5G5kg9qf-477" value="" style="ellipse;whiteSpace=wrap;html=1;strokeColor=none;fillColor=#7F00FF;" vertex="1" parent="2">
          <mxGeometry x="783.75" y="766.75" width="10" height="11" as="geometry" />
        </mxCell>
        <mxCell id="keQ0cRB9MPPr5G5kg9qf-478" style="edgeStyle=orthogonalEdgeStyle;shape=filledEdge;rounded=1;orthogonalLoop=1;jettySize=auto;html=1;entryX=0;entryY=0.5;entryDx=0;entryDy=0;labelBackgroundColor=default;strokeColor=#000000;strokeWidth=2;fontFamily=Helvetica;fontSize=11;fontColor=default;startArrow=none;startFill=0;endArrow=none;endFill=0;startSize=6;endSize=6;fillColor=none;" edge="1" source="keQ0cRB9MPPr5G5kg9qf-479" target="keQ0cRB9MPPr5G5kg9qf-459" parent="2">
          <mxGeometry relative="1" as="geometry" />
        </mxCell>
        <mxCell id="keQ0cRB9MPPr5G5kg9qf-479" value="&lt;div style=&quot;width: 83.0px;height:auto;word-break: break-word;&quot;&gt;&lt;div align=&quot;center&quot;&gt;&lt;br&gt;&lt;/div&gt;&lt;/div&gt;" style="shape=hexagon;perimeter=hexagonPerimeter2;shadow=0;strokeWidth=2;fillColor=#FFFFFF;strokeColor=#000000;opacity=100.0;html=1;nl2Br=0;verticalAlign=middle;align=center;spacingLeft=2.0;spacingRight=0;whiteSpace=wrap;gliffyId=195;" vertex="1" parent="2">
          <mxGeometry x="773.25" y="837.75" width="41" height="24.5" as="geometry" />
        </mxCell>
        <mxCell id="keQ0cRB9MPPr5G5kg9qf-480" value="" style="ellipse;whiteSpace=wrap;html=1;strokeColor=none;fillColor=#cc0000;" vertex="1" parent="2">
          <mxGeometry x="786.75" y="844.5" width="10" height="11" as="geometry" />
        </mxCell>
        <mxCell id="keQ0cRB9MPPr5G5kg9qf-481" value="&lt;div style=&quot;width: 93.0px;height:auto;word-break: break-word;&quot;&gt;&lt;div align=&quot;center&quot;&gt;&lt;br&gt;&lt;/div&gt;&lt;/div&gt;" style="shape=rect;rounded=1;arcSize=15;absoluteArcSize=1;shadow=0;strokeWidth=2;fillColor=#FFFFFF;strokeColor=#cc0000;opacity=100.0;html=1;nl2Br=0;verticalAlign=middle;align=center;spacingLeft=2.0;spacingRight=0;whiteSpace=wrap;gliffyId=15;" vertex="1" parent="2">
          <mxGeometry x="778.75" y="817.75" width="30" height="20" as="geometry" />
        </mxCell>
        <mxCell id="keQ0cRB9MPPr5G5kg9qf-482" value="" style="ellipse;whiteSpace=wrap;html=1;strokeColor=none;fillColor=#cc0000;" vertex="1" parent="2">
          <mxGeometry x="783.75" y="822.25" width="10" height="11" as="geometry" />
        </mxCell>
        <mxCell id="keQ0cRB9MPPr5G5kg9qf-483" style="shape=filledEdge;strokeWidth=2;strokeColor=#000000;fillColor=none;startArrow=none;startFill=0;startSize=6;endArrow=none;endFill=0;endSize=6;rounded=1;gliffyId=17;edgeStyle=orthogonalEdgeStyle;" edge="1" source="keQ0cRB9MPPr5G5kg9qf-484" target="keQ0cRB9MPPr5G5kg9qf-486" parent="2">
          <mxGeometry width="1" height="23" relative="1" as="geometry">
            <Array as="points">
              <mxPoint x="991.75" y="758.75" />
              <mxPoint x="991.75" y="767.0833435058594" />
              <mxPoint x="991.75" y="775.4166564941406" />
              <mxPoint x="991.75" y="783.75" />
            </Array>
          </mxGeometry>
        </mxCell>
        <mxCell id="keQ0cRB9MPPr5G5kg9qf-484" value="&lt;div style=&quot;width: 93.0px;height:auto;word-break: break-word;&quot;&gt;&lt;div align=&quot;center&quot;&gt;&lt;br&gt;&lt;/div&gt;&lt;/div&gt;" style="shape=rect;rounded=1;arcSize=15;absoluteArcSize=1;shadow=0;strokeWidth=2;fillColor=#FFFFFF;strokeColor=#333333;opacity=100.0;html=1;nl2Br=0;verticalAlign=middle;align=center;spacingLeft=2.0;spacingRight=0;whiteSpace=wrap;gliffyId=15;" vertex="1" parent="2">
          <mxGeometry x="957.5" y="739.75" width="69.5" height="20" as="geometry" />
        </mxCell>
        <mxCell id="keQ0cRB9MPPr5G5kg9qf-485" style="edgeStyle=orthogonalEdgeStyle;shape=filledEdge;rounded=1;orthogonalLoop=1;jettySize=auto;html=1;entryX=0;entryY=0.5;entryDx=0;entryDy=0;labelBackgroundColor=default;strokeColor=#000000;strokeWidth=2;fontFamily=Helvetica;fontSize=11;fontColor=default;startArrow=none;startFill=0;endArrow=none;endFill=0;startSize=6;endSize=6;fillColor=none;" edge="1" source="keQ0cRB9MPPr5G5kg9qf-486" target="keQ0cRB9MPPr5G5kg9qf-428" parent="2">
          <mxGeometry relative="1" as="geometry" />
        </mxCell>
        <mxCell id="keQ0cRB9MPPr5G5kg9qf-486" value="&lt;div style=&quot;width: 93.0px;height:auto;word-break: break-word;&quot;&gt;&lt;div align=&quot;center&quot;&gt;&lt;span style=&quot;font-family: Arial; font-size: 12px; text-decoration: none; line-height: 0;&quot;&gt;&lt;span style=&quot;text-decoration: none; line-height: 14px;&quot;&gt;A&lt;/span&gt;&lt;/span&gt;&lt;/div&gt;&lt;/div&gt;" style="shape=ellipse;perimeter=ellipsePerimeter;shadow=0;strokeWidth=2;fillColor=#FFFFFF;strokeColor=#333333;opacity=100.0;html=1;nl2Br=0;verticalAlign=middle;align=center;spacingLeft=2.0;spacingRight=0;whiteSpace=wrap;gliffyId=12;" vertex="1" parent="2">
          <mxGeometry x="957.5" y="786.25" width="63" height="25" as="geometry" />
        </mxCell>
        <mxCell id="keQ0cRB9MPPr5G5kg9qf-487" style="shape=filledEdge;strokeWidth=2;strokeColor=#000000;fillColor=none;startArrow=none;startFill=0;startSize=6;endArrow=none;endFill=0;endSize=6;rounded=1;gliffyId=17;edgeStyle=orthogonalEdgeStyle;" edge="1" source="keQ0cRB9MPPr5G5kg9qf-488" target="keQ0cRB9MPPr5G5kg9qf-489" parent="2">
          <mxGeometry width="1" height="23" relative="1" as="geometry">
            <Array as="points">
              <mxPoint x="1174.25" y="750.75" />
              <mxPoint x="1174.25" y="759.0833435058594" />
              <mxPoint x="1174.25" y="767.4166564941406" />
              <mxPoint x="1174.25" y="775.75" />
            </Array>
          </mxGeometry>
        </mxCell>
        <mxCell id="keQ0cRB9MPPr5G5kg9qf-488" value="&lt;div style=&quot;width: 93.0px;height:auto;word-break: break-word;&quot;&gt;&lt;div align=&quot;center&quot;&gt;&lt;br&gt;&lt;/div&gt;&lt;/div&gt;" style="shape=rect;rounded=1;arcSize=15;absoluteArcSize=1;shadow=0;strokeWidth=2;fillColor=#FFFFFF;strokeColor=#333333;opacity=100.0;html=1;nl2Br=0;verticalAlign=middle;align=center;spacingLeft=2.0;spacingRight=0;whiteSpace=wrap;gliffyId=15;" vertex="1" parent="2">
          <mxGeometry x="1140.5" y="741.75" width="69.5" height="20" as="geometry" />
        </mxCell>
        <mxCell id="keQ0cRB9MPPr5G5kg9qf-489" value="&lt;div style=&quot;width: 93.0px;height:auto;word-break: break-word;&quot;&gt;&lt;div align=&quot;center&quot;&gt;&lt;span style=&quot;font-family: Arial; font-size: 12px; text-decoration: none; line-height: 0;&quot;&gt;&lt;span style=&quot;text-decoration: none; line-height: 14px;&quot;&gt;B&lt;/span&gt;&lt;/span&gt;&lt;/div&gt;&lt;/div&gt;" style="shape=ellipse;perimeter=ellipsePerimeter;shadow=0;strokeWidth=2;fillColor=#FFFFFF;strokeColor=#333333;opacity=100.0;html=1;nl2Br=0;verticalAlign=top;align=center;spacingLeft=2.0;spacingRight=0;whiteSpace=wrap;gliffyId=12;" vertex="1" parent="2">
          <mxGeometry x="1141.25" y="775.75" width="63" height="45" as="geometry" />
        </mxCell>
        <mxCell id="keQ0cRB9MPPr5G5kg9qf-490" value="" style="ellipse;whiteSpace=wrap;html=1;strokeColor=none;fillColor=#000000;" vertex="1" parent="2">
          <mxGeometry x="968" y="795.75" width="10" height="11" as="geometry" />
        </mxCell>
        <mxCell id="keQ0cRB9MPPr5G5kg9qf-491" value="" style="ellipse;whiteSpace=wrap;html=1;strokeColor=none;fillColor=#00c74c;" vertex="1" parent="2">
          <mxGeometry x="1060.75" y="793.5" width="10" height="11" as="geometry" />
        </mxCell>
        <mxCell id="keQ0cRB9MPPr5G5kg9qf-492" value="" style="ellipse;whiteSpace=wrap;html=1;strokeColor=none;fillColor=#000000;" vertex="1" parent="2">
          <mxGeometry x="965.5" y="744.25" width="10" height="11" as="geometry" />
        </mxCell>
        <mxCell id="keQ0cRB9MPPr5G5kg9qf-493" value="" style="ellipse;whiteSpace=wrap;html=1;strokeColor=none;fillColor=#00c74c;" vertex="1" parent="2">
          <mxGeometry x="1155" y="802.25" width="10" height="11" as="geometry" />
        </mxCell>
        <mxCell id="keQ0cRB9MPPr5G5kg9qf-494" value="" style="ellipse;whiteSpace=wrap;html=1;strokeColor=none;fillColor=#00c74c;" vertex="1" parent="2">
          <mxGeometry x="1153" y="746.25" width="10" height="11" as="geometry" />
        </mxCell>
        <mxCell id="keQ0cRB9MPPr5G5kg9qf-495" value="" style="ellipse;whiteSpace=wrap;html=1;strokeColor=none;fillColor=#7F00FF;" vertex="1" parent="2">
          <mxGeometry x="1167.75" y="802.25" width="10" height="11" as="geometry" />
        </mxCell>
        <mxCell id="keQ0cRB9MPPr5G5kg9qf-496" value="" style="ellipse;whiteSpace=wrap;html=1;strokeColor=none;fillColor=#7f00ff;" vertex="1" parent="2">
          <mxGeometry x="1170.25" y="746.25" width="10" height="11" as="geometry" />
        </mxCell>
        <mxCell id="keQ0cRB9MPPr5G5kg9qf-497" value="" style="ellipse;whiteSpace=wrap;html=1;strokeColor=none;fillColor=#cc0000;" vertex="1" parent="2">
          <mxGeometry x="1182.5" y="802.25" width="10" height="11" as="geometry" />
        </mxCell>
        <mxCell id="keQ0cRB9MPPr5G5kg9qf-499" value="&lt;div style=&quot;width: 93.0px;height:auto;word-break: break-word;&quot;&gt;&lt;div align=&quot;center&quot;&gt;&lt;br&gt;&lt;/div&gt;&lt;/div&gt;" style="shape=rect;rounded=1;arcSize=15;absoluteArcSize=1;shadow=0;strokeWidth=2;fillColor=#FFFFFF;strokeColor=#00c74c;opacity=100.0;html=1;nl2Br=0;verticalAlign=middle;align=center;spacingLeft=2.0;spacingRight=0;whiteSpace=wrap;gliffyId=15;" vertex="1" parent="2">
          <mxGeometry x="1027" y="714.5" width="30" height="20" as="geometry" />
        </mxCell>
        <mxCell id="keQ0cRB9MPPr5G5kg9qf-500" value="" style="ellipse;whiteSpace=wrap;html=1;strokeColor=none;fillColor=#00c74c;" vertex="1" parent="2">
          <mxGeometry x="1032" y="719" width="10" height="11" as="geometry" />
        </mxCell>
        <mxCell id="keQ0cRB9MPPr5G5kg9qf-501" style="edgeStyle=orthogonalEdgeStyle;shape=filledEdge;rounded=1;orthogonalLoop=1;jettySize=auto;html=1;entryX=0;entryY=0.5;entryDx=0;entryDy=0;labelBackgroundColor=default;strokeColor=#000000;strokeWidth=2;fontFamily=Helvetica;fontSize=11;fontColor=default;startArrow=none;startFill=0;endArrow=none;endFill=0;startSize=6;endSize=6;fillColor=none;" edge="1" source="keQ0cRB9MPPr5G5kg9qf-428" target="keQ0cRB9MPPr5G5kg9qf-489" parent="2">
          <mxGeometry relative="1" as="geometry" />
        </mxCell>
        <mxCell id="keQ0cRB9MPPr5G5kg9qf-502" value="" style="ellipse;whiteSpace=wrap;html=1;strokeColor=none;fillColor=#7F00FF;" vertex="1" parent="2">
          <mxGeometry x="1074.25" y="793.5" width="10" height="11" as="geometry" />
        </mxCell>
        <mxCell id="keQ0cRB9MPPr5G5kg9qf-503" value="&lt;div style=&quot;width: 93.0px;height:auto;word-break: break-word;&quot;&gt;&lt;div align=&quot;center&quot;&gt;&lt;br&gt;&lt;/div&gt;&lt;/div&gt;" style="shape=rect;rounded=1;arcSize=15;absoluteArcSize=1;shadow=0;strokeWidth=2;fillColor=#FFFFFF;strokeColor=#7F00FF;opacity=100.0;html=1;nl2Br=0;verticalAlign=middle;align=center;spacingLeft=2.0;spacingRight=0;whiteSpace=wrap;gliffyId=15;" vertex="1" parent="2">
          <mxGeometry x="1067" y="715.25" width="30" height="20" as="geometry" />
        </mxCell>
        <mxCell id="keQ0cRB9MPPr5G5kg9qf-504" value="" style="ellipse;whiteSpace=wrap;html=1;strokeColor=none;fillColor=#7F00FF;" vertex="1" parent="2">
          <mxGeometry x="1072" y="719.75" width="10" height="11" as="geometry" />
        </mxCell>
        <mxCell id="keQ0cRB9MPPr5G5kg9qf-505" value="" style="ellipse;whiteSpace=wrap;html=1;strokeColor=none;fillColor=#cc0000;" vertex="1" parent="2">
          <mxGeometry x="1087" y="792.75" width="10" height="11" as="geometry" />
        </mxCell>
        <mxCell id="keQ0cRB9MPPr5G5kg9qf-506" value="&lt;div style=&quot;width: 93.0px;height:auto;word-break: break-word;&quot;&gt;&lt;div align=&quot;center&quot;&gt;&lt;br&gt;&lt;/div&gt;&lt;/div&gt;" style="shape=rect;rounded=1;arcSize=15;absoluteArcSize=1;shadow=0;strokeWidth=2;fillColor=#FFFFFF;strokeColor=#cc0000;opacity=100.0;html=1;nl2Br=0;verticalAlign=middle;align=center;spacingLeft=2.0;spacingRight=0;whiteSpace=wrap;gliffyId=15;" vertex="1" parent="2">
          <mxGeometry x="1103" y="714.5" width="30" height="20" as="geometry" />
        </mxCell>
        <mxCell id="keQ0cRB9MPPr5G5kg9qf-507" value="" style="ellipse;whiteSpace=wrap;html=1;strokeColor=none;fillColor=#cc0000;" vertex="1" parent="2">
          <mxGeometry x="1108" y="719" width="10" height="11" as="geometry" />
        </mxCell>
        <mxCell id="keQ0cRB9MPPr5G5kg9qf-509" value="&lt;div style=&quot;width: 83.0px;height:auto;word-break: break-word;&quot;&gt;&lt;div align=&quot;center&quot;&gt;&lt;br&gt;&lt;/div&gt;&lt;div&gt;( .... )&lt;/div&gt;&lt;/div&gt;" style="shape=hexagon;perimeter=hexagonPerimeter2;shadow=0;strokeWidth=2;fillColor=#FFFFFF;strokeColor=#000000;opacity=100.0;html=1;nl2Br=0;verticalAlign=middle;align=center;spacingLeft=2.0;spacingRight=0;whiteSpace=wrap;gliffyId=195;" vertex="1" parent="2">
          <mxGeometry x="1342.5" y="792.75" width="60" height="36.75" as="geometry" />
        </mxCell>
        <mxCell id="keQ0cRB9MPPr5G5kg9qf-510" style="shape=filledEdge;strokeWidth=2;strokeColor=#000000;fillColor=none;startArrow=none;startFill=0;startSize=6;endArrow=none;endFill=0;endSize=6;rounded=1;gliffyId=17;edgeStyle=orthogonalEdgeStyle;" edge="1" source="keQ0cRB9MPPr5G5kg9qf-511" target="keQ0cRB9MPPr5G5kg9qf-513" parent="2">
          <mxGeometry width="1" height="23" relative="1" as="geometry">
            <Array as="points">
              <mxPoint x="1284.25" y="766.5" />
              <mxPoint x="1284.25" y="774.8333435058594" />
              <mxPoint x="1284.25" y="783.1666564941406" />
              <mxPoint x="1284.25" y="791.5" />
            </Array>
          </mxGeometry>
        </mxCell>
        <mxCell id="keQ0cRB9MPPr5G5kg9qf-511" value="&lt;div style=&quot;width: 93.0px;height:auto;word-break: break-word;&quot;&gt;&lt;div align=&quot;center&quot;&gt;&lt;br&gt;&lt;/div&gt;&lt;/div&gt;" style="shape=rect;rounded=1;arcSize=15;absoluteArcSize=1;shadow=0;strokeWidth=2;fillColor=#FFFFFF;strokeColor=#333333;opacity=100.0;html=1;nl2Br=0;verticalAlign=middle;align=center;spacingLeft=2.0;spacingRight=0;whiteSpace=wrap;gliffyId=15;" vertex="1" parent="2">
          <mxGeometry x="1250" y="747.5" width="69.5" height="20" as="geometry" />
        </mxCell>
        <mxCell id="keQ0cRB9MPPr5G5kg9qf-512" style="edgeStyle=orthogonalEdgeStyle;shape=filledEdge;rounded=1;orthogonalLoop=1;jettySize=auto;html=1;entryX=0;entryY=0.5;entryDx=0;entryDy=0;labelBackgroundColor=default;strokeColor=#000000;strokeWidth=2;fontFamily=Helvetica;fontSize=11;fontColor=default;startArrow=none;startFill=0;endArrow=none;endFill=0;startSize=6;endSize=6;fillColor=none;" edge="1" source="keQ0cRB9MPPr5G5kg9qf-513" target="keQ0cRB9MPPr5G5kg9qf-509" parent="2">
          <mxGeometry relative="1" as="geometry" />
        </mxCell>
        <mxCell id="keQ0cRB9MPPr5G5kg9qf-513" value="&lt;div style=&quot;width: 93.0px;height:auto;word-break: break-word;&quot;&gt;&lt;div align=&quot;center&quot;&gt;&lt;span style=&quot;font-family: Arial; font-size: 12px; text-decoration: none; line-height: 0;&quot;&gt;&lt;span style=&quot;text-decoration: none; line-height: 14px;&quot;&gt;A&lt;/span&gt;&lt;/span&gt;&lt;/div&gt;&lt;/div&gt;" style="shape=ellipse;perimeter=ellipsePerimeter;shadow=0;strokeWidth=2;fillColor=#FFFFFF;strokeColor=#333333;opacity=100.0;html=1;nl2Br=0;verticalAlign=middle;align=center;spacingLeft=2.0;spacingRight=0;whiteSpace=wrap;gliffyId=12;" vertex="1" parent="2">
          <mxGeometry x="1250" y="794" width="63" height="25" as="geometry" />
        </mxCell>
        <mxCell id="keQ0cRB9MPPr5G5kg9qf-514" style="shape=filledEdge;strokeWidth=2;strokeColor=#000000;fillColor=none;startArrow=none;startFill=0;startSize=6;endArrow=none;endFill=0;endSize=6;rounded=1;gliffyId=17;edgeStyle=orthogonalEdgeStyle;" edge="1" source="keQ0cRB9MPPr5G5kg9qf-515" target="keQ0cRB9MPPr5G5kg9qf-516" parent="2">
          <mxGeometry width="1" height="23" relative="1" as="geometry">
            <Array as="points">
              <mxPoint x="1466.75" y="758.5" />
              <mxPoint x="1466.75" y="766.8333435058594" />
              <mxPoint x="1466.75" y="775.1666564941406" />
              <mxPoint x="1466.75" y="783.5" />
            </Array>
          </mxGeometry>
        </mxCell>
        <mxCell id="keQ0cRB9MPPr5G5kg9qf-515" value="&lt;div style=&quot;width: 93.0px;height:auto;word-break: break-word;&quot;&gt;&lt;div align=&quot;center&quot;&gt;&lt;br&gt;&lt;/div&gt;&lt;/div&gt;" style="shape=rect;rounded=1;arcSize=15;absoluteArcSize=1;shadow=0;strokeWidth=2;fillColor=#FFFFFF;strokeColor=#333333;opacity=100.0;html=1;nl2Br=0;verticalAlign=middle;align=center;spacingLeft=2.0;spacingRight=0;whiteSpace=wrap;gliffyId=15;" vertex="1" parent="2">
          <mxGeometry x="1433" y="749.5" width="69.5" height="20" as="geometry" />
        </mxCell>
        <mxCell id="keQ0cRB9MPPr5G5kg9qf-516" value="&lt;div style=&quot;width: 93.0px;height:auto;word-break: break-word;&quot;&gt;&lt;div align=&quot;center&quot;&gt;&lt;span style=&quot;font-family: Arial; font-size: 12px; text-decoration: none; line-height: 0;&quot;&gt;&lt;span style=&quot;text-decoration: none; line-height: 14px;&quot;&gt;B&lt;/span&gt;&lt;/span&gt;&lt;/div&gt;&lt;/div&gt;" style="shape=ellipse;perimeter=ellipsePerimeter;shadow=0;strokeWidth=2;fillColor=#FFFFFF;strokeColor=#333333;opacity=100.0;html=1;nl2Br=0;verticalAlign=top;align=center;spacingLeft=2.0;spacingRight=0;whiteSpace=wrap;gliffyId=12;" vertex="1" parent="2">
          <mxGeometry x="1433.75" y="783.5" width="63" height="45" as="geometry" />
        </mxCell>
        <mxCell id="keQ0cRB9MPPr5G5kg9qf-517" value="" style="ellipse;whiteSpace=wrap;html=1;strokeColor=none;fillColor=#000000;" vertex="1" parent="2">
          <mxGeometry x="1260.5" y="803.5" width="10" height="11" as="geometry" />
        </mxCell>
        <mxCell id="keQ0cRB9MPPr5G5kg9qf-519" value="" style="ellipse;whiteSpace=wrap;html=1;strokeColor=none;fillColor=#000000;" vertex="1" parent="2">
          <mxGeometry x="1258" y="752" width="10" height="11" as="geometry" />
        </mxCell>
        <mxCell id="keQ0cRB9MPPr5G5kg9qf-520" value="" style="ellipse;whiteSpace=wrap;html=1;strokeColor=none;fillColor=#00c74c;" vertex="1" parent="2">
          <mxGeometry x="1447.5" y="810" width="10" height="11" as="geometry" />
        </mxCell>
        <mxCell id="keQ0cRB9MPPr5G5kg9qf-521" value="" style="ellipse;whiteSpace=wrap;html=1;strokeColor=none;fillColor=#00c74c;" vertex="1" parent="2">
          <mxGeometry x="1445.5" y="754" width="10" height="11" as="geometry" />
        </mxCell>
        <mxCell id="keQ0cRB9MPPr5G5kg9qf-522" value="" style="ellipse;whiteSpace=wrap;html=1;strokeColor=none;fillColor=#7F00FF;" vertex="1" parent="2">
          <mxGeometry x="1460.25" y="810" width="10" height="11" as="geometry" />
        </mxCell>
        <mxCell id="keQ0cRB9MPPr5G5kg9qf-523" value="" style="ellipse;whiteSpace=wrap;html=1;strokeColor=none;fillColor=#7f00ff;" vertex="1" parent="2">
          <mxGeometry x="1462.75" y="754" width="10" height="11" as="geometry" />
        </mxCell>
        <mxCell id="keQ0cRB9MPPr5G5kg9qf-524" value="" style="ellipse;whiteSpace=wrap;html=1;strokeColor=none;fillColor=#cc0000;" vertex="1" parent="2">
          <mxGeometry x="1475" y="810" width="10" height="11" as="geometry" />
        </mxCell>
        <mxCell id="keQ0cRB9MPPr5G5kg9qf-527" style="edgeStyle=orthogonalEdgeStyle;shape=filledEdge;rounded=1;orthogonalLoop=1;jettySize=auto;html=1;entryX=0;entryY=0.5;entryDx=0;entryDy=0;labelBackgroundColor=default;strokeColor=#000000;strokeWidth=2;fontFamily=Helvetica;fontSize=11;fontColor=default;startArrow=none;startFill=0;endArrow=none;endFill=0;startSize=6;endSize=6;fillColor=none;" edge="1" source="keQ0cRB9MPPr5G5kg9qf-509" target="keQ0cRB9MPPr5G5kg9qf-516" parent="2">
          <mxGeometry relative="1" as="geometry" />
        </mxCell>
        <mxCell id="keQ0cRB9MPPr5G5kg9qf-557" style="shape=filledEdge;strokeWidth=2;strokeColor=#000000;fillColor=none;startArrow=none;startFill=0;startSize=6;endArrow=none;endFill=0;endSize=6;rounded=1;gliffyId=17;edgeStyle=orthogonalEdgeStyle;" edge="1" parent="2">
          <mxGeometry width="1" height="23" relative="1" as="geometry">
            <Array as="points">
              <mxPoint x="432.96" y="989" />
              <mxPoint x="432.96" y="997.3333435058594" />
              <mxPoint x="432.96" y="1005.6666564941406" />
              <mxPoint x="432.96" y="1014" />
            </Array>
            <mxPoint x="432.96" y="990" as="sourcePoint" />
            <mxPoint x="432.96" y="1016.5477259051395" as="targetPoint" />
          </mxGeometry>
        </mxCell>
        <mxCell id="keQ0cRB9MPPr5G5kg9qf-558" value="&lt;div style=&quot;width: 93.0px;height:auto;word-break: break-word;&quot;&gt;&lt;div align=&quot;center&quot;&gt;&lt;br&gt;&lt;/div&gt;&lt;/div&gt;" style="shape=rect;rounded=1;arcSize=15;absoluteArcSize=1;shadow=0;strokeWidth=2;fillColor=#FFFFFF;strokeColor=#333333;opacity=100.0;html=1;nl2Br=0;verticalAlign=middle;align=center;spacingLeft=2.0;spacingRight=0;whiteSpace=wrap;gliffyId=15;" vertex="1" parent="2">
          <mxGeometry x="407.71" y="970" width="69.5" height="20" as="geometry" />
        </mxCell>
        <mxCell id="keQ0cRB9MPPr5G5kg9qf-559" style="edgeStyle=orthogonalEdgeStyle;shape=filledEdge;rounded=1;orthogonalLoop=1;jettySize=auto;html=1;labelBackgroundColor=default;strokeColor=#000000;strokeWidth=2;fontFamily=Helvetica;fontSize=11;fontColor=default;startArrow=none;startFill=0;endArrow=none;endFill=0;startSize=6;endSize=6;fillColor=none;" edge="1" source="keQ0cRB9MPPr5G5kg9qf-560" target="keQ0cRB9MPPr5G5kg9qf-567" parent="2">
          <mxGeometry relative="1" as="geometry" />
        </mxCell>
        <mxCell id="keQ0cRB9MPPr5G5kg9qf-560" value="&lt;div style=&quot;width: 93.0px;height:auto;word-break: break-word;&quot;&gt;&lt;div align=&quot;center&quot;&gt;&lt;span style=&quot;font-family: Arial; font-size: 12px; text-decoration: none; line-height: 0;&quot;&gt;&lt;span style=&quot;text-decoration: none; line-height: 14px;&quot;&gt;B&lt;/span&gt;&lt;/span&gt;&lt;/div&gt;&lt;/div&gt;" style="shape=ellipse;perimeter=ellipsePerimeter;shadow=0;strokeWidth=2;fillColor=#FFFFFF;strokeColor=#333333;opacity=100.0;html=1;nl2Br=0;verticalAlign=top;align=center;spacingLeft=2.0;spacingRight=0;whiteSpace=wrap;gliffyId=12;" vertex="1" parent="2">
          <mxGeometry x="407.71" y="1016.5" width="63" height="43.5" as="geometry" />
        </mxCell>
        <mxCell id="keQ0cRB9MPPr5G5kg9qf-564" style="edgeStyle=orthogonalEdgeStyle;shape=filledEdge;rounded=1;orthogonalLoop=1;jettySize=auto;html=1;labelBackgroundColor=default;strokeColor=#7f00ff;strokeWidth=2;fontFamily=Helvetica;fontSize=11;fontColor=default;startArrow=none;startFill=0;endArrow=none;endFill=0;startSize=6;endSize=6;fillColor=none;entryX=0.669;entryY=0.974;entryDx=0;entryDy=0;entryPerimeter=0;" edge="1" source="keQ0cRB9MPPr5G5kg9qf-567" target="keQ0cRB9MPPr5G5kg9qf-560" parent="2">
          <mxGeometry relative="1" as="geometry">
            <Array as="points">
              <mxPoint x="598.96" y="1029" />
              <mxPoint x="598.96" y="1070" />
              <mxPoint x="449.96" y="1070" />
            </Array>
          </mxGeometry>
        </mxCell>
        <mxCell id="keQ0cRB9MPPr5G5kg9qf-566" style="edgeStyle=orthogonalEdgeStyle;shape=filledEdge;rounded=1;orthogonalLoop=1;jettySize=auto;html=1;entryX=1;entryY=1;entryDx=0;entryDy=0;labelBackgroundColor=default;strokeColor=#cc0000;strokeWidth=2;fontFamily=Helvetica;fontSize=11;fontColor=default;startArrow=none;startFill=0;endArrow=none;endFill=0;startSize=6;endSize=6;fillColor=none;exitX=1;exitY=0.75;exitDx=0;exitDy=0;" edge="1" source="keQ0cRB9MPPr5G5kg9qf-567" target="keQ0cRB9MPPr5G5kg9qf-560" parent="2">
          <mxGeometry relative="1" as="geometry">
            <Array as="points">
              <mxPoint x="568.96" y="1037" />
              <mxPoint x="568.96" y="1060" />
              <mxPoint x="460.96" y="1060" />
            </Array>
          </mxGeometry>
        </mxCell>
        <mxCell id="keQ0cRB9MPPr5G5kg9qf-567" value="&lt;div style=&quot;width: 83.0px;height:auto;word-break: break-word;&quot;&gt;&lt;div align=&quot;center&quot;&gt;&lt;br&gt;&lt;/div&gt;&lt;/div&gt;" style="shape=hexagon;perimeter=hexagonPerimeter2;shadow=0;strokeWidth=2;fillColor=#FFFFFF;strokeColor=#333333;opacity=100.0;html=1;nl2Br=0;verticalAlign=middle;align=center;spacingLeft=2.0;spacingRight=0;whiteSpace=wrap;gliffyId=195;" vertex="1" parent="2">
          <mxGeometry x="500.21" y="1009" width="60" height="40" as="geometry" />
        </mxCell>
        <mxCell id="keQ0cRB9MPPr5G5kg9qf-569" value="" style="ellipse;whiteSpace=wrap;html=1;strokeColor=none;fillColor=#000000;" vertex="1" parent="2">
          <mxGeometry x="510.21" y="1026" width="10" height="11" as="geometry" />
        </mxCell>
        <mxCell id="keQ0cRB9MPPr5G5kg9qf-573" value="" style="ellipse;whiteSpace=wrap;html=1;strokeColor=none;fillColor=#7f00ff;" vertex="1" parent="2">
          <mxGeometry x="433.21" y="1040" width="10" height="11" as="geometry" />
        </mxCell>
        <mxCell id="keQ0cRB9MPPr5G5kg9qf-574" value="" style="ellipse;whiteSpace=wrap;html=1;strokeColor=none;fillColor=#7f00ff;" vertex="1" parent="2">
          <mxGeometry x="437.21" y="974.5" width="10" height="11" as="geometry" />
        </mxCell>
        <mxCell id="keQ0cRB9MPPr5G5kg9qf-575" value="" style="ellipse;whiteSpace=wrap;html=1;strokeColor=none;fillColor=#cc0000;" vertex="1" parent="2">
          <mxGeometry x="447.96" y="1040" width="10" height="11" as="geometry" />
        </mxCell>
        <mxCell id="keQ0cRB9MPPr5G5kg9qf-576" value="" style="ellipse;whiteSpace=wrap;html=1;strokeColor=none;fillColor=#cc0000;" vertex="1" parent="2">
          <mxGeometry x="454.46" y="974.5" width="10" height="11" as="geometry" />
        </mxCell>
        <mxCell id="keQ0cRB9MPPr5G5kg9qf-577" value="&lt;div style=&quot;width: 93.0px;height:auto;word-break: break-word;&quot;&gt;&lt;div align=&quot;center&quot;&gt;&lt;br&gt;&lt;/div&gt;&lt;/div&gt;" style="shape=rect;rounded=1;arcSize=15;absoluteArcSize=1;shadow=0;strokeWidth=2;fillColor=#FFFFFF;strokeColor=#333333;opacity=100.0;html=1;nl2Br=0;verticalAlign=middle;align=center;spacingLeft=2.0;spacingRight=0;whiteSpace=wrap;gliffyId=15;" vertex="1" parent="2">
          <mxGeometry x="508.21" y="990" width="40" height="20" as="geometry" />
        </mxCell>
        <mxCell id="keQ0cRB9MPPr5G5kg9qf-578" value="" style="ellipse;whiteSpace=wrap;html=1;strokeColor=none;fillColor=#000000;" vertex="1" parent="2">
          <mxGeometry x="513.21" y="994.5" width="10" height="11" as="geometry" />
        </mxCell>
        <mxCell id="keQ0cRB9MPPr5G5kg9qf-579" value="" style="ellipse;whiteSpace=wrap;html=1;strokeColor=none;fillColor=#000000;" vertex="1" parent="2">
          <mxGeometry x="418.21" y="1040" width="10" height="11" as="geometry" />
        </mxCell>
        <mxCell id="keQ0cRB9MPPr5G5kg9qf-580" value="" style="ellipse;whiteSpace=wrap;html=1;strokeColor=none;fillColor=#000000;" vertex="1" parent="2">
          <mxGeometry x="415.71" y="974.5" width="10" height="11" as="geometry" />
        </mxCell>
        <mxCell id="keQ0cRB9MPPr5G5kg9qf-581" value="ID_B1_1" style="rounded=0;whiteSpace=wrap;html=1;align=right;" vertex="1" parent="2">
          <mxGeometry x="185" y="956.75" width="70" height="20" as="geometry" />
        </mxCell>
        <mxCell id="keQ0cRB9MPPr5G5kg9qf-582" value="ID_B2_1" style="rounded=0;whiteSpace=wrap;html=1;align=right;" vertex="1" parent="2">
          <mxGeometry x="185" y="1020.75" width="70" height="20" as="geometry" />
        </mxCell>
        <mxCell id="keQ0cRB9MPPr5G5kg9qf-583" value="ID_B2_2" style="rounded=0;whiteSpace=wrap;html=1;align=right;" vertex="1" parent="2">
          <mxGeometry x="185" y="1040.75" width="70" height="20" as="geometry" />
        </mxCell>
        <mxCell id="keQ0cRB9MPPr5G5kg9qf-584" value="ID_B1_2" style="rounded=0;whiteSpace=wrap;html=1;align=right;" vertex="1" parent="2">
          <mxGeometry x="185" y="976.25" width="70" height="20" as="geometry" />
        </mxCell>
        <mxCell id="keQ0cRB9MPPr5G5kg9qf-585" value="S_B1_1" style="rounded=0;whiteSpace=wrap;html=1;align=right;" vertex="1" parent="2">
          <mxGeometry x="275" y="976.75" width="80" height="20" as="geometry" />
        </mxCell>
        <mxCell id="keQ0cRB9MPPr5G5kg9qf-586" value="S_B1_2" style="rounded=0;whiteSpace=wrap;html=1;align=right;" vertex="1" parent="2">
          <mxGeometry x="275" y="996.75" width="80" height="20" as="geometry" />
        </mxCell>
        <mxCell id="keQ0cRB9MPPr5G5kg9qf-587" value="ID_B2_3" style="rounded=0;whiteSpace=wrap;html=1;align=right;" vertex="1" parent="2">
          <mxGeometry x="185" y="1061.25" width="70" height="20" as="geometry" />
        </mxCell>
        <mxCell id="keQ0cRB9MPPr5G5kg9qf-588" value="ID_B1_3" style="rounded=0;whiteSpace=wrap;html=1;align=right;" vertex="1" parent="2">
          <mxGeometry x="185" y="996.25" width="70" height="20" as="geometry" />
        </mxCell>
        <mxCell id="keQ0cRB9MPPr5G5kg9qf-589" value="S_B1_3" style="rounded=0;whiteSpace=wrap;html=1;align=right;" vertex="1" parent="2">
          <mxGeometry x="275" y="1016.75" width="80" height="20" as="geometry" />
        </mxCell>
        <mxCell id="keQ0cRB9MPPr5G5kg9qf-593" value="" style="ellipse;whiteSpace=wrap;html=1;strokeColor=none;fillColor=#7f00ff;" vertex="1" parent="2">
          <mxGeometry x="285" y="1001.25" width="10" height="11" as="geometry" />
        </mxCell>
        <mxCell id="keQ0cRB9MPPr5G5kg9qf-594" value="" style="ellipse;whiteSpace=wrap;html=1;strokeColor=none;fillColor=#7f00ff;" vertex="1" parent="2">
          <mxGeometry x="190" y="980.75" width="10" height="11" as="geometry" />
        </mxCell>
        <mxCell id="keQ0cRB9MPPr5G5kg9qf-595" value="" style="ellipse;whiteSpace=wrap;html=1;strokeColor=none;fillColor=#7f00ff;" vertex="1" parent="2">
          <mxGeometry x="190" y="1045.25" width="10" height="11" as="geometry" />
        </mxCell>
        <mxCell id="keQ0cRB9MPPr5G5kg9qf-596" value="" style="ellipse;whiteSpace=wrap;html=1;strokeColor=none;fillColor=#cc0000;" vertex="1" parent="2">
          <mxGeometry x="285" y="1021.25" width="10" height="11" as="geometry" />
        </mxCell>
        <mxCell id="keQ0cRB9MPPr5G5kg9qf-597" value="" style="ellipse;whiteSpace=wrap;html=1;strokeColor=none;fillColor=#cc0000;" vertex="1" parent="2">
          <mxGeometry x="190" y="1000.75" width="10" height="11" as="geometry" />
        </mxCell>
        <mxCell id="keQ0cRB9MPPr5G5kg9qf-598" value="" style="ellipse;whiteSpace=wrap;html=1;strokeColor=none;fillColor=#cc0000;" vertex="1" parent="2">
          <mxGeometry x="190" y="1065.75" width="10" height="11" as="geometry" />
        </mxCell>
        <mxCell id="keQ0cRB9MPPr5G5kg9qf-599" value="S_B2_1" style="rounded=0;whiteSpace=wrap;html=1;align=right;" vertex="1" parent="2">
          <mxGeometry x="275" y="1041.25" width="80" height="20" as="geometry" />
        </mxCell>
        <mxCell id="keQ0cRB9MPPr5G5kg9qf-600" value="S_B2_2" style="rounded=0;whiteSpace=wrap;html=1;align=right;" vertex="1" parent="2">
          <mxGeometry x="275" y="1061.25" width="80" height="20" as="geometry" />
        </mxCell>
        <mxCell id="keQ0cRB9MPPr5G5kg9qf-601" value="S_B2_3" style="rounded=0;whiteSpace=wrap;html=1;align=right;" vertex="1" parent="2">
          <mxGeometry x="275" y="1081.25" width="80" height="20" as="geometry" />
        </mxCell>
        <mxCell id="keQ0cRB9MPPr5G5kg9qf-603" value="" style="ellipse;whiteSpace=wrap;html=1;strokeColor=none;fillColor=#7f00ff;" vertex="1" parent="2">
          <mxGeometry x="285" y="1065.75" width="10" height="11" as="geometry" />
        </mxCell>
        <mxCell id="keQ0cRB9MPPr5G5kg9qf-604" value="" style="ellipse;whiteSpace=wrap;html=1;strokeColor=none;fillColor=#cc0000;" vertex="1" parent="2">
          <mxGeometry x="285" y="1085.75" width="10" height="11" as="geometry" />
        </mxCell>
        <mxCell id="keQ0cRB9MPPr5G5kg9qf-605" style="shape=filledEdge;strokeWidth=2;strokeColor=#000000;fillColor=none;startArrow=none;startFill=0;startSize=6;endArrow=none;endFill=0;endSize=6;rounded=1;gliffyId=17;edgeStyle=orthogonalEdgeStyle;" edge="1" parent="2">
          <mxGeometry width="1" height="23" relative="1" as="geometry">
            <Array as="points">
              <mxPoint x="709.46" y="993.5" />
              <mxPoint x="709.46" y="1001.8333435058594" />
              <mxPoint x="709.46" y="1010.1666564941406" />
              <mxPoint x="709.46" y="1018.5" />
            </Array>
            <mxPoint x="709.46" y="994.5" as="sourcePoint" />
            <mxPoint x="709.46" y="1021.0477259051395" as="targetPoint" />
          </mxGeometry>
        </mxCell>
        <mxCell id="keQ0cRB9MPPr5G5kg9qf-606" value="&lt;div style=&quot;width: 93.0px;height:auto;word-break: break-word;&quot;&gt;&lt;div align=&quot;center&quot;&gt;&lt;br&gt;&lt;/div&gt;&lt;/div&gt;" style="shape=rect;rounded=1;arcSize=15;absoluteArcSize=1;shadow=0;strokeWidth=2;fillColor=#FFFFFF;strokeColor=#333333;opacity=100.0;html=1;nl2Br=0;verticalAlign=middle;align=center;spacingLeft=2.0;spacingRight=0;whiteSpace=wrap;gliffyId=15;" vertex="1" parent="2">
          <mxGeometry x="660" y="974.5" width="69.5" height="20" as="geometry" />
        </mxCell>
        <mxCell id="keQ0cRB9MPPr5G5kg9qf-607" style="edgeStyle=orthogonalEdgeStyle;shape=filledEdge;rounded=1;orthogonalLoop=1;jettySize=auto;html=1;labelBackgroundColor=default;strokeColor=#000000;strokeWidth=2;fontFamily=Helvetica;fontSize=11;fontColor=default;startArrow=none;startFill=0;endArrow=none;endFill=0;startSize=6;endSize=6;fillColor=none;" edge="1" source="keQ0cRB9MPPr5G5kg9qf-608" target="keQ0cRB9MPPr5G5kg9qf-611" parent="2">
          <mxGeometry relative="1" as="geometry" />
        </mxCell>
        <mxCell id="keQ0cRB9MPPr5G5kg9qf-626" style="edgeStyle=orthogonalEdgeStyle;shape=filledEdge;rounded=1;orthogonalLoop=1;jettySize=auto;html=1;entryX=0.063;entryY=0.509;entryDx=0;entryDy=0;entryPerimeter=0;labelBackgroundColor=default;strokeColor=#000000;strokeWidth=2;fontFamily=Helvetica;fontSize=11;fontColor=default;startArrow=none;startFill=0;endArrow=none;endFill=0;startSize=6;endSize=6;fillColor=none;" edge="1" parent="2" source="keQ0cRB9MPPr5G5kg9qf-608" target="keQ0cRB9MPPr5G5kg9qf-622">
          <mxGeometry relative="1" as="geometry">
            <Array as="points">
              <mxPoint x="770" y="1043" />
              <mxPoint x="770" y="1094" />
            </Array>
          </mxGeometry>
        </mxCell>
        <mxCell id="keQ0cRB9MPPr5G5kg9qf-608" value="&lt;div style=&quot;width: 93.0px;height:auto;word-break: break-word;&quot;&gt;&lt;div align=&quot;center&quot;&gt;&lt;span style=&quot;font-family: Arial; font-size: 12px; text-decoration: none; line-height: 0;&quot;&gt;&lt;span style=&quot;text-decoration: none; line-height: 14px;&quot;&gt;B&lt;/span&gt;&lt;/span&gt;&lt;/div&gt;&lt;/div&gt;" style="shape=ellipse;perimeter=ellipsePerimeter;shadow=0;strokeWidth=2;fillColor=#FFFFFF;strokeColor=#333333;opacity=100.0;html=1;nl2Br=0;verticalAlign=top;align=center;spacingLeft=2.0;spacingRight=0;whiteSpace=wrap;gliffyId=12;" vertex="1" parent="2">
          <mxGeometry x="684.21" y="1021" width="63" height="43.5" as="geometry" />
        </mxCell>
        <mxCell id="keQ0cRB9MPPr5G5kg9qf-609" style="edgeStyle=orthogonalEdgeStyle;shape=filledEdge;rounded=1;orthogonalLoop=1;jettySize=auto;html=1;labelBackgroundColor=default;strokeColor=#7f00ff;strokeWidth=2;fontFamily=Helvetica;fontSize=11;fontColor=default;startArrow=none;startFill=0;endArrow=none;endFill=0;startSize=6;endSize=6;fillColor=none;entryX=0.703;entryY=0.092;entryDx=0;entryDy=0;entryPerimeter=0;exitX=1;exitY=0.5;exitDx=0;exitDy=0;" edge="1" source="keQ0cRB9MPPr5G5kg9qf-622" target="keQ0cRB9MPPr5G5kg9qf-608" parent="2">
          <mxGeometry relative="1" as="geometry">
            <Array as="points">
              <mxPoint x="870" y="1094" />
              <mxPoint x="870" y="990" />
              <mxPoint x="740" y="990" />
              <mxPoint x="740" y="1025" />
            </Array>
          </mxGeometry>
        </mxCell>
        <mxCell id="keQ0cRB9MPPr5G5kg9qf-610" style="edgeStyle=orthogonalEdgeStyle;shape=filledEdge;rounded=1;orthogonalLoop=1;jettySize=auto;html=1;entryX=1;entryY=0;entryDx=0;entryDy=0;labelBackgroundColor=default;strokeColor=#cc0000;strokeWidth=2;fontFamily=Helvetica;fontSize=11;fontColor=default;startArrow=none;startFill=0;endArrow=none;endFill=0;startSize=6;endSize=6;fillColor=none;exitX=1;exitY=0.75;exitDx=0;exitDy=0;" edge="1" source="keQ0cRB9MPPr5G5kg9qf-611" target="keQ0cRB9MPPr5G5kg9qf-608" parent="2">
          <mxGeometry relative="1" as="geometry">
            <Array as="points">
              <mxPoint x="838" y="1043" />
              <mxPoint x="860" y="1043" />
              <mxPoint x="860" y="1000" />
              <mxPoint x="760" y="1000" />
              <mxPoint x="760" y="1028" />
            </Array>
          </mxGeometry>
        </mxCell>
        <mxCell id="keQ0cRB9MPPr5G5kg9qf-611" value="&lt;div style=&quot;width: 83.0px;height:auto;word-break: break-word;&quot;&gt;&lt;div align=&quot;center&quot;&gt;&lt;br&gt;&lt;/div&gt;&lt;/div&gt;" style="shape=hexagon;perimeter=hexagonPerimeter2;shadow=0;strokeWidth=2;fillColor=#FFFFFF;strokeColor=#333333;opacity=100.0;html=1;nl2Br=0;verticalAlign=middle;align=center;spacingLeft=2.0;spacingRight=0;whiteSpace=wrap;gliffyId=195;" vertex="1" parent="2">
          <mxGeometry x="783.75" y="1029.75" width="60" height="26.5" as="geometry" />
        </mxCell>
        <mxCell id="keQ0cRB9MPPr5G5kg9qf-612" value="" style="ellipse;whiteSpace=wrap;html=1;strokeColor=none;fillColor=#CC0000;" vertex="1" parent="2">
          <mxGeometry x="796.75" y="1037.5" width="10" height="11" as="geometry" />
        </mxCell>
        <mxCell id="keQ0cRB9MPPr5G5kg9qf-613" value="" style="ellipse;whiteSpace=wrap;html=1;strokeColor=none;fillColor=#7f00ff;" vertex="1" parent="2">
          <mxGeometry x="709.71" y="1044.5" width="10" height="11" as="geometry" />
        </mxCell>
        <mxCell id="keQ0cRB9MPPr5G5kg9qf-614" value="" style="ellipse;whiteSpace=wrap;html=1;strokeColor=none;fillColor=#7f00ff;" vertex="1" parent="2">
          <mxGeometry x="689.5" y="979" width="10" height="11" as="geometry" />
        </mxCell>
        <mxCell id="keQ0cRB9MPPr5G5kg9qf-615" value="" style="ellipse;whiteSpace=wrap;html=1;strokeColor=none;fillColor=#cc0000;" vertex="1" parent="2">
          <mxGeometry x="724.46" y="1044.5" width="10" height="11" as="geometry" />
        </mxCell>
        <mxCell id="keQ0cRB9MPPr5G5kg9qf-616" value="" style="ellipse;whiteSpace=wrap;html=1;strokeColor=none;fillColor=#cc0000;" vertex="1" parent="2">
          <mxGeometry x="706.75" y="979" width="10" height="11" as="geometry" />
        </mxCell>
        <mxCell id="keQ0cRB9MPPr5G5kg9qf-617" value="&lt;div style=&quot;width: 93.0px;height:auto;word-break: break-word;&quot;&gt;&lt;div align=&quot;center&quot;&gt;&lt;br&gt;&lt;/div&gt;&lt;/div&gt;" style="shape=rect;rounded=1;arcSize=15;absoluteArcSize=1;shadow=0;strokeWidth=2;fillColor=#FFFFFF;strokeColor=#CC0000;opacity=100.0;html=1;nl2Br=0;verticalAlign=middle;align=center;spacingLeft=2.0;spacingRight=0;whiteSpace=wrap;gliffyId=15;" vertex="1" parent="2">
          <mxGeometry x="791.75" y="1010.75" width="40" height="20" as="geometry" />
        </mxCell>
        <mxCell id="keQ0cRB9MPPr5G5kg9qf-618" value="" style="ellipse;whiteSpace=wrap;html=1;strokeColor=none;fillColor=#CC0000;" vertex="1" parent="2">
          <mxGeometry x="796.75" y="1015.25" width="10" height="11" as="geometry" />
        </mxCell>
        <mxCell id="keQ0cRB9MPPr5G5kg9qf-619" value="" style="ellipse;whiteSpace=wrap;html=1;strokeColor=none;fillColor=#000000;" vertex="1" parent="2">
          <mxGeometry x="694.71" y="1044.5" width="10" height="11" as="geometry" />
        </mxCell>
        <mxCell id="keQ0cRB9MPPr5G5kg9qf-620" value="" style="ellipse;whiteSpace=wrap;html=1;strokeColor=none;fillColor=#000000;" vertex="1" parent="2">
          <mxGeometry x="668" y="979" width="10" height="11" as="geometry" />
        </mxCell>
        <mxCell id="keQ0cRB9MPPr5G5kg9qf-622" value="&lt;div style=&quot;width: 83.0px;height:auto;word-break: break-word;&quot;&gt;&lt;div align=&quot;center&quot;&gt;&lt;br&gt;&lt;/div&gt;&lt;/div&gt;" style="shape=hexagon;perimeter=hexagonPerimeter2;shadow=0;strokeWidth=2;fillColor=#FFFFFF;strokeColor=#333333;opacity=100.0;html=1;nl2Br=0;verticalAlign=middle;align=center;spacingLeft=2.0;spacingRight=0;whiteSpace=wrap;gliffyId=195;" vertex="1" parent="2">
          <mxGeometry x="793" y="1080.25" width="60" height="26.5" as="geometry" />
        </mxCell>
        <mxCell id="keQ0cRB9MPPr5G5kg9qf-623" value="" style="ellipse;whiteSpace=wrap;html=1;strokeColor=none;fillColor=#7F00FF;" vertex="1" parent="2">
          <mxGeometry x="806" y="1088" width="10" height="11" as="geometry" />
        </mxCell>
        <mxCell id="keQ0cRB9MPPr5G5kg9qf-624" value="&lt;div style=&quot;width: 93.0px;height:auto;word-break: break-word;&quot;&gt;&lt;div align=&quot;center&quot;&gt;&lt;br&gt;&lt;/div&gt;&lt;/div&gt;" style="shape=rect;rounded=1;arcSize=15;absoluteArcSize=1;shadow=0;strokeWidth=2;fillColor=#FFFFFF;strokeColor=#7F00FF;opacity=100.0;html=1;nl2Br=0;verticalAlign=middle;align=center;spacingLeft=2.0;spacingRight=0;whiteSpace=wrap;gliffyId=15;" vertex="1" parent="2">
          <mxGeometry x="801" y="1061.25" width="40" height="20" as="geometry" />
        </mxCell>
        <mxCell id="keQ0cRB9MPPr5G5kg9qf-625" value="" style="ellipse;whiteSpace=wrap;html=1;strokeColor=none;fillColor=#7F00FF;" vertex="1" parent="2">
          <mxGeometry x="806" y="1065.75" width="10" height="11" as="geometry" />
        </mxCell>
        <mxCell id="keQ0cRB9MPPr5G5kg9qf-627" style="shape=filledEdge;strokeWidth=2;strokeColor=#000000;fillColor=none;startArrow=none;startFill=0;startSize=6;endArrow=none;endFill=0;endSize=6;rounded=1;gliffyId=17;edgeStyle=orthogonalEdgeStyle;" edge="1" parent="2">
          <mxGeometry width="1" height="23" relative="1" as="geometry">
            <Array as="points">
              <mxPoint x="1019.71" y="993.5" />
              <mxPoint x="1019.71" y="1001.8333435058594" />
              <mxPoint x="1019.71" y="1010.1666564941406" />
              <mxPoint x="1019.71" y="1018.5" />
            </Array>
            <mxPoint x="1019.71" y="994.5" as="sourcePoint" />
            <mxPoint x="1019.71" y="1021.0477259051395" as="targetPoint" />
          </mxGeometry>
        </mxCell>
        <mxCell id="keQ0cRB9MPPr5G5kg9qf-628" value="&lt;div style=&quot;width: 93.0px;height:auto;word-break: break-word;&quot;&gt;&lt;div align=&quot;center&quot;&gt;&lt;br&gt;&lt;/div&gt;&lt;/div&gt;" style="shape=rect;rounded=1;arcSize=15;absoluteArcSize=1;shadow=0;strokeWidth=2;fillColor=#FFFFFF;strokeColor=#333333;opacity=100.0;html=1;nl2Br=0;verticalAlign=middle;align=center;spacingLeft=2.0;spacingRight=0;whiteSpace=wrap;gliffyId=15;" vertex="1" parent="2">
          <mxGeometry x="970.25" y="974.5" width="69.5" height="20" as="geometry" />
        </mxCell>
        <mxCell id="keQ0cRB9MPPr5G5kg9qf-629" style="edgeStyle=orthogonalEdgeStyle;shape=filledEdge;rounded=1;orthogonalLoop=1;jettySize=auto;html=1;labelBackgroundColor=default;strokeColor=#000000;strokeWidth=2;fontFamily=Helvetica;fontSize=11;fontColor=default;startArrow=none;startFill=0;endArrow=none;endFill=0;startSize=6;endSize=6;fillColor=none;" edge="1" source="keQ0cRB9MPPr5G5kg9qf-631" target="keQ0cRB9MPPr5G5kg9qf-634" parent="2">
          <mxGeometry relative="1" as="geometry" />
        </mxCell>
        <mxCell id="keQ0cRB9MPPr5G5kg9qf-631" value="&lt;div style=&quot;width: 93.0px;height:auto;word-break: break-word;&quot;&gt;&lt;div align=&quot;center&quot;&gt;&lt;span style=&quot;font-family: Arial; font-size: 12px; text-decoration: none; line-height: 0;&quot;&gt;&lt;span style=&quot;text-decoration: none; line-height: 14px;&quot;&gt;B&lt;/span&gt;&lt;/span&gt;&lt;/div&gt;&lt;/div&gt;" style="shape=ellipse;perimeter=ellipsePerimeter;shadow=0;strokeWidth=2;fillColor=#FFFFFF;strokeColor=#333333;opacity=100.0;html=1;nl2Br=0;verticalAlign=top;align=center;spacingLeft=2.0;spacingRight=0;whiteSpace=wrap;gliffyId=12;" vertex="1" parent="2">
          <mxGeometry x="994.46" y="1021" width="63" height="43.5" as="geometry" />
        </mxCell>
        <mxCell id="keQ0cRB9MPPr5G5kg9qf-632" style="edgeStyle=orthogonalEdgeStyle;shape=filledEdge;rounded=1;orthogonalLoop=1;jettySize=auto;html=1;labelBackgroundColor=default;strokeColor=#FF9933;strokeWidth=2;fontFamily=Helvetica;fontSize=11;fontColor=default;startArrow=none;startFill=0;endArrow=none;endFill=0;startSize=6;endSize=6;fillColor=none;entryX=0.703;entryY=0.092;entryDx=0;entryDy=0;entryPerimeter=0;" edge="1" source="keQ0cRB9MPPr5G5kg9qf-634" target="keQ0cRB9MPPr5G5kg9qf-631" parent="2">
          <mxGeometry relative="1" as="geometry">
            <Array as="points">
              <mxPoint x="1180" y="1043" />
              <mxPoint x="1180" y="970" />
              <mxPoint x="1050" y="970" />
              <mxPoint x="1050" y="1025" />
            </Array>
          </mxGeometry>
        </mxCell>
        <mxCell id="keQ0cRB9MPPr5G5kg9qf-648" style="edgeStyle=none;shape=filledEdge;rounded=1;orthogonalLoop=1;jettySize=auto;html=1;labelBackgroundColor=default;strokeColor=#000000;strokeWidth=2;fontFamily=Helvetica;fontSize=11;fontColor=default;startArrow=none;startFill=0;endArrow=none;endFill=0;startSize=6;endSize=6;fillColor=none;" edge="1" parent="2" source="keQ0cRB9MPPr5G5kg9qf-634" target="keQ0cRB9MPPr5G5kg9qf-640">
          <mxGeometry relative="1" as="geometry" />
        </mxCell>
        <mxCell id="keQ0cRB9MPPr5G5kg9qf-649" style="edgeStyle=none;shape=filledEdge;rounded=1;orthogonalLoop=1;jettySize=auto;html=1;entryX=0.5;entryY=1;entryDx=0;entryDy=0;labelBackgroundColor=default;strokeColor=#000000;strokeWidth=2;fontFamily=Helvetica;fontSize=11;fontColor=default;startArrow=none;startFill=0;endArrow=none;endFill=0;startSize=6;endSize=6;fillColor=none;" edge="1" parent="2" source="keQ0cRB9MPPr5G5kg9qf-634" target="keQ0cRB9MPPr5G5kg9qf-646">
          <mxGeometry relative="1" as="geometry" />
        </mxCell>
        <mxCell id="keQ0cRB9MPPr5G5kg9qf-634" value="&lt;div style=&quot;width: 83.0px;height:auto;word-break: break-word;&quot;&gt;&lt;div align=&quot;center&quot;&gt;&lt;br&gt;&lt;/div&gt;&lt;/div&gt;" style="shape=hexagon;perimeter=hexagonPerimeter2;shadow=0;strokeWidth=2;fillColor=#FFFFFF;strokeColor=#333333;opacity=100.0;html=1;nl2Br=0;verticalAlign=middle;align=center;spacingLeft=2.0;spacingRight=0;whiteSpace=wrap;gliffyId=195;" vertex="1" parent="2">
          <mxGeometry x="1094" y="1029.75" width="60" height="26.5" as="geometry" />
        </mxCell>
        <mxCell id="keQ0cRB9MPPr5G5kg9qf-635" value="" style="ellipse;whiteSpace=wrap;html=1;strokeColor=none;fillColor=#CC0000;" vertex="1" parent="2">
          <mxGeometry x="1107" y="1037.5" width="10" height="11" as="geometry" />
        </mxCell>
        <mxCell id="keQ0cRB9MPPr5G5kg9qf-636" value="" style="ellipse;whiteSpace=wrap;html=1;strokeColor=none;fillColor=#7f00ff;" vertex="1" parent="2">
          <mxGeometry x="1019.96" y="1044.5" width="10" height="11" as="geometry" />
        </mxCell>
        <mxCell id="keQ0cRB9MPPr5G5kg9qf-637" value="" style="ellipse;whiteSpace=wrap;html=1;strokeColor=none;fillColor=#7f00ff;" vertex="1" parent="2">
          <mxGeometry x="999.75" y="979" width="10" height="11" as="geometry" />
        </mxCell>
        <mxCell id="keQ0cRB9MPPr5G5kg9qf-638" value="" style="ellipse;whiteSpace=wrap;html=1;strokeColor=none;fillColor=#cc0000;" vertex="1" parent="2">
          <mxGeometry x="1034.71" y="1044.5" width="10" height="11" as="geometry" />
        </mxCell>
        <mxCell id="keQ0cRB9MPPr5G5kg9qf-639" value="" style="ellipse;whiteSpace=wrap;html=1;strokeColor=none;fillColor=#cc0000;" vertex="1" parent="2">
          <mxGeometry x="1017" y="979" width="10" height="11" as="geometry" />
        </mxCell>
        <mxCell id="keQ0cRB9MPPr5G5kg9qf-640" value="&lt;div style=&quot;width: 93.0px;height:auto;word-break: break-word;&quot;&gt;&lt;div align=&quot;center&quot;&gt;&lt;br&gt;&lt;/div&gt;&lt;/div&gt;" style="shape=rect;rounded=1;arcSize=15;absoluteArcSize=1;shadow=0;strokeWidth=2;fillColor=#FFFFFF;strokeColor=#CC0000;opacity=100.0;html=1;nl2Br=0;verticalAlign=middle;align=center;spacingLeft=2.0;spacingRight=0;whiteSpace=wrap;gliffyId=15;" vertex="1" parent="2">
          <mxGeometry x="1074.25" y="990" width="40" height="20" as="geometry" />
        </mxCell>
        <mxCell id="keQ0cRB9MPPr5G5kg9qf-641" value="" style="ellipse;whiteSpace=wrap;html=1;strokeColor=none;fillColor=#CC0000;" vertex="1" parent="2">
          <mxGeometry x="1079.25" y="994.5" width="10" height="11" as="geometry" />
        </mxCell>
        <mxCell id="keQ0cRB9MPPr5G5kg9qf-642" value="" style="ellipse;whiteSpace=wrap;html=1;strokeColor=none;fillColor=#000000;" vertex="1" parent="2">
          <mxGeometry x="1004.96" y="1044.5" width="10" height="11" as="geometry" />
        </mxCell>
        <mxCell id="keQ0cRB9MPPr5G5kg9qf-643" value="" style="ellipse;whiteSpace=wrap;html=1;strokeColor=none;fillColor=#000000;" vertex="1" parent="2">
          <mxGeometry x="978.25" y="979" width="10" height="11" as="geometry" />
        </mxCell>
        <mxCell id="keQ0cRB9MPPr5G5kg9qf-645" value="" style="ellipse;whiteSpace=wrap;html=1;strokeColor=none;fillColor=#7F00FF;" vertex="1" parent="2">
          <mxGeometry x="1125.25" y="1037" width="10" height="11" as="geometry" />
        </mxCell>
        <mxCell id="keQ0cRB9MPPr5G5kg9qf-646" value="&lt;div style=&quot;width: 93.0px;height:auto;word-break: break-word;&quot;&gt;&lt;div align=&quot;center&quot;&gt;&lt;br&gt;&lt;/div&gt;&lt;/div&gt;" style="shape=rect;rounded=1;arcSize=15;absoluteArcSize=1;shadow=0;strokeWidth=2;fillColor=#FFFFFF;strokeColor=#7F00FF;opacity=100.0;html=1;nl2Br=0;verticalAlign=middle;align=center;spacingLeft=2.0;spacingRight=0;whiteSpace=wrap;gliffyId=15;" vertex="1" parent="2">
          <mxGeometry x="1130.25" y="989" width="40" height="20" as="geometry" />
        </mxCell>
        <mxCell id="keQ0cRB9MPPr5G5kg9qf-647" value="" style="ellipse;whiteSpace=wrap;html=1;strokeColor=none;fillColor=#7F00FF;" vertex="1" parent="2">
          <mxGeometry x="1135.25" y="993.5" width="10" height="11" as="geometry" />
        </mxCell>
        <mxCell id="keQ0cRB9MPPr5G5kg9qf-651" style="shape=filledEdge;strokeWidth=2;strokeColor=#000000;fillColor=none;startArrow=none;startFill=0;startSize=6;endArrow=none;endFill=0;endSize=6;rounded=1;gliffyId=17;edgeStyle=orthogonalEdgeStyle;" edge="1" parent="2">
          <mxGeometry width="1" height="23" relative="1" as="geometry">
            <Array as="points">
              <mxPoint x="1307.46" y="985.25" />
              <mxPoint x="1307.46" y="993.5833435058594" />
              <mxPoint x="1307.46" y="1001.9166564941406" />
              <mxPoint x="1307.46" y="1010.25" />
            </Array>
            <mxPoint x="1307.46" y="986.25" as="sourcePoint" />
            <mxPoint x="1307.46" y="1012.7977259051395" as="targetPoint" />
          </mxGeometry>
        </mxCell>
        <mxCell id="keQ0cRB9MPPr5G5kg9qf-652" value="&lt;div style=&quot;width: 93.0px;height:auto;word-break: break-word;&quot;&gt;&lt;div align=&quot;center&quot;&gt;&lt;br&gt;&lt;/div&gt;&lt;/div&gt;" style="shape=rect;rounded=1;arcSize=15;absoluteArcSize=1;shadow=0;strokeWidth=2;fillColor=#FFFFFF;strokeColor=#333333;opacity=100.0;html=1;nl2Br=0;verticalAlign=middle;align=center;spacingLeft=2.0;spacingRight=0;whiteSpace=wrap;gliffyId=15;" vertex="1" parent="2">
          <mxGeometry x="1258" y="966.25" width="69.5" height="20" as="geometry" />
        </mxCell>
        <mxCell id="keQ0cRB9MPPr5G5kg9qf-653" style="edgeStyle=orthogonalEdgeStyle;shape=filledEdge;rounded=1;orthogonalLoop=1;jettySize=auto;html=1;labelBackgroundColor=default;strokeColor=#000000;strokeWidth=2;fontFamily=Helvetica;fontSize=11;fontColor=default;startArrow=none;startFill=0;endArrow=none;endFill=0;startSize=6;endSize=6;fillColor=none;" edge="1" source="keQ0cRB9MPPr5G5kg9qf-654" target="keQ0cRB9MPPr5G5kg9qf-658" parent="2">
          <mxGeometry relative="1" as="geometry" />
        </mxCell>
        <mxCell id="keQ0cRB9MPPr5G5kg9qf-654" value="&lt;div style=&quot;width: 93.0px;height:auto;word-break: break-word;&quot;&gt;&lt;div align=&quot;center&quot;&gt;&lt;span style=&quot;font-family: Arial; font-size: 12px; text-decoration: none; line-height: 0;&quot;&gt;&lt;span style=&quot;text-decoration: none; line-height: 14px;&quot;&gt;B&lt;/span&gt;&lt;/span&gt;&lt;/div&gt;&lt;/div&gt;" style="shape=ellipse;perimeter=ellipsePerimeter;shadow=0;strokeWidth=2;fillColor=#FFFFFF;strokeColor=#333333;opacity=100.0;html=1;nl2Br=0;verticalAlign=top;align=center;spacingLeft=2.0;spacingRight=0;whiteSpace=wrap;gliffyId=12;" vertex="1" parent="2">
          <mxGeometry x="1282.21" y="1012.75" width="63" height="43.5" as="geometry" />
        </mxCell>
        <mxCell id="keQ0cRB9MPPr5G5kg9qf-655" style="edgeStyle=orthogonalEdgeStyle;shape=filledEdge;rounded=1;orthogonalLoop=1;jettySize=auto;html=1;labelBackgroundColor=default;strokeColor=#FF9933;strokeWidth=2;fontFamily=Helvetica;fontSize=11;fontColor=default;startArrow=none;startFill=0;endArrow=none;endFill=0;startSize=6;endSize=6;fillColor=none;entryX=0.703;entryY=0.092;entryDx=0;entryDy=0;entryPerimeter=0;" edge="1" source="keQ0cRB9MPPr5G5kg9qf-658" target="keQ0cRB9MPPr5G5kg9qf-654" parent="2">
          <mxGeometry relative="1" as="geometry">
            <Array as="points">
              <mxPoint x="1467.75" y="1034.75" />
              <mxPoint x="1467.75" y="961.75" />
              <mxPoint x="1337.75" y="961.75" />
              <mxPoint x="1337.75" y="1016.75" />
            </Array>
          </mxGeometry>
        </mxCell>
        <mxCell id="keQ0cRB9MPPr5G5kg9qf-658" value="&lt;div style=&quot;width: 83.0px;height:auto;word-break: break-word;&quot;&gt;&lt;div align=&quot;center&quot;&gt;&lt;br&gt;&lt;/div&gt;&lt;div align=&quot;center&quot;&gt;(...)&lt;/div&gt;&lt;/div&gt;" style="shape=hexagon;perimeter=hexagonPerimeter2;shadow=0;strokeWidth=2;fillColor=#FFFFFF;strokeColor=#333333;opacity=100.0;html=1;nl2Br=0;verticalAlign=middle;align=center;spacingLeft=2.0;spacingRight=0;whiteSpace=wrap;gliffyId=195;" vertex="1" parent="2">
          <mxGeometry x="1370.75" y="1015.5" width="80" height="40" as="geometry" />
        </mxCell>
        <mxCell id="keQ0cRB9MPPr5G5kg9qf-659" value="" style="ellipse;whiteSpace=wrap;html=1;strokeColor=none;fillColor=#CC0000;" vertex="1" parent="2">
          <mxGeometry x="1400" y="1021.75" width="10" height="11" as="geometry" />
        </mxCell>
        <mxCell id="keQ0cRB9MPPr5G5kg9qf-660" value="" style="ellipse;whiteSpace=wrap;html=1;strokeColor=none;fillColor=#7f00ff;" vertex="1" parent="2">
          <mxGeometry x="1307.71" y="1036.25" width="10" height="11" as="geometry" />
        </mxCell>
        <mxCell id="keQ0cRB9MPPr5G5kg9qf-661" value="" style="ellipse;whiteSpace=wrap;html=1;strokeColor=none;fillColor=#7f00ff;" vertex="1" parent="2">
          <mxGeometry x="1287.5" y="970.75" width="10" height="11" as="geometry" />
        </mxCell>
        <mxCell id="keQ0cRB9MPPr5G5kg9qf-662" value="" style="ellipse;whiteSpace=wrap;html=1;strokeColor=none;fillColor=#cc0000;" vertex="1" parent="2">
          <mxGeometry x="1322.46" y="1036.25" width="10" height="11" as="geometry" />
        </mxCell>
        <mxCell id="keQ0cRB9MPPr5G5kg9qf-663" value="" style="ellipse;whiteSpace=wrap;html=1;strokeColor=none;fillColor=#cc0000;" vertex="1" parent="2">
          <mxGeometry x="1304.75" y="970.75" width="10" height="11" as="geometry" />
        </mxCell>
        <mxCell id="keQ0cRB9MPPr5G5kg9qf-664" value="&lt;div style=&quot;width: 93.0px;height:auto;word-break: break-word;&quot;&gt;&lt;div align=&quot;center&quot;&gt;&lt;br&gt;&lt;/div&gt;&lt;/div&gt;" style="shape=rect;rounded=1;arcSize=15;absoluteArcSize=1;shadow=0;strokeWidth=2;fillColor=#FFFFFF;strokeColor=#000000;opacity=100.0;html=1;nl2Br=0;verticalAlign=middle;align=center;spacingLeft=2.0;spacingRight=0;whiteSpace=wrap;gliffyId=15;" vertex="1" parent="2">
          <mxGeometry x="1390.75" y="995.5" width="40" height="20" as="geometry" />
        </mxCell>
        <mxCell id="keQ0cRB9MPPr5G5kg9qf-665" value="" style="ellipse;whiteSpace=wrap;html=1;strokeColor=none;fillColor=#CC0000;" vertex="1" parent="2">
          <mxGeometry x="1395.75" y="1000" width="10" height="11" as="geometry" />
        </mxCell>
        <mxCell id="keQ0cRB9MPPr5G5kg9qf-666" value="" style="ellipse;whiteSpace=wrap;html=1;strokeColor=none;fillColor=#000000;" vertex="1" parent="2">
          <mxGeometry x="1292.71" y="1036.25" width="10" height="11" as="geometry" />
        </mxCell>
        <mxCell id="keQ0cRB9MPPr5G5kg9qf-667" value="" style="ellipse;whiteSpace=wrap;html=1;strokeColor=none;fillColor=#000000;" vertex="1" parent="2">
          <mxGeometry x="1266" y="970.75" width="10" height="11" as="geometry" />
        </mxCell>
        <mxCell id="keQ0cRB9MPPr5G5kg9qf-668" value="" style="ellipse;whiteSpace=wrap;html=1;strokeColor=none;fillColor=#7F00FF;" vertex="1" parent="2">
          <mxGeometry x="1418.25" y="1021.25" width="10" height="11" as="geometry" />
        </mxCell>
        <mxCell id="keQ0cRB9MPPr5G5kg9qf-670" value="" style="ellipse;whiteSpace=wrap;html=1;strokeColor=none;fillColor=#7F00FF;" vertex="1" parent="2">
          <mxGeometry x="1413" y="1000" width="10" height="11" as="geometry" />
        </mxCell>
        <mxCell id="keQ0cRB9MPPr5G5kg9qf-679" value="" style="ellipse;whiteSpace=wrap;html=1;strokeColor=none;fillColor=#00c74c;" vertex="1" parent="2">
          <mxGeometry x="1347.75" y="373" width="10" height="11" as="geometry" />
        </mxCell>
        <mxCell id="keQ0cRB9MPPr5G5kg9qf-680" value="" style="ellipse;whiteSpace=wrap;html=1;strokeColor=none;fillColor=#7f00ff;" vertex="1" parent="2">
          <mxGeometry x="1365" y="373" width="10" height="11" as="geometry" />
        </mxCell>
        <mxCell id="keQ0cRB9MPPr5G5kg9qf-681" value="" style="ellipse;whiteSpace=wrap;html=1;strokeColor=none;fillColor=#cc0000;" vertex="1" parent="2">
          <mxGeometry x="1382.25" y="373" width="10" height="11" as="geometry" />
        </mxCell>
        <mxCell id="keQ0cRB9MPPr5G5kg9qf-683" value="" style="ellipse;whiteSpace=wrap;html=1;strokeColor=none;fillColor=#00c74c;" vertex="1" parent="2">
          <mxGeometry x="1349.75" y="395.5" width="10" height="11" as="geometry" />
        </mxCell>
        <mxCell id="keQ0cRB9MPPr5G5kg9qf-684" value="" style="ellipse;whiteSpace=wrap;html=1;strokeColor=none;fillColor=#7f00ff;" vertex="1" parent="2">
          <mxGeometry x="1367" y="395.5" width="10" height="11" as="geometry" />
        </mxCell>
        <mxCell id="keQ0cRB9MPPr5G5kg9qf-685" value="" style="ellipse;whiteSpace=wrap;html=1;strokeColor=none;fillColor=#cc0000;" vertex="1" parent="2">
          <mxGeometry x="1384.25" y="395.5" width="10" height="11" as="geometry" />
        </mxCell>
        <mxCell id="keQ0cRB9MPPr5G5kg9qf-691" value="" style="ellipse;whiteSpace=wrap;html=1;strokeColor=none;fillColor=#00c74c;" vertex="1" parent="2">
          <mxGeometry x="1353.5" y="777.25" width="10" height="11" as="geometry" />
        </mxCell>
        <mxCell id="keQ0cRB9MPPr5G5kg9qf-692" value="" style="ellipse;whiteSpace=wrap;html=1;strokeColor=none;fillColor=#7f00ff;" vertex="1" parent="2">
          <mxGeometry x="1370.75" y="777.25" width="10" height="11" as="geometry" />
        </mxCell>
        <mxCell id="keQ0cRB9MPPr5G5kg9qf-693" value="" style="ellipse;whiteSpace=wrap;html=1;strokeColor=none;fillColor=#cc0000;" vertex="1" parent="2">
          <mxGeometry x="1388" y="777.25" width="10" height="11" as="geometry" />
        </mxCell>
        <mxCell id="keQ0cRB9MPPr5G5kg9qf-694" value="" style="ellipse;whiteSpace=wrap;html=1;strokeColor=none;fillColor=#00c74c;" vertex="1" parent="2">
          <mxGeometry x="1350.25" y="802" width="10" height="11" as="geometry" />
        </mxCell>
        <mxCell id="keQ0cRB9MPPr5G5kg9qf-695" value="" style="ellipse;whiteSpace=wrap;html=1;strokeColor=none;fillColor=#7f00ff;" vertex="1" parent="2">
          <mxGeometry x="1367.5" y="802" width="10" height="11" as="geometry" />
        </mxCell>
        <mxCell id="keQ0cRB9MPPr5G5kg9qf-696" value="" style="ellipse;whiteSpace=wrap;html=1;strokeColor=none;fillColor=#cc0000;" vertex="1" parent="2">
          <mxGeometry x="1384.75" y="802" width="10" height="11" as="geometry" />
        </mxCell>
        <mxCell id="keQ0cRB9MPPr5G5kg9qf-697" value="ID_B1_1" style="rounded=0;whiteSpace=wrap;html=1;align=right;" vertex="1" parent="2">
          <mxGeometry x="190" y="1150" width="70" height="20" as="geometry" />
        </mxCell>
        <mxCell id="keQ0cRB9MPPr5G5kg9qf-698" value="ID_B2_1" style="rounded=0;whiteSpace=wrap;html=1;align=right;" vertex="1" parent="2">
          <mxGeometry x="190" y="1214" width="70" height="20" as="geometry" />
        </mxCell>
        <mxCell id="keQ0cRB9MPPr5G5kg9qf-699" value="ID_B2_2" style="rounded=0;whiteSpace=wrap;html=1;align=right;" vertex="1" parent="2">
          <mxGeometry x="190" y="1234" width="70" height="20" as="geometry" />
        </mxCell>
        <mxCell id="keQ0cRB9MPPr5G5kg9qf-700" value="ID_B1_2" style="rounded=0;whiteSpace=wrap;html=1;align=right;" vertex="1" parent="2">
          <mxGeometry x="190" y="1169.5" width="70" height="20" as="geometry" />
        </mxCell>
        <mxCell id="keQ0cRB9MPPr5G5kg9qf-701" value="S_B1_1" style="rounded=0;whiteSpace=wrap;html=1;align=right;" vertex="1" parent="2">
          <mxGeometry x="280" y="1170" width="80" height="20" as="geometry" />
        </mxCell>
        <mxCell id="keQ0cRB9MPPr5G5kg9qf-702" value="S_B1_2" style="rounded=0;whiteSpace=wrap;html=1;align=right;" vertex="1" parent="2">
          <mxGeometry x="280" y="1190" width="80" height="20" as="geometry" />
        </mxCell>
        <mxCell id="keQ0cRB9MPPr5G5kg9qf-703" value="ID_B2_3" style="rounded=0;whiteSpace=wrap;html=1;align=right;" vertex="1" parent="2">
          <mxGeometry x="190" y="1254.5" width="70" height="20" as="geometry" />
        </mxCell>
        <mxCell id="keQ0cRB9MPPr5G5kg9qf-706" value="" style="ellipse;whiteSpace=wrap;html=1;strokeColor=none;fillColor=#7f00ff;" vertex="1" parent="2">
          <mxGeometry x="285" y="1194.5" width="10" height="11" as="geometry" />
        </mxCell>
        <mxCell id="keQ0cRB9MPPr5G5kg9qf-707" value="" style="ellipse;whiteSpace=wrap;html=1;strokeColor=none;fillColor=#7f00ff;" vertex="1" parent="2">
          <mxGeometry x="190" y="1173.75" width="10" height="11" as="geometry" />
        </mxCell>
        <mxCell id="keQ0cRB9MPPr5G5kg9qf-708" value="" style="ellipse;whiteSpace=wrap;html=1;strokeColor=none;fillColor=#7f00ff;" vertex="1" parent="2">
          <mxGeometry x="195" y="1238.5" width="10" height="11" as="geometry" />
        </mxCell>
        <mxCell id="keQ0cRB9MPPr5G5kg9qf-709" value="" style="ellipse;whiteSpace=wrap;html=1;strokeColor=none;fillColor=#cc0000;" vertex="1" parent="2">
          <mxGeometry x="295" y="1194.5" width="10" height="11" as="geometry" />
        </mxCell>
        <mxCell id="keQ0cRB9MPPr5G5kg9qf-710" value="" style="ellipse;whiteSpace=wrap;html=1;strokeColor=none;fillColor=#cc0000;" vertex="1" parent="2">
          <mxGeometry x="200" y="1174.25" width="10" height="11" as="geometry" />
        </mxCell>
        <mxCell id="keQ0cRB9MPPr5G5kg9qf-711" value="" style="ellipse;whiteSpace=wrap;html=1;strokeColor=none;fillColor=#cc0000;" vertex="1" parent="2">
          <mxGeometry x="195" y="1259" width="10" height="11" as="geometry" />
        </mxCell>
        <mxCell id="keQ0cRB9MPPr5G5kg9qf-712" value="S_B2_1" style="rounded=0;whiteSpace=wrap;html=1;align=right;" vertex="1" parent="2">
          <mxGeometry x="280" y="1214.5" width="80" height="20" as="geometry" />
        </mxCell>
        <mxCell id="keQ0cRB9MPPr5G5kg9qf-713" value="S_B2_2" style="rounded=0;whiteSpace=wrap;html=1;align=right;" vertex="1" parent="2">
          <mxGeometry x="280" y="1234.5" width="80" height="20" as="geometry" />
        </mxCell>
        <mxCell id="keQ0cRB9MPPr5G5kg9qf-714" value="S_B2_3" style="rounded=0;whiteSpace=wrap;html=1;align=right;" vertex="1" parent="2">
          <mxGeometry x="280" y="1254.5" width="80" height="20" as="geometry" />
        </mxCell>
        <mxCell id="keQ0cRB9MPPr5G5kg9qf-715" value="" style="ellipse;whiteSpace=wrap;html=1;strokeColor=none;fillColor=#7f00ff;" vertex="1" parent="2">
          <mxGeometry x="290" y="1239" width="10" height="11" as="geometry" />
        </mxCell>
        <mxCell id="keQ0cRB9MPPr5G5kg9qf-716" value="" style="ellipse;whiteSpace=wrap;html=1;strokeColor=none;fillColor=#cc0000;" vertex="1" parent="2">
          <mxGeometry x="290" y="1259" width="10" height="11" as="geometry" />
        </mxCell>
        <mxCell id="keQ0cRB9MPPr5G5kg9qf-719" value="ID_B1_1" style="rounded=0;whiteSpace=wrap;html=1;align=right;" vertex="1" parent="2">
          <mxGeometry x="170" y="1300" width="90" height="20" as="geometry" />
        </mxCell>
        <mxCell id="keQ0cRB9MPPr5G5kg9qf-720" value="ID_B2_1" style="rounded=0;whiteSpace=wrap;html=1;align=right;" vertex="1" parent="2">
          <mxGeometry x="190" y="1364" width="70" height="20" as="geometry" />
        </mxCell>
        <mxCell id="keQ0cRB9MPPr5G5kg9qf-721" value="ID_B2_2" style="rounded=0;whiteSpace=wrap;html=1;align=right;" vertex="1" parent="2">
          <mxGeometry x="190" y="1384" width="70" height="20" as="geometry" />
        </mxCell>
        <mxCell id="keQ0cRB9MPPr5G5kg9qf-723" value="S_B1_1" style="rounded=0;whiteSpace=wrap;html=1;align=right;" vertex="1" parent="2">
          <mxGeometry x="280" y="1320" width="80" height="20" as="geometry" />
        </mxCell>
        <mxCell id="keQ0cRB9MPPr5G5kg9qf-724" value="S_B1_2" style="rounded=0;whiteSpace=wrap;html=1;align=right;" vertex="1" parent="2">
          <mxGeometry x="280" y="1340" width="80" height="20" as="geometry" />
        </mxCell>
        <mxCell id="keQ0cRB9MPPr5G5kg9qf-725" value="ID_B2_3" style="rounded=0;whiteSpace=wrap;html=1;align=right;" vertex="1" parent="2">
          <mxGeometry x="190" y="1404.5" width="70" height="20" as="geometry" />
        </mxCell>
        <mxCell id="keQ0cRB9MPPr5G5kg9qf-726" value="" style="ellipse;whiteSpace=wrap;html=1;strokeColor=none;fillColor=#7f00ff;" vertex="1" parent="2">
          <mxGeometry x="285" y="1344.5" width="10" height="11" as="geometry" />
        </mxCell>
        <mxCell id="keQ0cRB9MPPr5G5kg9qf-727" value="" style="ellipse;whiteSpace=wrap;html=1;strokeColor=none;fillColor=#7f00ff;" vertex="1" parent="2">
          <mxGeometry x="190" y="1304.25" width="10" height="11" as="geometry" />
        </mxCell>
        <mxCell id="keQ0cRB9MPPr5G5kg9qf-728" value="" style="ellipse;whiteSpace=wrap;html=1;strokeColor=none;fillColor=#7f00ff;" vertex="1" parent="2">
          <mxGeometry x="195" y="1388.5" width="10" height="11" as="geometry" />
        </mxCell>
        <mxCell id="keQ0cRB9MPPr5G5kg9qf-729" value="" style="ellipse;whiteSpace=wrap;html=1;strokeColor=none;fillColor=#cc0000;" vertex="1" parent="2">
          <mxGeometry x="295" y="1344.5" width="10" height="11" as="geometry" />
        </mxCell>
        <mxCell id="keQ0cRB9MPPr5G5kg9qf-730" value="" style="ellipse;whiteSpace=wrap;html=1;strokeColor=none;fillColor=#cc0000;" vertex="1" parent="2">
          <mxGeometry x="200" y="1304.75" width="10" height="11" as="geometry" />
        </mxCell>
        <mxCell id="keQ0cRB9MPPr5G5kg9qf-731" value="" style="ellipse;whiteSpace=wrap;html=1;strokeColor=none;fillColor=#cc0000;" vertex="1" parent="2">
          <mxGeometry x="195" y="1409" width="10" height="11" as="geometry" />
        </mxCell>
        <mxCell id="keQ0cRB9MPPr5G5kg9qf-732" value="S_B2_1" style="rounded=0;whiteSpace=wrap;html=1;align=right;" vertex="1" parent="2">
          <mxGeometry x="280" y="1364.5" width="80" height="20" as="geometry" />
        </mxCell>
        <mxCell id="keQ0cRB9MPPr5G5kg9qf-733" value="S_B2_2" style="rounded=0;whiteSpace=wrap;html=1;align=right;" vertex="1" parent="2">
          <mxGeometry x="280" y="1384.5" width="80" height="20" as="geometry" />
        </mxCell>
        <mxCell id="keQ0cRB9MPPr5G5kg9qf-734" value="S_B2_3" style="rounded=0;whiteSpace=wrap;html=1;align=right;" vertex="1" parent="2">
          <mxGeometry x="280" y="1404.5" width="80" height="20" as="geometry" />
        </mxCell>
        <mxCell id="keQ0cRB9MPPr5G5kg9qf-735" value="" style="ellipse;whiteSpace=wrap;html=1;strokeColor=none;fillColor=#7f00ff;" vertex="1" parent="2">
          <mxGeometry x="290" y="1389" width="10" height="11" as="geometry" />
        </mxCell>
        <mxCell id="keQ0cRB9MPPr5G5kg9qf-736" value="" style="ellipse;whiteSpace=wrap;html=1;strokeColor=none;fillColor=#cc0000;" vertex="1" parent="2">
          <mxGeometry x="290" y="1409" width="10" height="11" as="geometry" />
        </mxCell>
        <mxCell id="keQ0cRB9MPPr5G5kg9qf-737" value="" style="ellipse;whiteSpace=wrap;html=1;strokeColor=none;fillColor=#000000;" vertex="1" parent="2">
          <mxGeometry x="179.99999999999997" y="1304.25" width="10" height="11" as="geometry" />
        </mxCell>
      </root>
    </mxGraphModel>
  </diagram>
</mxfile>
